G04 #@! TF.GenerationSoftware,KiCad,Pcbnew,(5.1.9)-1*
G04 #@! TF.CreationDate,2023-06-14T07:28:31+09:00*
G04 #@! TF.ProjectId,PICo-16f1765,5049436f-2d31-4366-9631-3736352e6b69,rev?*
G04 #@! TF.SameCoordinates,Original*
G04 #@! TF.FileFunction,Legend,Bot*
G04 #@! TF.FilePolarity,Positive*
%FSLAX46Y46*%
G04 Gerber Fmt 4.6, Leading zero omitted, Abs format (unit mm)*
G04 Created by KiCad (PCBNEW (5.1.9)-1) date 2023-06-14 07:28:31*
%MOMM*%
%LPD*%
G01*
G04 APERTURE LIST*
%ADD10C,0.120000*%
%ADD11C,0.150000*%
%ADD12C,2.200000*%
%ADD13O,1.600000X1.600000*%
%ADD14R,1.600000X1.600000*%
%ADD15C,1.500000*%
%ADD16O,1.700000X1.700000*%
%ADD17R,1.700000X1.700000*%
G04 APERTURE END LIST*
D10*
G04 #@! TO.C,J3*
X11370000Y-29270000D02*
X12700000Y-29270000D01*
X11370000Y-27940000D02*
X11370000Y-29270000D01*
X11370000Y-26670000D02*
X14030000Y-26670000D01*
X14030000Y-26670000D02*
X14030000Y-6290000D01*
X11370000Y-26670000D02*
X11370000Y-6290000D01*
X11370000Y-6290000D02*
X14030000Y-6290000D01*
G04 #@! TO.C,J2*
X-3750000Y-6290000D02*
X-5080000Y-6290000D01*
X-3750000Y-7620000D02*
X-3750000Y-6290000D01*
X-3750000Y-8890000D02*
X-6410000Y-8890000D01*
X-6410000Y-8890000D02*
X-6410000Y-29270000D01*
X-3750000Y-8890000D02*
X-3750000Y-29270000D01*
X-3750000Y-29270000D02*
X-6410000Y-29270000D01*
G04 #@! TO.C,J3*
D11*
X13033333Y-29722380D02*
X13033333Y-30436666D01*
X13080952Y-30579523D01*
X13176190Y-30674761D01*
X13319047Y-30722380D01*
X13414285Y-30722380D01*
X12652380Y-29722380D02*
X12033333Y-29722380D01*
X12366666Y-30103333D01*
X12223809Y-30103333D01*
X12128571Y-30150952D01*
X12080952Y-30198571D01*
X12033333Y-30293809D01*
X12033333Y-30531904D01*
X12080952Y-30627142D01*
X12128571Y-30674761D01*
X12223809Y-30722380D01*
X12509523Y-30722380D01*
X12604761Y-30674761D01*
X12652380Y-30627142D01*
G04 #@! TO.C,J2*
X-4746666Y-4742380D02*
X-4746666Y-5456666D01*
X-4699047Y-5599523D01*
X-4603809Y-5694761D01*
X-4460952Y-5742380D01*
X-4365714Y-5742380D01*
X-5175238Y-4837619D02*
X-5222857Y-4790000D01*
X-5318095Y-4742380D01*
X-5556190Y-4742380D01*
X-5651428Y-4790000D01*
X-5699047Y-4837619D01*
X-5746666Y-4932857D01*
X-5746666Y-5028095D01*
X-5699047Y-5170952D01*
X-5127619Y-5742380D01*
X-5746666Y-5742380D01*
G04 #@! TD*
%LPC*%
D12*
G04 #@! TO.C,H4*
X11430000Y-45720000D03*
G04 #@! TD*
G04 #@! TO.C,H3*
X-3810000Y-45720000D03*
G04 #@! TD*
G04 #@! TO.C,H2*
X11430000Y13970000D03*
G04 #@! TD*
G04 #@! TO.C,H1*
X-3810000Y13970000D03*
G04 #@! TD*
D13*
G04 #@! TO.C,IC1*
X7620000Y-13970000D03*
X0Y-29210000D03*
X7620000Y-16510000D03*
X0Y-26670000D03*
X7620000Y-19050000D03*
X0Y-24130000D03*
X7620000Y-21590000D03*
X0Y-21590000D03*
X7620000Y-24130000D03*
X0Y-19050000D03*
X7620000Y-26670000D03*
X0Y-16510000D03*
X7620000Y-29210000D03*
D14*
X0Y-13970000D03*
G04 #@! TD*
D15*
G04 #@! TO.C,Y1*
X6150000Y-8980000D03*
X1270000Y-8980000D03*
G04 #@! TD*
D16*
G04 #@! TO.C,J3*
X12700000Y-7620000D03*
X12700000Y-10160000D03*
X12700000Y-12700000D03*
X12700000Y-15240000D03*
X12700000Y-17780000D03*
X12700000Y-20320000D03*
X12700000Y-22860000D03*
X12700000Y-25400000D03*
D17*
X12700000Y-27940000D03*
G04 #@! TD*
D16*
G04 #@! TO.C,J2*
X-5080000Y-27940000D03*
X-5080000Y-25400000D03*
X-5080000Y-22860000D03*
X-5080000Y-20320000D03*
X-5080000Y-17780000D03*
X-5080000Y-15240000D03*
X-5080000Y-12700000D03*
X-5080000Y-10160000D03*
D17*
X-5080000Y-7620000D03*
G04 #@! TD*
D16*
G04 #@! TO.C,J1*
X10160000Y10160000D03*
X7620000Y10160000D03*
X5080000Y10160000D03*
X2540000Y10160000D03*
X0Y10160000D03*
D17*
X-2540000Y10160000D03*
G04 #@! TD*
M02*
