G04 #@! TF.GenerationSoftware,KiCad,Pcbnew,(5.1.9)-1*
G04 #@! TF.CreationDate,2023-06-14T07:28:31+09:00*
G04 #@! TF.ProjectId,PICo-16f1765,5049436f-2d31-4366-9631-3736352e6b69,rev?*
G04 #@! TF.SameCoordinates,Original*
G04 #@! TF.FileFunction,Soldermask,Bot*
G04 #@! TF.FilePolarity,Negative*
%FSLAX46Y46*%
G04 Gerber Fmt 4.6, Leading zero omitted, Abs format (unit mm)*
G04 Created by KiCad (PCBNEW (5.1.9)-1) date 2023-06-14 07:28:31*
%MOMM*%
%LPD*%
G01*
G04 APERTURE LIST*
%ADD10C,2.200000*%
%ADD11O,1.600000X1.600000*%
%ADD12R,1.600000X1.600000*%
%ADD13C,1.500000*%
%ADD14O,1.700000X1.700000*%
%ADD15R,1.700000X1.700000*%
G04 APERTURE END LIST*
D10*
G04 #@! TO.C,H4*
X11430000Y-45720000D03*
G04 #@! TD*
G04 #@! TO.C,H3*
X-3810000Y-45720000D03*
G04 #@! TD*
G04 #@! TO.C,H2*
X11430000Y13970000D03*
G04 #@! TD*
G04 #@! TO.C,H1*
X-3810000Y13970000D03*
G04 #@! TD*
D11*
G04 #@! TO.C,IC1*
X7620000Y-13970000D03*
X0Y-29210000D03*
X7620000Y-16510000D03*
X0Y-26670000D03*
X7620000Y-19050000D03*
X0Y-24130000D03*
X7620000Y-21590000D03*
X0Y-21590000D03*
X7620000Y-24130000D03*
X0Y-19050000D03*
X7620000Y-26670000D03*
X0Y-16510000D03*
X7620000Y-29210000D03*
D12*
X0Y-13970000D03*
G04 #@! TD*
D13*
G04 #@! TO.C,Y1*
X6150000Y-8980000D03*
X1270000Y-8980000D03*
G04 #@! TD*
D14*
G04 #@! TO.C,J3*
X12700000Y-7620000D03*
X12700000Y-10160000D03*
X12700000Y-12700000D03*
X12700000Y-15240000D03*
X12700000Y-17780000D03*
X12700000Y-20320000D03*
X12700000Y-22860000D03*
X12700000Y-25400000D03*
D15*
X12700000Y-27940000D03*
G04 #@! TD*
D14*
G04 #@! TO.C,J2*
X-5080000Y-27940000D03*
X-5080000Y-25400000D03*
X-5080000Y-22860000D03*
X-5080000Y-20320000D03*
X-5080000Y-17780000D03*
X-5080000Y-15240000D03*
X-5080000Y-12700000D03*
X-5080000Y-10160000D03*
D15*
X-5080000Y-7620000D03*
G04 #@! TD*
D14*
G04 #@! TO.C,J1*
X10160000Y10160000D03*
X7620000Y10160000D03*
X5080000Y10160000D03*
X2540000Y10160000D03*
X0Y10160000D03*
D15*
X-2540000Y10160000D03*
G04 #@! TD*
M02*
