G04 #@! TF.GenerationSoftware,KiCad,Pcbnew,(5.1.9)-1*
G04 #@! TF.CreationDate,2023-06-14T07:29:02+09:00*
G04 #@! TF.ProjectId,PICo-16f1765,5049436f-2d31-4366-9631-3736352e6b69,rev?*
G04 #@! TF.SameCoordinates,Original*
G04 #@! TF.FileFunction,Paste,Top*
G04 #@! TF.FilePolarity,Positive*
%FSLAX46Y46*%
G04 Gerber Fmt 4.6, Leading zero omitted, Abs format (unit mm)*
G04 Created by KiCad (PCBNEW (5.1.9)-1) date 2023-06-14 07:29:02*
%MOMM*%
%LPD*%
G01*
G04 APERTURE LIST*
%ADD10R,1.500000X2.000000*%
%ADD11R,3.800000X2.000000*%
%ADD12R,1.600000X1.050000*%
%ADD13R,0.400000X1.350000*%
%ADD14R,1.800000X1.900000*%
%ADD15R,2.100000X1.600000*%
%ADD16R,1.900000X1.900000*%
%ADD17R,0.510000X1.100000*%
G04 APERTURE END LIST*
G36*
G01*
X945000Y-32770000D02*
X945000Y-33270000D01*
G75*
G02*
X720000Y-33495000I-225000J0D01*
G01*
X270000Y-33495000D01*
G75*
G02*
X45000Y-33270000I0J225000D01*
G01*
X45000Y-32770000D01*
G75*
G02*
X270000Y-32545000I225000J0D01*
G01*
X720000Y-32545000D01*
G75*
G02*
X945000Y-32770000I0J-225000D01*
G01*
G37*
G36*
G01*
X2495000Y-32770000D02*
X2495000Y-33270000D01*
G75*
G02*
X2270000Y-33495000I-225000J0D01*
G01*
X1820000Y-33495000D01*
G75*
G02*
X1595000Y-33270000I0J225000D01*
G01*
X1595000Y-32770000D01*
G75*
G02*
X1820000Y-32545000I225000J0D01*
G01*
X2270000Y-32545000D01*
G75*
G02*
X2495000Y-32770000I0J-225000D01*
G01*
G37*
G36*
G01*
X6675000Y-33270000D02*
X6675000Y-32770000D01*
G75*
G02*
X6900000Y-32545000I225000J0D01*
G01*
X7350000Y-32545000D01*
G75*
G02*
X7575000Y-32770000I0J-225000D01*
G01*
X7575000Y-33270000D01*
G75*
G02*
X7350000Y-33495000I-225000J0D01*
G01*
X6900000Y-33495000D01*
G75*
G02*
X6675000Y-33270000I0J225000D01*
G01*
G37*
G36*
G01*
X5125000Y-33270000D02*
X5125000Y-32770000D01*
G75*
G02*
X5350000Y-32545000I225000J0D01*
G01*
X5800000Y-32545000D01*
G75*
G02*
X6025000Y-32770000I0J-225000D01*
G01*
X6025000Y-33270000D01*
G75*
G02*
X5800000Y-33495000I-225000J0D01*
G01*
X5350000Y-33495000D01*
G75*
G02*
X5125000Y-33270000I0J225000D01*
G01*
G37*
G36*
G01*
X-4770000Y-2290000D02*
X-4770000Y-2790000D01*
G75*
G02*
X-4995000Y-3015000I-225000J0D01*
G01*
X-5445000Y-3015000D01*
G75*
G02*
X-5670000Y-2790000I0J225000D01*
G01*
X-5670000Y-2290000D01*
G75*
G02*
X-5445000Y-2065000I225000J0D01*
G01*
X-4995000Y-2065000D01*
G75*
G02*
X-4770000Y-2290000I0J-225000D01*
G01*
G37*
G36*
G01*
X-3220000Y-2290000D02*
X-3220000Y-2790000D01*
G75*
G02*
X-3445000Y-3015000I-225000J0D01*
G01*
X-3895000Y-3015000D01*
G75*
G02*
X-4120000Y-2790000I0J225000D01*
G01*
X-4120000Y-2290000D01*
G75*
G02*
X-3895000Y-2065000I225000J0D01*
G01*
X-3445000Y-2065000D01*
G75*
G02*
X-3220000Y-2290000I0J-225000D01*
G01*
G37*
G36*
G01*
X-1595000Y-2290000D02*
X-1595000Y-2790000D01*
G75*
G02*
X-1820000Y-3015000I-225000J0D01*
G01*
X-2270000Y-3015000D01*
G75*
G02*
X-2495000Y-2790000I0J225000D01*
G01*
X-2495000Y-2290000D01*
G75*
G02*
X-2270000Y-2065000I225000J0D01*
G01*
X-1820000Y-2065000D01*
G75*
G02*
X-1595000Y-2290000I0J-225000D01*
G01*
G37*
G36*
G01*
X-45000Y-2290000D02*
X-45000Y-2790000D01*
G75*
G02*
X-270000Y-3015000I-225000J0D01*
G01*
X-720000Y-3015000D01*
G75*
G02*
X-945000Y-2790000I0J225000D01*
G01*
X-945000Y-2290000D01*
G75*
G02*
X-720000Y-2065000I225000J0D01*
G01*
X-270000Y-2065000D01*
G75*
G02*
X-45000Y-2290000I0J-225000D01*
G01*
G37*
G36*
G01*
X8565000Y-2290000D02*
X8565000Y-2790000D01*
G75*
G02*
X8340000Y-3015000I-225000J0D01*
G01*
X7890000Y-3015000D01*
G75*
G02*
X7665000Y-2790000I0J225000D01*
G01*
X7665000Y-2290000D01*
G75*
G02*
X7890000Y-2065000I225000J0D01*
G01*
X8340000Y-2065000D01*
G75*
G02*
X8565000Y-2290000I0J-225000D01*
G01*
G37*
G36*
G01*
X10115000Y-2290000D02*
X10115000Y-2790000D01*
G75*
G02*
X9890000Y-3015000I-225000J0D01*
G01*
X9440000Y-3015000D01*
G75*
G02*
X9215000Y-2790000I0J225000D01*
G01*
X9215000Y-2290000D01*
G75*
G02*
X9440000Y-2065000I225000J0D01*
G01*
X9890000Y-2065000D01*
G75*
G02*
X10115000Y-2290000I0J-225000D01*
G01*
G37*
G36*
G01*
X4135000Y-14220000D02*
X4135000Y-13720000D01*
G75*
G02*
X4360000Y-13495000I225000J0D01*
G01*
X4810000Y-13495000D01*
G75*
G02*
X5035000Y-13720000I0J-225000D01*
G01*
X5035000Y-14220000D01*
G75*
G02*
X4810000Y-14445000I-225000J0D01*
G01*
X4360000Y-14445000D01*
G75*
G02*
X4135000Y-14220000I0J225000D01*
G01*
G37*
G36*
G01*
X2585000Y-14220000D02*
X2585000Y-13720000D01*
G75*
G02*
X2810000Y-13495000I225000J0D01*
G01*
X3260000Y-13495000D01*
G75*
G02*
X3485000Y-13720000I0J-225000D01*
G01*
X3485000Y-14220000D01*
G75*
G02*
X3260000Y-14445000I-225000J0D01*
G01*
X2810000Y-14445000D01*
G75*
G02*
X2585000Y-14220000I0J225000D01*
G01*
G37*
G36*
G01*
X11740000Y-2290000D02*
X11740000Y-2790000D01*
G75*
G02*
X11515000Y-3015000I-225000J0D01*
G01*
X11065000Y-3015000D01*
G75*
G02*
X10840000Y-2790000I0J225000D01*
G01*
X10840000Y-2290000D01*
G75*
G02*
X11065000Y-2065000I225000J0D01*
G01*
X11515000Y-2065000D01*
G75*
G02*
X11740000Y-2290000I0J-225000D01*
G01*
G37*
G36*
G01*
X13290000Y-2290000D02*
X13290000Y-2790000D01*
G75*
G02*
X13065000Y-3015000I-225000J0D01*
G01*
X12615000Y-3015000D01*
G75*
G02*
X12390000Y-2790000I0J225000D01*
G01*
X12390000Y-2290000D01*
G75*
G02*
X12615000Y-2065000I225000J0D01*
G01*
X13065000Y-2065000D01*
G75*
G02*
X13290000Y-2290000I0J-225000D01*
G01*
G37*
G36*
G01*
X11070000Y-40850000D02*
X10520000Y-40850000D01*
G75*
G02*
X10320000Y-40650000I0J200000D01*
G01*
X10320000Y-40250000D01*
G75*
G02*
X10520000Y-40050000I200000J0D01*
G01*
X11070000Y-40050000D01*
G75*
G02*
X11270000Y-40250000I0J-200000D01*
G01*
X11270000Y-40650000D01*
G75*
G02*
X11070000Y-40850000I-200000J0D01*
G01*
G37*
G36*
G01*
X11070000Y-42500000D02*
X10520000Y-42500000D01*
G75*
G02*
X10320000Y-42300000I0J200000D01*
G01*
X10320000Y-41900000D01*
G75*
G02*
X10520000Y-41700000I200000J0D01*
G01*
X11070000Y-41700000D01*
G75*
G02*
X11270000Y-41900000I0J-200000D01*
G01*
X11270000Y-42300000D01*
G75*
G02*
X11070000Y-42500000I-200000J0D01*
G01*
G37*
G36*
G01*
X11005000Y-30840000D02*
X11005000Y-31390000D01*
G75*
G02*
X10805000Y-31590000I-200000J0D01*
G01*
X10405000Y-31590000D01*
G75*
G02*
X10205000Y-31390000I0J200000D01*
G01*
X10205000Y-30840000D01*
G75*
G02*
X10405000Y-30640000I200000J0D01*
G01*
X10805000Y-30640000D01*
G75*
G02*
X11005000Y-30840000I0J-200000D01*
G01*
G37*
G36*
G01*
X12655000Y-30840000D02*
X12655000Y-31390000D01*
G75*
G02*
X12455000Y-31590000I-200000J0D01*
G01*
X12055000Y-31590000D01*
G75*
G02*
X11855000Y-31390000I0J200000D01*
G01*
X11855000Y-30840000D01*
G75*
G02*
X12055000Y-30640000I200000J0D01*
G01*
X12455000Y-30640000D01*
G75*
G02*
X12655000Y-30840000I0J-200000D01*
G01*
G37*
G36*
G01*
X4235000Y-2180000D02*
X4235000Y-1630000D01*
G75*
G02*
X4435000Y-1430000I200000J0D01*
G01*
X4835000Y-1430000D01*
G75*
G02*
X5035000Y-1630000I0J-200000D01*
G01*
X5035000Y-2180000D01*
G75*
G02*
X4835000Y-2380000I-200000J0D01*
G01*
X4435000Y-2380000D01*
G75*
G02*
X4235000Y-2180000I0J200000D01*
G01*
G37*
G36*
G01*
X2585000Y-2180000D02*
X2585000Y-1630000D01*
G75*
G02*
X2785000Y-1430000I200000J0D01*
G01*
X3185000Y-1430000D01*
G75*
G02*
X3385000Y-1630000I0J-200000D01*
G01*
X3385000Y-2180000D01*
G75*
G02*
X3185000Y-2380000I-200000J0D01*
G01*
X2785000Y-2380000D01*
G75*
G02*
X2585000Y-2180000I0J200000D01*
G01*
G37*
D10*
X-4840000Y25000D03*
X-240000Y25000D03*
X-2540000Y25000D03*
D11*
X-2540000Y6325000D03*
D10*
X7860000Y25000D03*
X12460000Y25000D03*
X10160000Y25000D03*
D11*
X10160000Y6325000D03*
D12*
X-3810000Y-37785000D03*
X-3810000Y-33335000D03*
X11430000Y-33335000D03*
X11430000Y-37785000D03*
D13*
X2510000Y-43395000D03*
X3160000Y-43395000D03*
X3810000Y-43395000D03*
X4460000Y-43395000D03*
X5110000Y-43395000D03*
D14*
X-190000Y-46070000D03*
X7810000Y-46070000D03*
D15*
X710000Y-43520000D03*
X6910000Y-43520000D03*
D16*
X2610000Y-46070000D03*
X5010000Y-46070000D03*
D17*
X1810000Y-34915000D03*
X2810000Y-34915000D03*
X5810000Y-40015000D03*
X3810000Y-34915000D03*
X4810000Y-34915000D03*
X5810000Y-34915000D03*
X4810000Y-40015000D03*
X3810000Y-40015000D03*
X2810000Y-40015000D03*
X1810000Y-40015000D03*
G36*
G01*
X12956250Y-40925000D02*
X12443750Y-40925000D01*
G75*
G02*
X12225000Y-40706250I0J218750D01*
G01*
X12225000Y-40268750D01*
G75*
G02*
X12443750Y-40050000I218750J0D01*
G01*
X12956250Y-40050000D01*
G75*
G02*
X13175000Y-40268750I0J-218750D01*
G01*
X13175000Y-40706250D01*
G75*
G02*
X12956250Y-40925000I-218750J0D01*
G01*
G37*
G36*
G01*
X12956250Y-42500000D02*
X12443750Y-42500000D01*
G75*
G02*
X12225000Y-42281250I0J218750D01*
G01*
X12225000Y-41843750D01*
G75*
G02*
X12443750Y-41625000I218750J0D01*
G01*
X12956250Y-41625000D01*
G75*
G02*
X13175000Y-41843750I0J-218750D01*
G01*
X13175000Y-42281250D01*
G75*
G02*
X12956250Y-42500000I-218750J0D01*
G01*
G37*
G36*
G01*
X3035000Y1895000D02*
X3035000Y645000D01*
G75*
G02*
X2785000Y395000I-250000J0D01*
G01*
X2035000Y395000D01*
G75*
G02*
X1785000Y645000I0J250000D01*
G01*
X1785000Y1895000D01*
G75*
G02*
X2035000Y2145000I250000J0D01*
G01*
X2785000Y2145000D01*
G75*
G02*
X3035000Y1895000I0J-250000D01*
G01*
G37*
G36*
G01*
X5835000Y1895000D02*
X5835000Y645000D01*
G75*
G02*
X5585000Y395000I-250000J0D01*
G01*
X4835000Y395000D01*
G75*
G02*
X4585000Y645000I0J250000D01*
G01*
X4585000Y1895000D01*
G75*
G02*
X4835000Y2145000I250000J0D01*
G01*
X5585000Y2145000D01*
G75*
G02*
X5835000Y1895000I0J-250000D01*
G01*
G37*
G36*
G01*
X5390000Y-4830000D02*
X5390000Y-5330000D01*
G75*
G02*
X5165000Y-5555000I-225000J0D01*
G01*
X4715000Y-5555000D01*
G75*
G02*
X4490000Y-5330000I0J225000D01*
G01*
X4490000Y-4830000D01*
G75*
G02*
X4715000Y-4605000I225000J0D01*
G01*
X5165000Y-4605000D01*
G75*
G02*
X5390000Y-4830000I0J-225000D01*
G01*
G37*
G36*
G01*
X6940000Y-4830000D02*
X6940000Y-5330000D01*
G75*
G02*
X6715000Y-5555000I-225000J0D01*
G01*
X6265000Y-5555000D01*
G75*
G02*
X6040000Y-5330000I0J225000D01*
G01*
X6040000Y-4830000D01*
G75*
G02*
X6265000Y-4605000I225000J0D01*
G01*
X6715000Y-4605000D01*
G75*
G02*
X6940000Y-4830000I0J-225000D01*
G01*
G37*
G36*
G01*
X2230000Y-5330000D02*
X2230000Y-4830000D01*
G75*
G02*
X2455000Y-4605000I225000J0D01*
G01*
X2905000Y-4605000D01*
G75*
G02*
X3130000Y-4830000I0J-225000D01*
G01*
X3130000Y-5330000D01*
G75*
G02*
X2905000Y-5555000I-225000J0D01*
G01*
X2455000Y-5555000D01*
G75*
G02*
X2230000Y-5330000I0J225000D01*
G01*
G37*
G36*
G01*
X680000Y-5330000D02*
X680000Y-4830000D01*
G75*
G02*
X905000Y-4605000I225000J0D01*
G01*
X1355000Y-4605000D01*
G75*
G02*
X1580000Y-4830000I0J-225000D01*
G01*
X1580000Y-5330000D01*
G75*
G02*
X1355000Y-5555000I-225000J0D01*
G01*
X905000Y-5555000D01*
G75*
G02*
X680000Y-5330000I0J225000D01*
G01*
G37*
M02*
