M48
; DRILL file {KiCad (5.1.9)-1} date 06/14/23 07:45:40
; FORMAT={-:-/ absolute / metric / decimal}
; #@! TF.CreationDate,2023-06-14T07:45:40+09:00
; #@! TF.GenerationSoftware,Kicad,Pcbnew,(5.1.9)-1
; #@! TF.FileFunction,Plated,1,2,PTH
FMAT,2
METRIC
T1C0.400
T2C0.800
T3C1.000
%
G90
G05
T1
X-2.455Y-21.225
X2.41Y2.748
X5.21Y-0.262
X5.262Y-2.933
X5.65Y-13.97
X10.377Y-25.562
T2
X0.0Y-13.97
X0.0Y-16.51
X0.0Y-19.05
X0.0Y-21.59
X0.0Y-24.13
X0.0Y-26.67
X0.0Y-29.21
X1.27Y-8.98
X6.15Y-8.98
X7.62Y-13.97
X7.62Y-16.51
X7.62Y-19.05
X7.62Y-21.59
X7.62Y-24.13
X7.62Y-26.67
X7.62Y-29.21
T3
X-5.08Y-7.62
X-5.08Y-10.16
X-5.08Y-12.7
X-5.08Y-15.24
X-5.08Y-17.78
X-5.08Y-20.32
X-5.08Y-22.86
X-5.08Y-25.4
X-5.08Y-27.94
X-2.54Y10.16
X0.0Y10.16
X2.54Y10.16
X5.08Y10.16
X7.62Y10.16
X10.16Y10.16
X12.7Y-7.62
X12.7Y-10.16
X12.7Y-12.7
X12.7Y-15.24
X12.7Y-17.78
X12.7Y-20.32
X12.7Y-22.86
X12.7Y-25.4
X12.7Y-27.94
T0
M30
