%FSLAX45Y45*%
G04 Gerber Fmt 4.5, Leading zero omitted, Abs format (unit mm)*
G04 Created by KiCad (PCBNEW (5.1.9)-1) date 2023-06-14 07:29:20*
%MOMM*%
%LPD*%
G01*
G04 APERTURE LIST*
%TA.AperFunction,Profile*%
%ADD10C,0.050000*%
%TD*%
%ADD11C,0.200000*%
%ADD12C,0.300000*%
G04 APERTURE END LIST*
D10*
X1397000Y-4572000D02*
G75*
G02*
X1143000Y-4826000I-254000J0D01*
G01*
X-381000Y-4826000D02*
G75*
G02*
X-635000Y-4572000I0J254000D01*
G01*
X-635000Y1397000D02*
G75*
G02*
X-381000Y1651000I254000J0D01*
G01*
X1143000Y1651000D02*
G75*
G02*
X1397000Y1397000I0J-254000D01*
G01*
X-381000Y1651000D02*
X1143000Y1651000D01*
X-635000Y-4572000D02*
X-635000Y1397000D01*
X1143000Y-4826000D02*
X-381000Y-4826000D01*
X1397000Y1397000D02*
X1397000Y-4572000D01*
D11*
X-508500Y-3518500D02*
X-433500Y-3593500D01*
X-433500Y-3518500D02*
X-508500Y-3593500D01*
X-328500Y-3518500D02*
X-253500Y-3593500D01*
X-253500Y-3518500D02*
X-328500Y-3593500D01*
X1015500Y-3518500D02*
X1090500Y-3593500D01*
X1090500Y-3518500D02*
X1015500Y-3593500D01*
X1195500Y-3518500D02*
X1270500Y-3593500D01*
X1270500Y-3518500D02*
X1195500Y-3593500D01*
X-271000Y1397000D02*
G75*
G03*
X-271000Y1397000I-110000J0D01*
G01*
X-271000Y-4572000D02*
G75*
G03*
X-271000Y-4572000I-110000J0D01*
G01*
X1253000Y1397000D02*
G75*
G03*
X1253000Y1397000I-110000J0D01*
G01*
X1253000Y-4572000D02*
G75*
G03*
X1253000Y-4572000I-110000J0D01*
G01*
D12*
X-351071Y-5294214D02*
X-351071Y-4994214D01*
X-279643Y-4994214D01*
X-236786Y-5008500D01*
X-208214Y-5037072D01*
X-193929Y-5065643D01*
X-179643Y-5122786D01*
X-179643Y-5165643D01*
X-193929Y-5222786D01*
X-208214Y-5251357D01*
X-236786Y-5279929D01*
X-279643Y-5294214D01*
X-351071Y-5294214D01*
X-51071Y-5294214D02*
X-51071Y-5094214D01*
X-51071Y-5151357D02*
X-36786Y-5122786D01*
X-22500Y-5108500D01*
X6071Y-5094214D01*
X34643Y-5094214D01*
X134643Y-5294214D02*
X134643Y-5094214D01*
X134643Y-4994214D02*
X120357Y-5008500D01*
X134643Y-5022786D01*
X148928Y-5008500D01*
X134643Y-4994214D01*
X134643Y-5022786D01*
X320357Y-5294214D02*
X291786Y-5279929D01*
X277500Y-5251357D01*
X277500Y-4994214D01*
X477500Y-5294214D02*
X448928Y-5279929D01*
X434643Y-5251357D01*
X434643Y-4994214D01*
X820357Y-5294214D02*
X820357Y-4994214D01*
X920357Y-5208500D01*
X1020357Y-4994214D01*
X1020357Y-5294214D01*
X1291786Y-5294214D02*
X1291786Y-5137072D01*
X1277500Y-5108500D01*
X1248928Y-5094214D01*
X1191786Y-5094214D01*
X1163214Y-5108500D01*
X1291786Y-5279929D02*
X1263214Y-5294214D01*
X1191786Y-5294214D01*
X1163214Y-5279929D01*
X1148928Y-5251357D01*
X1148928Y-5222786D01*
X1163214Y-5194214D01*
X1191786Y-5179929D01*
X1263214Y-5179929D01*
X1291786Y-5165643D01*
X1434643Y-5094214D02*
X1434643Y-5394214D01*
X1434643Y-5108500D02*
X1463214Y-5094214D01*
X1520357Y-5094214D01*
X1548928Y-5108500D01*
X1563214Y-5122786D01*
X1577500Y-5151357D01*
X1577500Y-5237072D01*
X1563214Y-5265643D01*
X1548928Y-5279929D01*
X1520357Y-5294214D01*
X1463214Y-5294214D01*
X1434643Y-5279929D01*
X1706071Y-5265643D02*
X1720357Y-5279929D01*
X1706071Y-5294214D01*
X1691786Y-5279929D01*
X1706071Y-5265643D01*
X1706071Y-5294214D01*
X1706071Y-5108500D02*
X1720357Y-5122786D01*
X1706071Y-5137072D01*
X1691786Y-5122786D01*
X1706071Y-5108500D01*
X1706071Y-5137072D01*
X-712500Y-5751000D02*
X-637500Y-5826000D01*
X-637500Y-5751000D02*
X-712500Y-5826000D01*
X-293929Y-5624214D02*
X-265357Y-5624214D01*
X-236786Y-5638500D01*
X-222500Y-5652786D01*
X-208214Y-5681357D01*
X-193929Y-5738500D01*
X-193929Y-5809929D01*
X-208214Y-5867071D01*
X-222500Y-5895643D01*
X-236786Y-5909929D01*
X-265357Y-5924214D01*
X-293929Y-5924214D01*
X-322500Y-5909929D01*
X-336786Y-5895643D01*
X-351071Y-5867071D01*
X-365357Y-5809929D01*
X-365357Y-5738500D01*
X-351071Y-5681357D01*
X-336786Y-5652786D01*
X-322500Y-5638500D01*
X-293929Y-5624214D01*
X-65357Y-5895643D02*
X-51071Y-5909929D01*
X-65357Y-5924214D01*
X-79643Y-5909929D01*
X-65357Y-5895643D01*
X-65357Y-5924214D01*
X48928Y-5624214D02*
X248928Y-5624214D01*
X120357Y-5924214D01*
X506071Y-5624214D02*
X363214Y-5624214D01*
X348928Y-5767071D01*
X363214Y-5752786D01*
X391786Y-5738500D01*
X463214Y-5738500D01*
X491786Y-5752786D01*
X506071Y-5767071D01*
X520357Y-5795643D01*
X520357Y-5867071D01*
X506071Y-5895643D01*
X491786Y-5909929D01*
X463214Y-5924214D01*
X391786Y-5924214D01*
X363214Y-5909929D01*
X348928Y-5895643D01*
X648928Y-5924214D02*
X648928Y-5724214D01*
X648928Y-5752786D02*
X663214Y-5738500D01*
X691786Y-5724214D01*
X734643Y-5724214D01*
X763214Y-5738500D01*
X777500Y-5767071D01*
X777500Y-5924214D01*
X777500Y-5767071D02*
X791786Y-5738500D01*
X820357Y-5724214D01*
X863214Y-5724214D01*
X891786Y-5738500D01*
X906071Y-5767071D01*
X906071Y-5924214D01*
X1048928Y-5924214D02*
X1048928Y-5724214D01*
X1048928Y-5752786D02*
X1063214Y-5738500D01*
X1091786Y-5724214D01*
X1134643Y-5724214D01*
X1163214Y-5738500D01*
X1177500Y-5767071D01*
X1177500Y-5924214D01*
X1177500Y-5767071D02*
X1191786Y-5738500D01*
X1220357Y-5724214D01*
X1263214Y-5724214D01*
X1291786Y-5738500D01*
X1306071Y-5767071D01*
X1306071Y-5924214D01*
X1891786Y-5609929D02*
X1634643Y-5995643D01*
X2277500Y-5624214D02*
X2306071Y-5624214D01*
X2334643Y-5638500D01*
X2348928Y-5652786D01*
X2363214Y-5681357D01*
X2377500Y-5738500D01*
X2377500Y-5809929D01*
X2363214Y-5867071D01*
X2348928Y-5895643D01*
X2334643Y-5909929D01*
X2306071Y-5924214D01*
X2277500Y-5924214D01*
X2248928Y-5909929D01*
X2234643Y-5895643D01*
X2220357Y-5867071D01*
X2206071Y-5809929D01*
X2206071Y-5738500D01*
X2220357Y-5681357D01*
X2234643Y-5652786D01*
X2248928Y-5638500D01*
X2277500Y-5624214D01*
X2506071Y-5895643D02*
X2520357Y-5909929D01*
X2506071Y-5924214D01*
X2491786Y-5909929D01*
X2506071Y-5895643D01*
X2506071Y-5924214D01*
X2706071Y-5624214D02*
X2734643Y-5624214D01*
X2763214Y-5638500D01*
X2777500Y-5652786D01*
X2791786Y-5681357D01*
X2806071Y-5738500D01*
X2806071Y-5809929D01*
X2791786Y-5867071D01*
X2777500Y-5895643D01*
X2763214Y-5909929D01*
X2734643Y-5924214D01*
X2706071Y-5924214D01*
X2677500Y-5909929D01*
X2663214Y-5895643D01*
X2648928Y-5867071D01*
X2634643Y-5809929D01*
X2634643Y-5738500D01*
X2648928Y-5681357D01*
X2663214Y-5652786D01*
X2677500Y-5638500D01*
X2706071Y-5624214D01*
X2906071Y-5624214D02*
X3091786Y-5624214D01*
X2991786Y-5738500D01*
X3034643Y-5738500D01*
X3063214Y-5752786D01*
X3077500Y-5767071D01*
X3091786Y-5795643D01*
X3091786Y-5867071D01*
X3077500Y-5895643D01*
X3063214Y-5909929D01*
X3034643Y-5924214D01*
X2948928Y-5924214D01*
X2920357Y-5909929D01*
X2906071Y-5895643D01*
X3277500Y-5624214D02*
X3306071Y-5624214D01*
X3334643Y-5638500D01*
X3348928Y-5652786D01*
X3363214Y-5681357D01*
X3377500Y-5738500D01*
X3377500Y-5809929D01*
X3363214Y-5867071D01*
X3348928Y-5895643D01*
X3334643Y-5909929D01*
X3306071Y-5924214D01*
X3277500Y-5924214D01*
X3248928Y-5909929D01*
X3234643Y-5895643D01*
X3220357Y-5867071D01*
X3206071Y-5809929D01*
X3206071Y-5738500D01*
X3220357Y-5681357D01*
X3234643Y-5652786D01*
X3248928Y-5638500D01*
X3277500Y-5624214D01*
X3491786Y-5624214D02*
X3491786Y-5681357D01*
X3606071Y-5624214D02*
X3606071Y-5681357D01*
X4048928Y-6038500D02*
X4034643Y-6024214D01*
X4006071Y-5981357D01*
X3991786Y-5952786D01*
X3977500Y-5909929D01*
X3963214Y-5838500D01*
X3963214Y-5781357D01*
X3977500Y-5709929D01*
X3991786Y-5667071D01*
X4006071Y-5638500D01*
X4034643Y-5595643D01*
X4048928Y-5581357D01*
X4291786Y-5724214D02*
X4291786Y-5924214D01*
X4220357Y-5609929D02*
X4148928Y-5824214D01*
X4334643Y-5824214D01*
X4677500Y-5924214D02*
X4677500Y-5624214D01*
X4806071Y-5924214D02*
X4806071Y-5767071D01*
X4791786Y-5738500D01*
X4763214Y-5724214D01*
X4720357Y-5724214D01*
X4691786Y-5738500D01*
X4677500Y-5752786D01*
X4991786Y-5924214D02*
X4963214Y-5909929D01*
X4948928Y-5895643D01*
X4934643Y-5867071D01*
X4934643Y-5781357D01*
X4948928Y-5752786D01*
X4963214Y-5738500D01*
X4991786Y-5724214D01*
X5034643Y-5724214D01*
X5063214Y-5738500D01*
X5077500Y-5752786D01*
X5091786Y-5781357D01*
X5091786Y-5867071D01*
X5077500Y-5895643D01*
X5063214Y-5909929D01*
X5034643Y-5924214D01*
X4991786Y-5924214D01*
X5263214Y-5924214D02*
X5234643Y-5909929D01*
X5220357Y-5881357D01*
X5220357Y-5624214D01*
X5491786Y-5909929D02*
X5463214Y-5924214D01*
X5406071Y-5924214D01*
X5377500Y-5909929D01*
X5363214Y-5881357D01*
X5363214Y-5767071D01*
X5377500Y-5738500D01*
X5406071Y-5724214D01*
X5463214Y-5724214D01*
X5491786Y-5738500D01*
X5506071Y-5767071D01*
X5506071Y-5795643D01*
X5363214Y-5824214D01*
X5620357Y-5909929D02*
X5648928Y-5924214D01*
X5706071Y-5924214D01*
X5734643Y-5909929D01*
X5748928Y-5881357D01*
X5748928Y-5867071D01*
X5734643Y-5838500D01*
X5706071Y-5824214D01*
X5663214Y-5824214D01*
X5634643Y-5809929D01*
X5620357Y-5781357D01*
X5620357Y-5767071D01*
X5634643Y-5738500D01*
X5663214Y-5724214D01*
X5706071Y-5724214D01*
X5734643Y-5738500D01*
X5848928Y-6038500D02*
X5863214Y-6024214D01*
X5891786Y-5981357D01*
X5906071Y-5952786D01*
X5920357Y-5909929D01*
X5934643Y-5838500D01*
X5934643Y-5781357D01*
X5920357Y-5709929D01*
X5906071Y-5667071D01*
X5891786Y-5638500D01*
X5863214Y-5595643D01*
X5848928Y-5581357D01*
X6391786Y-6038500D02*
X6377500Y-6024214D01*
X6348928Y-5981357D01*
X6334643Y-5952786D01*
X6320357Y-5909929D01*
X6306071Y-5838500D01*
X6306071Y-5781357D01*
X6320357Y-5709929D01*
X6334643Y-5667071D01*
X6348928Y-5638500D01*
X6377500Y-5595643D01*
X6391786Y-5581357D01*
X6506071Y-5724214D02*
X6506071Y-5924214D01*
X6506071Y-5752786D02*
X6520357Y-5738500D01*
X6548928Y-5724214D01*
X6591786Y-5724214D01*
X6620357Y-5738500D01*
X6634643Y-5767071D01*
X6634643Y-5924214D01*
X6820357Y-5924214D02*
X6791786Y-5909929D01*
X6777500Y-5895643D01*
X6763214Y-5867071D01*
X6763214Y-5781357D01*
X6777500Y-5752786D01*
X6791786Y-5738500D01*
X6820357Y-5724214D01*
X6863214Y-5724214D01*
X6891786Y-5738500D01*
X6906071Y-5752786D01*
X6920357Y-5781357D01*
X6920357Y-5867071D01*
X6906071Y-5895643D01*
X6891786Y-5909929D01*
X6863214Y-5924214D01*
X6820357Y-5924214D01*
X7006071Y-5724214D02*
X7120357Y-5724214D01*
X7048928Y-5624214D02*
X7048928Y-5881357D01*
X7063214Y-5909929D01*
X7091786Y-5924214D01*
X7120357Y-5924214D01*
X7448928Y-5724214D02*
X7448928Y-6024214D01*
X7448928Y-5738500D02*
X7477500Y-5724214D01*
X7534643Y-5724214D01*
X7563214Y-5738500D01*
X7577500Y-5752786D01*
X7591786Y-5781357D01*
X7591786Y-5867071D01*
X7577500Y-5895643D01*
X7563214Y-5909929D01*
X7534643Y-5924214D01*
X7477500Y-5924214D01*
X7448928Y-5909929D01*
X7763214Y-5924214D02*
X7734643Y-5909929D01*
X7720357Y-5881357D01*
X7720357Y-5624214D01*
X8006071Y-5924214D02*
X8006071Y-5767071D01*
X7991786Y-5738500D01*
X7963214Y-5724214D01*
X7906071Y-5724214D01*
X7877500Y-5738500D01*
X8006071Y-5909929D02*
X7977500Y-5924214D01*
X7906071Y-5924214D01*
X7877500Y-5909929D01*
X7863214Y-5881357D01*
X7863214Y-5852786D01*
X7877500Y-5824214D01*
X7906071Y-5809929D01*
X7977500Y-5809929D01*
X8006071Y-5795643D01*
X8106071Y-5724214D02*
X8220357Y-5724214D01*
X8148928Y-5624214D02*
X8148928Y-5881357D01*
X8163214Y-5909929D01*
X8191786Y-5924214D01*
X8220357Y-5924214D01*
X8434643Y-5909929D02*
X8406071Y-5924214D01*
X8348928Y-5924214D01*
X8320357Y-5909929D01*
X8306071Y-5881357D01*
X8306071Y-5767071D01*
X8320357Y-5738500D01*
X8348928Y-5724214D01*
X8406071Y-5724214D01*
X8434643Y-5738500D01*
X8448928Y-5767071D01*
X8448928Y-5795643D01*
X8306071Y-5824214D01*
X8706071Y-5924214D02*
X8706071Y-5624214D01*
X8706071Y-5909929D02*
X8677500Y-5924214D01*
X8620357Y-5924214D01*
X8591786Y-5909929D01*
X8577500Y-5895643D01*
X8563214Y-5867071D01*
X8563214Y-5781357D01*
X8577500Y-5752786D01*
X8591786Y-5738500D01*
X8620357Y-5724214D01*
X8677500Y-5724214D01*
X8706071Y-5738500D01*
X8820357Y-6038500D02*
X8834643Y-6024214D01*
X8863214Y-5981357D01*
X8877500Y-5952786D01*
X8891786Y-5909929D01*
X8906071Y-5838500D01*
X8906071Y-5781357D01*
X8891786Y-5709929D01*
X8877500Y-5667071D01*
X8863214Y-5638500D01*
X8834643Y-5595643D01*
X8820357Y-5581357D01*
X-637500Y-6184500D02*
G75*
G03*
X-637500Y-6184500I-110000J0D01*
G01*
X-365357Y-6048786D02*
X-351071Y-6034500D01*
X-322500Y-6020214D01*
X-251071Y-6020214D01*
X-222500Y-6034500D01*
X-208214Y-6048786D01*
X-193929Y-6077357D01*
X-193929Y-6105929D01*
X-208214Y-6148786D01*
X-379643Y-6320214D01*
X-193929Y-6320214D01*
X-65357Y-6291643D02*
X-51071Y-6305929D01*
X-65357Y-6320214D01*
X-79643Y-6305929D01*
X-65357Y-6291643D01*
X-65357Y-6320214D01*
X63214Y-6048786D02*
X77500Y-6034500D01*
X106071Y-6020214D01*
X177500Y-6020214D01*
X206071Y-6034500D01*
X220357Y-6048786D01*
X234643Y-6077357D01*
X234643Y-6105929D01*
X220357Y-6148786D01*
X48928Y-6320214D01*
X234643Y-6320214D01*
X420357Y-6020214D02*
X448928Y-6020214D01*
X477500Y-6034500D01*
X491786Y-6048786D01*
X506071Y-6077357D01*
X520357Y-6134500D01*
X520357Y-6205929D01*
X506071Y-6263071D01*
X491786Y-6291643D01*
X477500Y-6305929D01*
X448928Y-6320214D01*
X420357Y-6320214D01*
X391786Y-6305929D01*
X377500Y-6291643D01*
X363214Y-6263071D01*
X348928Y-6205929D01*
X348928Y-6134500D01*
X363214Y-6077357D01*
X377500Y-6048786D01*
X391786Y-6034500D01*
X420357Y-6020214D01*
X648928Y-6320214D02*
X648928Y-6120214D01*
X648928Y-6148786D02*
X663214Y-6134500D01*
X691786Y-6120214D01*
X734643Y-6120214D01*
X763214Y-6134500D01*
X777500Y-6163071D01*
X777500Y-6320214D01*
X777500Y-6163071D02*
X791786Y-6134500D01*
X820357Y-6120214D01*
X863214Y-6120214D01*
X891786Y-6134500D01*
X906071Y-6163071D01*
X906071Y-6320214D01*
X1048928Y-6320214D02*
X1048928Y-6120214D01*
X1048928Y-6148786D02*
X1063214Y-6134500D01*
X1091786Y-6120214D01*
X1134643Y-6120214D01*
X1163214Y-6134500D01*
X1177500Y-6163071D01*
X1177500Y-6320214D01*
X1177500Y-6163071D02*
X1191786Y-6134500D01*
X1220357Y-6120214D01*
X1263214Y-6120214D01*
X1291786Y-6134500D01*
X1306071Y-6163071D01*
X1306071Y-6320214D01*
X1891786Y-6005929D02*
X1634643Y-6391643D01*
X2277500Y-6020214D02*
X2306071Y-6020214D01*
X2334643Y-6034500D01*
X2348928Y-6048786D01*
X2363214Y-6077357D01*
X2377500Y-6134500D01*
X2377500Y-6205929D01*
X2363214Y-6263071D01*
X2348928Y-6291643D01*
X2334643Y-6305929D01*
X2306071Y-6320214D01*
X2277500Y-6320214D01*
X2248928Y-6305929D01*
X2234643Y-6291643D01*
X2220357Y-6263071D01*
X2206071Y-6205929D01*
X2206071Y-6134500D01*
X2220357Y-6077357D01*
X2234643Y-6048786D01*
X2248928Y-6034500D01*
X2277500Y-6020214D01*
X2506071Y-6291643D02*
X2520357Y-6305929D01*
X2506071Y-6320214D01*
X2491786Y-6305929D01*
X2506071Y-6291643D01*
X2506071Y-6320214D01*
X2706071Y-6020214D02*
X2734643Y-6020214D01*
X2763214Y-6034500D01*
X2777500Y-6048786D01*
X2791786Y-6077357D01*
X2806071Y-6134500D01*
X2806071Y-6205929D01*
X2791786Y-6263071D01*
X2777500Y-6291643D01*
X2763214Y-6305929D01*
X2734643Y-6320214D01*
X2706071Y-6320214D01*
X2677500Y-6305929D01*
X2663214Y-6291643D01*
X2648928Y-6263071D01*
X2634643Y-6205929D01*
X2634643Y-6134500D01*
X2648928Y-6077357D01*
X2663214Y-6048786D01*
X2677500Y-6034500D01*
X2706071Y-6020214D01*
X2977500Y-6148786D02*
X2948928Y-6134500D01*
X2934643Y-6120214D01*
X2920357Y-6091643D01*
X2920357Y-6077357D01*
X2934643Y-6048786D01*
X2948928Y-6034500D01*
X2977500Y-6020214D01*
X3034643Y-6020214D01*
X3063214Y-6034500D01*
X3077500Y-6048786D01*
X3091786Y-6077357D01*
X3091786Y-6091643D01*
X3077500Y-6120214D01*
X3063214Y-6134500D01*
X3034643Y-6148786D01*
X2977500Y-6148786D01*
X2948928Y-6163071D01*
X2934643Y-6177357D01*
X2920357Y-6205929D01*
X2920357Y-6263071D01*
X2934643Y-6291643D01*
X2948928Y-6305929D01*
X2977500Y-6320214D01*
X3034643Y-6320214D01*
X3063214Y-6305929D01*
X3077500Y-6291643D01*
X3091786Y-6263071D01*
X3091786Y-6205929D01*
X3077500Y-6177357D01*
X3063214Y-6163071D01*
X3034643Y-6148786D01*
X3191786Y-6020214D02*
X3391786Y-6020214D01*
X3263214Y-6320214D01*
X3491786Y-6020214D02*
X3491786Y-6077357D01*
X3606071Y-6020214D02*
X3606071Y-6077357D01*
X4048928Y-6434500D02*
X4034643Y-6420214D01*
X4006071Y-6377357D01*
X3991786Y-6348786D01*
X3977500Y-6305929D01*
X3963214Y-6234500D01*
X3963214Y-6177357D01*
X3977500Y-6105929D01*
X3991786Y-6063071D01*
X4006071Y-6034500D01*
X4034643Y-5991643D01*
X4048928Y-5977357D01*
X4291786Y-6120214D02*
X4291786Y-6320214D01*
X4220357Y-6005929D02*
X4148928Y-6220214D01*
X4334643Y-6220214D01*
X4677500Y-6320214D02*
X4677500Y-6020214D01*
X4806071Y-6320214D02*
X4806071Y-6163071D01*
X4791786Y-6134500D01*
X4763214Y-6120214D01*
X4720357Y-6120214D01*
X4691786Y-6134500D01*
X4677500Y-6148786D01*
X4991786Y-6320214D02*
X4963214Y-6305929D01*
X4948928Y-6291643D01*
X4934643Y-6263071D01*
X4934643Y-6177357D01*
X4948928Y-6148786D01*
X4963214Y-6134500D01*
X4991786Y-6120214D01*
X5034643Y-6120214D01*
X5063214Y-6134500D01*
X5077500Y-6148786D01*
X5091786Y-6177357D01*
X5091786Y-6263071D01*
X5077500Y-6291643D01*
X5063214Y-6305929D01*
X5034643Y-6320214D01*
X4991786Y-6320214D01*
X5263214Y-6320214D02*
X5234643Y-6305929D01*
X5220357Y-6277357D01*
X5220357Y-6020214D01*
X5491786Y-6305929D02*
X5463214Y-6320214D01*
X5406071Y-6320214D01*
X5377500Y-6305929D01*
X5363214Y-6277357D01*
X5363214Y-6163071D01*
X5377500Y-6134500D01*
X5406071Y-6120214D01*
X5463214Y-6120214D01*
X5491786Y-6134500D01*
X5506071Y-6163071D01*
X5506071Y-6191643D01*
X5363214Y-6220214D01*
X5620357Y-6305929D02*
X5648928Y-6320214D01*
X5706071Y-6320214D01*
X5734643Y-6305929D01*
X5748928Y-6277357D01*
X5748928Y-6263071D01*
X5734643Y-6234500D01*
X5706071Y-6220214D01*
X5663214Y-6220214D01*
X5634643Y-6205929D01*
X5620357Y-6177357D01*
X5620357Y-6163071D01*
X5634643Y-6134500D01*
X5663214Y-6120214D01*
X5706071Y-6120214D01*
X5734643Y-6134500D01*
X5848928Y-6434500D02*
X5863214Y-6420214D01*
X5891786Y-6377357D01*
X5906071Y-6348786D01*
X5920357Y-6305929D01*
X5934643Y-6234500D01*
X5934643Y-6177357D01*
X5920357Y-6105929D01*
X5906071Y-6063071D01*
X5891786Y-6034500D01*
X5863214Y-5991643D01*
X5848928Y-5977357D01*
X6391786Y-6434500D02*
X6377500Y-6420214D01*
X6348928Y-6377357D01*
X6334643Y-6348786D01*
X6320357Y-6305929D01*
X6306071Y-6234500D01*
X6306071Y-6177357D01*
X6320357Y-6105929D01*
X6334643Y-6063071D01*
X6348928Y-6034500D01*
X6377500Y-5991643D01*
X6391786Y-5977357D01*
X6506071Y-6120214D02*
X6506071Y-6320214D01*
X6506071Y-6148786D02*
X6520357Y-6134500D01*
X6548928Y-6120214D01*
X6591786Y-6120214D01*
X6620357Y-6134500D01*
X6634643Y-6163071D01*
X6634643Y-6320214D01*
X6820357Y-6320214D02*
X6791786Y-6305929D01*
X6777500Y-6291643D01*
X6763214Y-6263071D01*
X6763214Y-6177357D01*
X6777500Y-6148786D01*
X6791786Y-6134500D01*
X6820357Y-6120214D01*
X6863214Y-6120214D01*
X6891786Y-6134500D01*
X6906071Y-6148786D01*
X6920357Y-6177357D01*
X6920357Y-6263071D01*
X6906071Y-6291643D01*
X6891786Y-6305929D01*
X6863214Y-6320214D01*
X6820357Y-6320214D01*
X7006071Y-6120214D02*
X7120357Y-6120214D01*
X7048928Y-6020214D02*
X7048928Y-6277357D01*
X7063214Y-6305929D01*
X7091786Y-6320214D01*
X7120357Y-6320214D01*
X7448928Y-6120214D02*
X7448928Y-6420214D01*
X7448928Y-6134500D02*
X7477500Y-6120214D01*
X7534643Y-6120214D01*
X7563214Y-6134500D01*
X7577500Y-6148786D01*
X7591786Y-6177357D01*
X7591786Y-6263071D01*
X7577500Y-6291643D01*
X7563214Y-6305929D01*
X7534643Y-6320214D01*
X7477500Y-6320214D01*
X7448928Y-6305929D01*
X7763214Y-6320214D02*
X7734643Y-6305929D01*
X7720357Y-6277357D01*
X7720357Y-6020214D01*
X8006071Y-6320214D02*
X8006071Y-6163071D01*
X7991786Y-6134500D01*
X7963214Y-6120214D01*
X7906071Y-6120214D01*
X7877500Y-6134500D01*
X8006071Y-6305929D02*
X7977500Y-6320214D01*
X7906071Y-6320214D01*
X7877500Y-6305929D01*
X7863214Y-6277357D01*
X7863214Y-6248786D01*
X7877500Y-6220214D01*
X7906071Y-6205929D01*
X7977500Y-6205929D01*
X8006071Y-6191643D01*
X8106071Y-6120214D02*
X8220357Y-6120214D01*
X8148928Y-6020214D02*
X8148928Y-6277357D01*
X8163214Y-6305929D01*
X8191786Y-6320214D01*
X8220357Y-6320214D01*
X8434643Y-6305929D02*
X8406071Y-6320214D01*
X8348928Y-6320214D01*
X8320357Y-6305929D01*
X8306071Y-6277357D01*
X8306071Y-6163071D01*
X8320357Y-6134500D01*
X8348928Y-6120214D01*
X8406071Y-6120214D01*
X8434643Y-6134500D01*
X8448928Y-6163071D01*
X8448928Y-6191643D01*
X8306071Y-6220214D01*
X8706071Y-6320214D02*
X8706071Y-6020214D01*
X8706071Y-6305929D02*
X8677500Y-6320214D01*
X8620357Y-6320214D01*
X8591786Y-6305929D01*
X8577500Y-6291643D01*
X8563214Y-6263071D01*
X8563214Y-6177357D01*
X8577500Y-6148786D01*
X8591786Y-6134500D01*
X8620357Y-6120214D01*
X8677500Y-6120214D01*
X8706071Y-6134500D01*
X8820357Y-6434500D02*
X8834643Y-6420214D01*
X8863214Y-6377357D01*
X8877500Y-6348786D01*
X8891786Y-6305929D01*
X8906071Y-6234500D01*
X8906071Y-6177357D01*
X8891786Y-6105929D01*
X8877500Y-6063071D01*
X8863214Y-6034500D01*
X8834643Y-5991643D01*
X8820357Y-5977357D01*
M02*
