G04 #@! TF.GenerationSoftware,KiCad,Pcbnew,(5.1.9)-1*
G04 #@! TF.CreationDate,2023-06-14T07:45:37+09:00*
G04 #@! TF.ProjectId,PICo-16f1765,5049436f-2d31-4366-9631-3736352e6b69,rev?*
G04 #@! TF.SameCoordinates,Original*
G04 #@! TF.FileFunction,Copper,L1,Top*
G04 #@! TF.FilePolarity,Positive*
%FSLAX46Y46*%
G04 Gerber Fmt 4.6, Leading zero omitted, Abs format (unit mm)*
G04 Created by KiCad (PCBNEW (5.1.9)-1) date 2023-06-14 07:45:37*
%MOMM*%
%LPD*%
G01*
G04 APERTURE LIST*
G04 #@! TA.AperFunction,EtchedComponent*
%ADD10C,0.100000*%
G04 #@! TD*
G04 #@! TA.AperFunction,ComponentPad*
%ADD11O,1.600000X1.600000*%
G04 #@! TD*
G04 #@! TA.AperFunction,ComponentPad*
%ADD12R,1.600000X1.600000*%
G04 #@! TD*
G04 #@! TA.AperFunction,ComponentPad*
%ADD13C,1.500000*%
G04 #@! TD*
G04 #@! TA.AperFunction,SMDPad,CuDef*
%ADD14R,1.500000X2.000000*%
G04 #@! TD*
G04 #@! TA.AperFunction,SMDPad,CuDef*
%ADD15R,3.800000X2.000000*%
G04 #@! TD*
G04 #@! TA.AperFunction,SMDPad,CuDef*
%ADD16R,1.600000X1.050000*%
G04 #@! TD*
G04 #@! TA.AperFunction,SMDPad,CuDef*
%ADD17C,0.100000*%
G04 #@! TD*
G04 #@! TA.AperFunction,SMDPad,CuDef*
%ADD18R,1.000000X1.500000*%
G04 #@! TD*
G04 #@! TA.AperFunction,SMDPad,CuDef*
%ADD19R,0.400000X1.350000*%
G04 #@! TD*
G04 #@! TA.AperFunction,SMDPad,CuDef*
%ADD20R,1.800000X1.900000*%
G04 #@! TD*
G04 #@! TA.AperFunction,SMDPad,CuDef*
%ADD21R,2.100000X1.600000*%
G04 #@! TD*
G04 #@! TA.AperFunction,SMDPad,CuDef*
%ADD22R,1.900000X1.900000*%
G04 #@! TD*
G04 #@! TA.AperFunction,ComponentPad*
%ADD23O,1.700000X1.700000*%
G04 #@! TD*
G04 #@! TA.AperFunction,ComponentPad*
%ADD24R,1.700000X1.700000*%
G04 #@! TD*
G04 #@! TA.AperFunction,SMDPad,CuDef*
%ADD25R,0.510000X1.100000*%
G04 #@! TD*
G04 #@! TA.AperFunction,ViaPad*
%ADD26C,0.800000*%
G04 #@! TD*
G04 #@! TA.AperFunction,Conductor*
%ADD27C,0.800000*%
G04 #@! TD*
G04 #@! TA.AperFunction,Conductor*
%ADD28C,0.200000*%
G04 #@! TD*
G04 #@! TA.AperFunction,Conductor*
%ADD29C,0.254000*%
G04 #@! TD*
G04 #@! TA.AperFunction,Conductor*
%ADD30C,0.100000*%
G04 #@! TD*
G04 APERTURE END LIST*
D10*
G36*
X2910000Y6315000D02*
G01*
X3410000Y6315000D01*
X3410000Y5915000D01*
X2910000Y5915000D01*
X2910000Y6315000D01*
G37*
G36*
X2910000Y5515000D02*
G01*
X3410000Y5515000D01*
X3410000Y5115000D01*
X2910000Y5115000D01*
X2910000Y5515000D01*
G37*
G04 #@! TA.AperFunction,SMDPad,CuDef*
G36*
G01*
X945000Y-32770000D02*
X945000Y-33270000D01*
G75*
G02*
X720000Y-33495000I-225000J0D01*
G01*
X270000Y-33495000D01*
G75*
G02*
X45000Y-33270000I0J225000D01*
G01*
X45000Y-32770000D01*
G75*
G02*
X270000Y-32545000I225000J0D01*
G01*
X720000Y-32545000D01*
G75*
G02*
X945000Y-32770000I0J-225000D01*
G01*
G37*
G04 #@! TD.AperFunction*
G04 #@! TA.AperFunction,SMDPad,CuDef*
G36*
G01*
X2495000Y-32770000D02*
X2495000Y-33270000D01*
G75*
G02*
X2270000Y-33495000I-225000J0D01*
G01*
X1820000Y-33495000D01*
G75*
G02*
X1595000Y-33270000I0J225000D01*
G01*
X1595000Y-32770000D01*
G75*
G02*
X1820000Y-32545000I225000J0D01*
G01*
X2270000Y-32545000D01*
G75*
G02*
X2495000Y-32770000I0J-225000D01*
G01*
G37*
G04 #@! TD.AperFunction*
G04 #@! TA.AperFunction,SMDPad,CuDef*
G36*
G01*
X6675000Y-33270000D02*
X6675000Y-32770000D01*
G75*
G02*
X6900000Y-32545000I225000J0D01*
G01*
X7350000Y-32545000D01*
G75*
G02*
X7575000Y-32770000I0J-225000D01*
G01*
X7575000Y-33270000D01*
G75*
G02*
X7350000Y-33495000I-225000J0D01*
G01*
X6900000Y-33495000D01*
G75*
G02*
X6675000Y-33270000I0J225000D01*
G01*
G37*
G04 #@! TD.AperFunction*
G04 #@! TA.AperFunction,SMDPad,CuDef*
G36*
G01*
X5125000Y-33270000D02*
X5125000Y-32770000D01*
G75*
G02*
X5350000Y-32545000I225000J0D01*
G01*
X5800000Y-32545000D01*
G75*
G02*
X6025000Y-32770000I0J-225000D01*
G01*
X6025000Y-33270000D01*
G75*
G02*
X5800000Y-33495000I-225000J0D01*
G01*
X5350000Y-33495000D01*
G75*
G02*
X5125000Y-33270000I0J225000D01*
G01*
G37*
G04 #@! TD.AperFunction*
G04 #@! TA.AperFunction,SMDPad,CuDef*
G36*
G01*
X-4770000Y-2290000D02*
X-4770000Y-2790000D01*
G75*
G02*
X-4995000Y-3015000I-225000J0D01*
G01*
X-5445000Y-3015000D01*
G75*
G02*
X-5670000Y-2790000I0J225000D01*
G01*
X-5670000Y-2290000D01*
G75*
G02*
X-5445000Y-2065000I225000J0D01*
G01*
X-4995000Y-2065000D01*
G75*
G02*
X-4770000Y-2290000I0J-225000D01*
G01*
G37*
G04 #@! TD.AperFunction*
G04 #@! TA.AperFunction,SMDPad,CuDef*
G36*
G01*
X-3220000Y-2290000D02*
X-3220000Y-2790000D01*
G75*
G02*
X-3445000Y-3015000I-225000J0D01*
G01*
X-3895000Y-3015000D01*
G75*
G02*
X-4120000Y-2790000I0J225000D01*
G01*
X-4120000Y-2290000D01*
G75*
G02*
X-3895000Y-2065000I225000J0D01*
G01*
X-3445000Y-2065000D01*
G75*
G02*
X-3220000Y-2290000I0J-225000D01*
G01*
G37*
G04 #@! TD.AperFunction*
G04 #@! TA.AperFunction,SMDPad,CuDef*
G36*
G01*
X-1595000Y-2290000D02*
X-1595000Y-2790000D01*
G75*
G02*
X-1820000Y-3015000I-225000J0D01*
G01*
X-2270000Y-3015000D01*
G75*
G02*
X-2495000Y-2790000I0J225000D01*
G01*
X-2495000Y-2290000D01*
G75*
G02*
X-2270000Y-2065000I225000J0D01*
G01*
X-1820000Y-2065000D01*
G75*
G02*
X-1595000Y-2290000I0J-225000D01*
G01*
G37*
G04 #@! TD.AperFunction*
G04 #@! TA.AperFunction,SMDPad,CuDef*
G36*
G01*
X-45000Y-2290000D02*
X-45000Y-2790000D01*
G75*
G02*
X-270000Y-3015000I-225000J0D01*
G01*
X-720000Y-3015000D01*
G75*
G02*
X-945000Y-2790000I0J225000D01*
G01*
X-945000Y-2290000D01*
G75*
G02*
X-720000Y-2065000I225000J0D01*
G01*
X-270000Y-2065000D01*
G75*
G02*
X-45000Y-2290000I0J-225000D01*
G01*
G37*
G04 #@! TD.AperFunction*
G04 #@! TA.AperFunction,SMDPad,CuDef*
G36*
G01*
X8565000Y-2290000D02*
X8565000Y-2790000D01*
G75*
G02*
X8340000Y-3015000I-225000J0D01*
G01*
X7890000Y-3015000D01*
G75*
G02*
X7665000Y-2790000I0J225000D01*
G01*
X7665000Y-2290000D01*
G75*
G02*
X7890000Y-2065000I225000J0D01*
G01*
X8340000Y-2065000D01*
G75*
G02*
X8565000Y-2290000I0J-225000D01*
G01*
G37*
G04 #@! TD.AperFunction*
G04 #@! TA.AperFunction,SMDPad,CuDef*
G36*
G01*
X10115000Y-2290000D02*
X10115000Y-2790000D01*
G75*
G02*
X9890000Y-3015000I-225000J0D01*
G01*
X9440000Y-3015000D01*
G75*
G02*
X9215000Y-2790000I0J225000D01*
G01*
X9215000Y-2290000D01*
G75*
G02*
X9440000Y-2065000I225000J0D01*
G01*
X9890000Y-2065000D01*
G75*
G02*
X10115000Y-2290000I0J-225000D01*
G01*
G37*
G04 #@! TD.AperFunction*
G04 #@! TA.AperFunction,SMDPad,CuDef*
G36*
G01*
X4135000Y-14220000D02*
X4135000Y-13720000D01*
G75*
G02*
X4360000Y-13495000I225000J0D01*
G01*
X4810000Y-13495000D01*
G75*
G02*
X5035000Y-13720000I0J-225000D01*
G01*
X5035000Y-14220000D01*
G75*
G02*
X4810000Y-14445000I-225000J0D01*
G01*
X4360000Y-14445000D01*
G75*
G02*
X4135000Y-14220000I0J225000D01*
G01*
G37*
G04 #@! TD.AperFunction*
G04 #@! TA.AperFunction,SMDPad,CuDef*
G36*
G01*
X2585000Y-14220000D02*
X2585000Y-13720000D01*
G75*
G02*
X2810000Y-13495000I225000J0D01*
G01*
X3260000Y-13495000D01*
G75*
G02*
X3485000Y-13720000I0J-225000D01*
G01*
X3485000Y-14220000D01*
G75*
G02*
X3260000Y-14445000I-225000J0D01*
G01*
X2810000Y-14445000D01*
G75*
G02*
X2585000Y-14220000I0J225000D01*
G01*
G37*
G04 #@! TD.AperFunction*
G04 #@! TA.AperFunction,SMDPad,CuDef*
G36*
G01*
X11740000Y-2290000D02*
X11740000Y-2790000D01*
G75*
G02*
X11515000Y-3015000I-225000J0D01*
G01*
X11065000Y-3015000D01*
G75*
G02*
X10840000Y-2790000I0J225000D01*
G01*
X10840000Y-2290000D01*
G75*
G02*
X11065000Y-2065000I225000J0D01*
G01*
X11515000Y-2065000D01*
G75*
G02*
X11740000Y-2290000I0J-225000D01*
G01*
G37*
G04 #@! TD.AperFunction*
G04 #@! TA.AperFunction,SMDPad,CuDef*
G36*
G01*
X13290000Y-2290000D02*
X13290000Y-2790000D01*
G75*
G02*
X13065000Y-3015000I-225000J0D01*
G01*
X12615000Y-3015000D01*
G75*
G02*
X12390000Y-2790000I0J225000D01*
G01*
X12390000Y-2290000D01*
G75*
G02*
X12615000Y-2065000I225000J0D01*
G01*
X13065000Y-2065000D01*
G75*
G02*
X13290000Y-2290000I0J-225000D01*
G01*
G37*
G04 #@! TD.AperFunction*
G04 #@! TA.AperFunction,SMDPad,CuDef*
G36*
G01*
X11070000Y-40850000D02*
X10520000Y-40850000D01*
G75*
G02*
X10320000Y-40650000I0J200000D01*
G01*
X10320000Y-40250000D01*
G75*
G02*
X10520000Y-40050000I200000J0D01*
G01*
X11070000Y-40050000D01*
G75*
G02*
X11270000Y-40250000I0J-200000D01*
G01*
X11270000Y-40650000D01*
G75*
G02*
X11070000Y-40850000I-200000J0D01*
G01*
G37*
G04 #@! TD.AperFunction*
G04 #@! TA.AperFunction,SMDPad,CuDef*
G36*
G01*
X11070000Y-42500000D02*
X10520000Y-42500000D01*
G75*
G02*
X10320000Y-42300000I0J200000D01*
G01*
X10320000Y-41900000D01*
G75*
G02*
X10520000Y-41700000I200000J0D01*
G01*
X11070000Y-41700000D01*
G75*
G02*
X11270000Y-41900000I0J-200000D01*
G01*
X11270000Y-42300000D01*
G75*
G02*
X11070000Y-42500000I-200000J0D01*
G01*
G37*
G04 #@! TD.AperFunction*
G04 #@! TA.AperFunction,SMDPad,CuDef*
G36*
G01*
X11005000Y-30840000D02*
X11005000Y-31390000D01*
G75*
G02*
X10805000Y-31590000I-200000J0D01*
G01*
X10405000Y-31590000D01*
G75*
G02*
X10205000Y-31390000I0J200000D01*
G01*
X10205000Y-30840000D01*
G75*
G02*
X10405000Y-30640000I200000J0D01*
G01*
X10805000Y-30640000D01*
G75*
G02*
X11005000Y-30840000I0J-200000D01*
G01*
G37*
G04 #@! TD.AperFunction*
G04 #@! TA.AperFunction,SMDPad,CuDef*
G36*
G01*
X12655000Y-30840000D02*
X12655000Y-31390000D01*
G75*
G02*
X12455000Y-31590000I-200000J0D01*
G01*
X12055000Y-31590000D01*
G75*
G02*
X11855000Y-31390000I0J200000D01*
G01*
X11855000Y-30840000D01*
G75*
G02*
X12055000Y-30640000I200000J0D01*
G01*
X12455000Y-30640000D01*
G75*
G02*
X12655000Y-30840000I0J-200000D01*
G01*
G37*
G04 #@! TD.AperFunction*
G04 #@! TA.AperFunction,SMDPad,CuDef*
G36*
G01*
X4235000Y-2180000D02*
X4235000Y-1630000D01*
G75*
G02*
X4435000Y-1430000I200000J0D01*
G01*
X4835000Y-1430000D01*
G75*
G02*
X5035000Y-1630000I0J-200000D01*
G01*
X5035000Y-2180000D01*
G75*
G02*
X4835000Y-2380000I-200000J0D01*
G01*
X4435000Y-2380000D01*
G75*
G02*
X4235000Y-2180000I0J200000D01*
G01*
G37*
G04 #@! TD.AperFunction*
G04 #@! TA.AperFunction,SMDPad,CuDef*
G36*
G01*
X2585000Y-2180000D02*
X2585000Y-1630000D01*
G75*
G02*
X2785000Y-1430000I200000J0D01*
G01*
X3185000Y-1430000D01*
G75*
G02*
X3385000Y-1630000I0J-200000D01*
G01*
X3385000Y-2180000D01*
G75*
G02*
X3185000Y-2380000I-200000J0D01*
G01*
X2785000Y-2380000D01*
G75*
G02*
X2585000Y-2180000I0J200000D01*
G01*
G37*
G04 #@! TD.AperFunction*
D11*
X7620000Y-13970000D03*
X0Y-29210000D03*
X7620000Y-16510000D03*
X0Y-26670000D03*
X7620000Y-19050000D03*
X0Y-24130000D03*
X7620000Y-21590000D03*
X0Y-21590000D03*
X7620000Y-24130000D03*
X0Y-19050000D03*
X7620000Y-26670000D03*
X0Y-16510000D03*
X7620000Y-29210000D03*
D12*
X0Y-13970000D03*
D13*
X6150000Y-8980000D03*
X1270000Y-8980000D03*
D14*
X-4840000Y25000D03*
X-240000Y25000D03*
X-2540000Y25000D03*
D15*
X-2540000Y6325000D03*
D14*
X7860000Y25000D03*
X12460000Y25000D03*
X10160000Y25000D03*
D15*
X10160000Y6325000D03*
D16*
X-3810000Y-37785000D03*
X-3810000Y-33335000D03*
X11430000Y-33335000D03*
X11430000Y-37785000D03*
G04 #@! TA.AperFunction,SMDPad,CuDef*
D17*
G36*
X3060000Y4965000D02*
G01*
X2510000Y4965000D01*
X2510000Y4965602D01*
X2485466Y4965602D01*
X2436635Y4970412D01*
X2388510Y4979984D01*
X2341555Y4994228D01*
X2296222Y5013005D01*
X2252949Y5036136D01*
X2212150Y5063396D01*
X2174221Y5094524D01*
X2139524Y5129221D01*
X2108396Y5167150D01*
X2081136Y5207949D01*
X2058005Y5251222D01*
X2039228Y5296555D01*
X2024984Y5343510D01*
X2015412Y5391635D01*
X2010602Y5440466D01*
X2010602Y5465000D01*
X2010000Y5465000D01*
X2010000Y5965000D01*
X2010602Y5965000D01*
X2010602Y5989534D01*
X2015412Y6038365D01*
X2024984Y6086490D01*
X2039228Y6133445D01*
X2058005Y6178778D01*
X2081136Y6222051D01*
X2108396Y6262850D01*
X2139524Y6300779D01*
X2174221Y6335476D01*
X2212150Y6366604D01*
X2252949Y6393864D01*
X2296222Y6416995D01*
X2341555Y6435772D01*
X2388510Y6450016D01*
X2436635Y6459588D01*
X2485466Y6464398D01*
X2510000Y6464398D01*
X2510000Y6465000D01*
X3060000Y6465000D01*
X3060000Y4965000D01*
G37*
G04 #@! TD.AperFunction*
D18*
X3810000Y5715000D03*
G04 #@! TA.AperFunction,SMDPad,CuDef*
D17*
G36*
X5110000Y6464398D02*
G01*
X5134534Y6464398D01*
X5183365Y6459588D01*
X5231490Y6450016D01*
X5278445Y6435772D01*
X5323778Y6416995D01*
X5367051Y6393864D01*
X5407850Y6366604D01*
X5445779Y6335476D01*
X5480476Y6300779D01*
X5511604Y6262850D01*
X5538864Y6222051D01*
X5561995Y6178778D01*
X5580772Y6133445D01*
X5595016Y6086490D01*
X5604588Y6038365D01*
X5609398Y5989534D01*
X5609398Y5965000D01*
X5610000Y5965000D01*
X5610000Y5465000D01*
X5609398Y5465000D01*
X5609398Y5440466D01*
X5604588Y5391635D01*
X5595016Y5343510D01*
X5580772Y5296555D01*
X5561995Y5251222D01*
X5538864Y5207949D01*
X5511604Y5167150D01*
X5480476Y5129221D01*
X5445779Y5094524D01*
X5407850Y5063396D01*
X5367051Y5036136D01*
X5323778Y5013005D01*
X5278445Y4994228D01*
X5231490Y4979984D01*
X5183365Y4970412D01*
X5134534Y4965602D01*
X5110000Y4965602D01*
X5110000Y4965000D01*
X4560000Y4965000D01*
X4560000Y6465000D01*
X5110000Y6465000D01*
X5110000Y6464398D01*
G37*
G04 #@! TD.AperFunction*
D19*
X2510000Y-43395000D03*
X3160000Y-43395000D03*
X3810000Y-43395000D03*
X4460000Y-43395000D03*
X5110000Y-43395000D03*
D20*
X-190000Y-46070000D03*
X7810000Y-46070000D03*
D21*
X710000Y-43520000D03*
X6910000Y-43520000D03*
D22*
X2610000Y-46070000D03*
X5010000Y-46070000D03*
D23*
X12700000Y-7620000D03*
X12700000Y-10160000D03*
X12700000Y-12700000D03*
X12700000Y-15240000D03*
X12700000Y-17780000D03*
X12700000Y-20320000D03*
X12700000Y-22860000D03*
X12700000Y-25400000D03*
D24*
X12700000Y-27940000D03*
D23*
X-5080000Y-27940000D03*
X-5080000Y-25400000D03*
X-5080000Y-22860000D03*
X-5080000Y-20320000D03*
X-5080000Y-17780000D03*
X-5080000Y-15240000D03*
X-5080000Y-12700000D03*
X-5080000Y-10160000D03*
D24*
X-5080000Y-7620000D03*
D23*
X10160000Y10160000D03*
X7620000Y10160000D03*
X5080000Y10160000D03*
X2540000Y10160000D03*
X0Y10160000D03*
D24*
X-2540000Y10160000D03*
D25*
X1810000Y-34915000D03*
X2810000Y-34915000D03*
X5810000Y-40015000D03*
X3810000Y-34915000D03*
X4810000Y-34915000D03*
X5810000Y-34915000D03*
X4810000Y-40015000D03*
X3810000Y-40015000D03*
X2810000Y-40015000D03*
X1810000Y-40015000D03*
G04 #@! TA.AperFunction,SMDPad,CuDef*
G36*
G01*
X12956250Y-40925000D02*
X12443750Y-40925000D01*
G75*
G02*
X12225000Y-40706250I0J218750D01*
G01*
X12225000Y-40268750D01*
G75*
G02*
X12443750Y-40050000I218750J0D01*
G01*
X12956250Y-40050000D01*
G75*
G02*
X13175000Y-40268750I0J-218750D01*
G01*
X13175000Y-40706250D01*
G75*
G02*
X12956250Y-40925000I-218750J0D01*
G01*
G37*
G04 #@! TD.AperFunction*
G04 #@! TA.AperFunction,SMDPad,CuDef*
G36*
G01*
X12956250Y-42500000D02*
X12443750Y-42500000D01*
G75*
G02*
X12225000Y-42281250I0J218750D01*
G01*
X12225000Y-41843750D01*
G75*
G02*
X12443750Y-41625000I218750J0D01*
G01*
X12956250Y-41625000D01*
G75*
G02*
X13175000Y-41843750I0J-218750D01*
G01*
X13175000Y-42281250D01*
G75*
G02*
X12956250Y-42500000I-218750J0D01*
G01*
G37*
G04 #@! TD.AperFunction*
G04 #@! TA.AperFunction,SMDPad,CuDef*
G36*
G01*
X3035000Y1895000D02*
X3035000Y645000D01*
G75*
G02*
X2785000Y395000I-250000J0D01*
G01*
X2035000Y395000D01*
G75*
G02*
X1785000Y645000I0J250000D01*
G01*
X1785000Y1895000D01*
G75*
G02*
X2035000Y2145000I250000J0D01*
G01*
X2785000Y2145000D01*
G75*
G02*
X3035000Y1895000I0J-250000D01*
G01*
G37*
G04 #@! TD.AperFunction*
G04 #@! TA.AperFunction,SMDPad,CuDef*
G36*
G01*
X5835000Y1895000D02*
X5835000Y645000D01*
G75*
G02*
X5585000Y395000I-250000J0D01*
G01*
X4835000Y395000D01*
G75*
G02*
X4585000Y645000I0J250000D01*
G01*
X4585000Y1895000D01*
G75*
G02*
X4835000Y2145000I250000J0D01*
G01*
X5585000Y2145000D01*
G75*
G02*
X5835000Y1895000I0J-250000D01*
G01*
G37*
G04 #@! TD.AperFunction*
G04 #@! TA.AperFunction,SMDPad,CuDef*
G36*
G01*
X5390000Y-4830000D02*
X5390000Y-5330000D01*
G75*
G02*
X5165000Y-5555000I-225000J0D01*
G01*
X4715000Y-5555000D01*
G75*
G02*
X4490000Y-5330000I0J225000D01*
G01*
X4490000Y-4830000D01*
G75*
G02*
X4715000Y-4605000I225000J0D01*
G01*
X5165000Y-4605000D01*
G75*
G02*
X5390000Y-4830000I0J-225000D01*
G01*
G37*
G04 #@! TD.AperFunction*
G04 #@! TA.AperFunction,SMDPad,CuDef*
G36*
G01*
X6940000Y-4830000D02*
X6940000Y-5330000D01*
G75*
G02*
X6715000Y-5555000I-225000J0D01*
G01*
X6265000Y-5555000D01*
G75*
G02*
X6040000Y-5330000I0J225000D01*
G01*
X6040000Y-4830000D01*
G75*
G02*
X6265000Y-4605000I225000J0D01*
G01*
X6715000Y-4605000D01*
G75*
G02*
X6940000Y-4830000I0J-225000D01*
G01*
G37*
G04 #@! TD.AperFunction*
G04 #@! TA.AperFunction,SMDPad,CuDef*
G36*
G01*
X2230000Y-5330000D02*
X2230000Y-4830000D01*
G75*
G02*
X2455000Y-4605000I225000J0D01*
G01*
X2905000Y-4605000D01*
G75*
G02*
X3130000Y-4830000I0J-225000D01*
G01*
X3130000Y-5330000D01*
G75*
G02*
X2905000Y-5555000I-225000J0D01*
G01*
X2455000Y-5555000D01*
G75*
G02*
X2230000Y-5330000I0J225000D01*
G01*
G37*
G04 #@! TD.AperFunction*
G04 #@! TA.AperFunction,SMDPad,CuDef*
G36*
G01*
X680000Y-5330000D02*
X680000Y-4830000D01*
G75*
G02*
X905000Y-4605000I225000J0D01*
G01*
X1355000Y-4605000D01*
G75*
G02*
X1580000Y-4830000I0J-225000D01*
G01*
X1580000Y-5330000D01*
G75*
G02*
X1355000Y-5555000I-225000J0D01*
G01*
X905000Y-5555000D01*
G75*
G02*
X680000Y-5330000I0J225000D01*
G01*
G37*
G04 #@! TD.AperFunction*
D26*
X5261800Y-2932900D03*
X5210000Y-261500D03*
X5650000Y-13970000D03*
X2410000Y2748200D03*
X-2455150Y-21225100D03*
X10376600Y-25562500D03*
D27*
X-4236000Y-3616300D02*
X-3104100Y-3616300D01*
X-3104100Y-3616300D02*
X-2045000Y-2557200D01*
X-2045000Y-2557200D02*
X-2045000Y-2540000D01*
X-5220000Y-2540000D02*
X-5220000Y-2632300D01*
X-5220000Y-2632300D02*
X-4236000Y-3616300D01*
X-5080000Y-7620000D02*
X-5080000Y-4460300D01*
X-5080000Y-4460300D02*
X-4236000Y-3616300D01*
X-4840000Y-1575300D02*
X-5220000Y-1955300D01*
X-5220000Y-1955300D02*
X-5220000Y-2540000D01*
X7860000Y-2540000D02*
X8115000Y-2540000D01*
X7860000Y-1575300D02*
X7860000Y-2540000D01*
X7860000Y-2540000D02*
X5654700Y-2540000D01*
X5654700Y-2540000D02*
X5261800Y-2932900D01*
X4635000Y-1905000D02*
X4635000Y-2306100D01*
X4635000Y-2306100D02*
X5261800Y-2932900D01*
X7860000Y25000D02*
X7860000Y-1575300D01*
X-4840000Y25000D02*
X-4840000Y1625300D01*
X5080000Y10160000D02*
X3629600Y8709600D01*
X3629600Y8709600D02*
X-3951500Y8709600D01*
X-3951500Y8709600D02*
X-5040400Y7620700D01*
X-5040400Y7620700D02*
X-5040400Y1825700D01*
X-5040400Y1825700D02*
X-4840000Y1625300D01*
X12700000Y-10160000D02*
X11225200Y-8685200D01*
X11225200Y-8685200D02*
X11225200Y-2604800D01*
X11225200Y-2604800D02*
X11290000Y-2540000D01*
X-4840000Y25000D02*
X-4840000Y-1575300D01*
X5210000Y-206400D02*
X5210000Y-261500D01*
X5210000Y1270000D02*
X5210000Y-206400D01*
X12460000Y25000D02*
X12460000Y-1575300D01*
X12840000Y-2540000D02*
X12840000Y-1955300D01*
X12840000Y-1955300D02*
X12460000Y-1575300D01*
X12700000Y-6169700D02*
X12840000Y-6029700D01*
X12840000Y-6029700D02*
X12840000Y-2540000D01*
X12700000Y-7620000D02*
X12700000Y-6169700D01*
X46500Y-261500D02*
X5210000Y-261500D01*
X-240000Y25000D02*
X46500Y-261500D01*
X-495000Y-230000D02*
X-240000Y25000D01*
X-495000Y-2540000D02*
X-495000Y-230000D01*
D28*
X6119400Y-32014400D02*
X7125000Y-33020000D01*
X3810000Y-40015000D02*
X3810000Y-39164700D01*
X3810000Y-39164700D02*
X7125000Y-35849700D01*
X7125000Y-35849700D02*
X7125000Y-33020000D01*
X3810000Y-40440100D02*
X3810000Y-40015000D01*
X3810000Y-40440100D02*
X3810000Y-40865300D01*
X2610000Y-46070000D02*
X3860300Y-46070000D01*
X5010000Y-45444800D02*
X4485500Y-45444800D01*
X4485500Y-45444800D02*
X3860300Y-46070000D01*
X5010000Y-45444800D02*
X5010000Y-44819700D01*
X5010000Y-46070000D02*
X5010000Y-45444800D01*
X5110000Y-44270200D02*
X5110000Y-44719700D01*
X5110000Y-44719700D02*
X5010000Y-44819700D01*
X5110000Y-44270200D02*
X6709900Y-44270200D01*
X6709900Y-44270200D02*
X6910000Y-44070100D01*
X2985000Y-4775000D02*
X4280000Y-4775000D01*
X4280000Y-4775000D02*
X4585000Y-5080000D01*
X4585000Y-5080000D02*
X4940000Y-5080000D01*
X10605000Y-31115000D02*
X10329600Y-31390400D01*
X10329600Y-31390400D02*
X10329600Y-34379200D01*
X10329600Y-34379200D02*
X11654600Y-35704200D01*
X11654600Y-35704200D02*
X11654600Y-35898600D01*
X11654600Y-35898600D02*
X13525200Y-37769200D01*
X13525200Y-37769200D02*
X13525200Y-40871900D01*
X13525200Y-40871900D02*
X13122100Y-41275000D01*
X13122100Y-41275000D02*
X11620000Y-41275000D01*
X11620000Y-41275000D02*
X10795000Y-40450000D01*
X8260300Y-43520000D02*
X8260300Y-42984700D01*
X8260300Y-42984700D02*
X10795000Y-40450000D01*
X6910000Y-43520000D02*
X8260300Y-43520000D01*
X6910000Y-43795000D02*
X6910000Y-43520000D01*
X7810000Y-46070000D02*
X7810000Y-44819700D01*
X5110000Y-43395000D02*
X5110000Y-44270200D01*
X6910000Y-43795000D02*
X6910000Y-44070100D01*
X3810000Y-40865300D02*
X5110000Y-42165300D01*
X5110000Y-42165300D02*
X5110000Y-43395000D01*
X6910000Y-44070100D02*
X6910000Y-44620300D01*
X6910000Y-44620300D02*
X7109400Y-44819700D01*
X7109400Y-44819700D02*
X7810000Y-44819700D01*
X2610000Y-46070000D02*
X1359700Y-46070000D01*
X646000Y-44134100D02*
X-39600Y-44819700D01*
X-39600Y-44819700D02*
X-190000Y-44819700D01*
X710000Y-44070100D02*
X646000Y-44134100D01*
X1359700Y-46070000D02*
X1359700Y-44847800D01*
X1359700Y-44847800D02*
X646000Y-44134100D01*
X404000Y-33335000D02*
X-2709700Y-33335000D01*
X495000Y-33020000D02*
X495000Y-33244000D01*
X495000Y-33244000D02*
X404000Y-33335000D01*
X404000Y-33335000D02*
X404000Y-42113700D01*
X404000Y-42113700D02*
X710000Y-42419700D01*
X2985000Y-4775000D02*
X2985000Y-1905000D01*
X2680000Y-5080000D02*
X2985000Y-4775000D01*
X-190000Y-46070000D02*
X-190000Y-44819700D01*
X710000Y-43520000D02*
X710000Y-44070100D01*
X710000Y-43520000D02*
X710000Y-42419700D01*
X-3810000Y-33335000D02*
X-2709700Y-33335000D01*
X5715010Y-4304990D02*
X4940000Y-5080000D01*
X6932468Y-4304990D02*
X5715010Y-4304990D01*
X7620000Y-4992522D02*
X6932468Y-4304990D01*
X7620000Y-13970000D02*
X7620000Y-4992522D01*
X6119690Y-32014690D02*
X7125000Y-33020000D01*
X6519999Y-25536603D02*
X6119690Y-25936911D01*
X6519999Y-15070001D02*
X6519999Y-25536603D01*
X6119690Y-25936911D02*
X6119690Y-32014690D01*
X7620000Y-13970000D02*
X6519999Y-15070001D01*
X4585000Y-13970000D02*
X5650000Y-13970000D01*
D27*
X11430000Y-37785000D02*
X10029700Y-37785000D01*
X12700000Y-17780000D02*
X9375100Y-21104900D01*
X9375100Y-21104900D02*
X9375100Y-37130400D01*
X9375100Y-37130400D02*
X10029700Y-37785000D01*
X0Y-13970000D02*
X3035000Y-13970000D01*
X3810000Y5715000D02*
X3810000Y7065300D01*
X3810000Y7065300D02*
X4525300Y7065300D01*
X4525300Y7065300D02*
X7620000Y10160000D01*
X9665000Y-2540000D02*
X10160000Y-2045000D01*
X10160000Y-2045000D02*
X10160000Y25000D01*
X12700000Y-15240000D02*
X9665000Y-12205000D01*
X9665000Y-12205000D02*
X9665000Y-2540000D01*
X9435100Y6325000D02*
X10160000Y5600100D01*
X10160000Y5600100D02*
X10160000Y25000D01*
X9435100Y6325000D02*
X7659700Y6325000D01*
X10160000Y6325000D02*
X9435100Y6325000D01*
X5110000Y5715000D02*
X7049700Y5715000D01*
X7049700Y5715000D02*
X7659700Y6325000D01*
X-2540000Y25000D02*
X-2540000Y-690000D01*
X-2540000Y-690000D02*
X-3670000Y-1820000D01*
X-3670000Y-1820000D02*
X-3670000Y-2540000D01*
X-1815000Y6325000D02*
X-2540000Y5600000D01*
X-2540000Y5600000D02*
X-2540000Y25000D01*
X2410000Y2748200D02*
X2410000Y5615000D01*
X2410000Y1270000D02*
X2410000Y2748200D01*
X2410000Y5615000D02*
X2510000Y5715000D01*
X-39700Y6325000D02*
X670300Y5615000D01*
X670300Y5615000D02*
X2410000Y5615000D01*
X-1815000Y6325000D02*
X-39700Y6325000D01*
X-2540000Y6325000D02*
X-1815000Y6325000D01*
D28*
X4810000Y-34915000D02*
X4810000Y-35765300D01*
X4810000Y-35765300D02*
X4243700Y-35765300D01*
X4243700Y-35765300D02*
X846100Y-39162900D01*
X846100Y-39162900D02*
X846100Y-41381200D01*
X846100Y-41381200D02*
X2510000Y-43045100D01*
X2510000Y-43045100D02*
X2510000Y-43395000D01*
X5575000Y-33020000D02*
X4810000Y-33785000D01*
X4810000Y-33785000D02*
X4810000Y-34915000D01*
X1810000Y-34915000D02*
X1810000Y-33255000D01*
X1810000Y-33255000D02*
X2045000Y-33020000D01*
X1130000Y-5080000D02*
X1130000Y-8840000D01*
X1130000Y-8840000D02*
X1270000Y-8980000D01*
X-1100400Y-11350400D02*
X1270000Y-8980000D01*
X-1100400Y-14926400D02*
X-1100400Y-11350400D01*
X0Y-16026800D02*
X-1100400Y-14926400D01*
X0Y-16510000D02*
X0Y-16026800D01*
X-1100001Y-18880001D02*
X-5080000Y-22860000D01*
X-1100001Y-17610001D02*
X-1100001Y-18880001D01*
X0Y-16510000D02*
X-1100001Y-17610001D01*
X6490000Y-5080000D02*
X6490000Y-8640000D01*
X6490000Y-8640000D02*
X6150000Y-8980000D01*
X0Y-19050000D02*
X722478Y-19050000D01*
X-2175100Y-21225100D02*
X-2455150Y-21225100D01*
X0Y-19050000D02*
X-2175100Y-21225100D01*
X6119989Y-9010011D02*
X6150000Y-8980000D01*
X3810000Y-19050000D02*
X6119989Y-16740011D01*
X0Y-19050000D02*
X3810000Y-19050000D01*
X6119989Y-16740011D02*
X6119989Y-14835011D01*
X6119989Y-14835011D02*
X6350000Y-14605000D01*
X6350000Y-9180000D02*
X6150000Y-8980000D01*
X6350000Y-14605000D02*
X6350000Y-9180000D01*
X12700000Y-40487500D02*
X10855800Y-38643300D01*
X10855800Y-38643300D02*
X9851600Y-38643300D01*
X9851600Y-38643300D02*
X8060100Y-36851800D01*
X8060100Y-36851800D02*
X8060100Y-32135100D01*
X8060100Y-32135100D02*
X6519700Y-30594700D01*
X6519700Y-30594700D02*
X6519700Y-26102600D01*
X6519700Y-26102600D02*
X7392000Y-25230300D01*
X7392000Y-25230300D02*
X7620000Y-25230300D01*
X7620000Y-24130000D02*
X7620000Y-25230300D01*
X12700000Y-42062500D02*
X12662500Y-42100000D01*
X12662500Y-42100000D02*
X10795000Y-42100000D01*
X0Y-26670000D02*
X0Y-27770300D01*
X2810000Y-34915000D02*
X2810000Y-30352300D01*
X2810000Y-30352300D02*
X228000Y-27770300D01*
X228000Y-27770300D02*
X0Y-27770300D01*
X0Y-24130000D02*
X0Y-25230300D01*
X3810000Y-34915000D02*
X3810000Y-28812300D01*
X3810000Y-28812300D02*
X228000Y-25230300D01*
X228000Y-25230300D02*
X0Y-25230300D01*
X0Y-21590000D02*
X0Y-22690300D01*
X0Y-22690300D02*
X-137700Y-22690300D01*
X-137700Y-22690300D02*
X-1100300Y-23652900D01*
X-1100300Y-23652900D02*
X-1100300Y-28820500D01*
X-1100300Y-28820500D02*
X-4921000Y-32641200D01*
X-4921000Y-32641200D02*
X-4921000Y-33977100D01*
X-4921000Y-33977100D02*
X-3810000Y-35088100D01*
X-3810000Y-35088100D02*
X-3810000Y-37785000D01*
X10376600Y-25562500D02*
X10376600Y-29470300D01*
X10376600Y-29470300D02*
X12021300Y-31115000D01*
X12021300Y-31115000D02*
X12021300Y-31918400D01*
X12021300Y-31918400D02*
X11430000Y-32509700D01*
X12021300Y-31115000D02*
X12255000Y-31115000D01*
X11430000Y-33335000D02*
X11430000Y-32509700D01*
X3160000Y-43395000D02*
X3160000Y-42419700D01*
X2810000Y-40015000D02*
X2810000Y-39164700D01*
X2810000Y-39164700D02*
X1410600Y-39164700D01*
X1410600Y-39164700D02*
X1254600Y-39320700D01*
X1254600Y-39320700D02*
X1254600Y-40881300D01*
X1254600Y-40881300D02*
X2793000Y-42419700D01*
X2793000Y-42419700D02*
X3160000Y-42419700D01*
X3810000Y-43395000D02*
X3810000Y-42419700D01*
X1810000Y-40015000D02*
X1810000Y-40865300D01*
X1810000Y-40865300D02*
X2255600Y-40865300D01*
X2255600Y-40865300D02*
X3810000Y-42419700D01*
D29*
X2075001Y-30656748D02*
X2075001Y-31906928D01*
X1820000Y-31906928D01*
X1651623Y-31923512D01*
X1489717Y-31972625D01*
X1343649Y-32050700D01*
X1299494Y-32014463D01*
X1189180Y-31955498D01*
X1069482Y-31919188D01*
X945000Y-31906928D01*
X780750Y-31910000D01*
X622000Y-32068750D01*
X622000Y-32893000D01*
X642000Y-32893000D01*
X642000Y-33147000D01*
X622000Y-33147000D01*
X622000Y-33971250D01*
X780750Y-34130000D01*
X945000Y-34133072D01*
X962298Y-34131368D01*
X929188Y-34240518D01*
X916928Y-34365000D01*
X916928Y-35465000D01*
X929188Y-35589482D01*
X965498Y-35709180D01*
X1024463Y-35819494D01*
X1103815Y-35916185D01*
X1200506Y-35995537D01*
X1310820Y-36054502D01*
X1430518Y-36090812D01*
X1555000Y-36103072D01*
X2065000Y-36103072D01*
X2189482Y-36090812D01*
X2309180Y-36054502D01*
X2310000Y-36054064D01*
X2310820Y-36054502D01*
X2430518Y-36090812D01*
X2555000Y-36103072D01*
X2866481Y-36103072D01*
X351908Y-38617646D01*
X323862Y-38640663D01*
X232013Y-38752581D01*
X163763Y-38880268D01*
X143195Y-38948072D01*
X121735Y-39018815D01*
X107544Y-39162900D01*
X111100Y-39199005D01*
X111101Y-41345085D01*
X107544Y-41381200D01*
X121735Y-41525285D01*
X160229Y-41652181D01*
X163764Y-41663833D01*
X232014Y-41791520D01*
X323863Y-41903438D01*
X351908Y-41926454D01*
X582998Y-42157544D01*
X582998Y-42243748D01*
X424250Y-42085000D01*
X-340000Y-42081928D01*
X-464482Y-42094188D01*
X-584180Y-42130498D01*
X-694494Y-42189463D01*
X-791185Y-42268815D01*
X-870537Y-42365506D01*
X-929502Y-42475820D01*
X-965812Y-42595518D01*
X-978072Y-42720000D01*
X-975000Y-43234250D01*
X-816250Y-43393000D01*
X583000Y-43393000D01*
X583000Y-43373000D01*
X837000Y-43373000D01*
X837000Y-43393000D01*
X857000Y-43393000D01*
X857000Y-43647000D01*
X837000Y-43647000D01*
X837000Y-43667000D01*
X583000Y-43667000D01*
X583000Y-43647000D01*
X-816250Y-43647000D01*
X-975000Y-43805750D01*
X-978072Y-44320000D01*
X-965812Y-44444482D01*
X-954247Y-44482607D01*
X-1090000Y-44481928D01*
X-1214482Y-44494188D01*
X-1334180Y-44530498D01*
X-1444494Y-44589463D01*
X-1541185Y-44668815D01*
X-1620537Y-44765506D01*
X-1679502Y-44875820D01*
X-1715812Y-44995518D01*
X-1728072Y-45120000D01*
X-1725000Y-45784250D01*
X-1566250Y-45943000D01*
X-317000Y-45943000D01*
X-317000Y-45923000D01*
X-63000Y-45923000D01*
X-63000Y-45943000D01*
X2483000Y-45943000D01*
X2483000Y-45923000D01*
X2737000Y-45923000D01*
X2737000Y-45943000D01*
X4883000Y-45943000D01*
X4883000Y-45923000D01*
X5137000Y-45923000D01*
X5137000Y-45943000D01*
X7683000Y-45943000D01*
X7683000Y-45923000D01*
X7937000Y-45923000D01*
X7937000Y-45943000D01*
X9186250Y-45943000D01*
X9345000Y-45784250D01*
X9346087Y-45549117D01*
X9695000Y-45549117D01*
X9695000Y-45890883D01*
X9761675Y-46226081D01*
X9892463Y-46541831D01*
X10082337Y-46825998D01*
X10324002Y-47067663D01*
X10608169Y-47257537D01*
X10923919Y-47388325D01*
X11259117Y-47455000D01*
X11600883Y-47455000D01*
X11936081Y-47388325D01*
X12251831Y-47257537D01*
X12535998Y-47067663D01*
X12777663Y-46825998D01*
X12967537Y-46541831D01*
X13098325Y-46226081D01*
X13165000Y-45890883D01*
X13165000Y-45549117D01*
X13098325Y-45213919D01*
X12967537Y-44898169D01*
X12777663Y-44614002D01*
X12535998Y-44372337D01*
X12251831Y-44182463D01*
X11936081Y-44051675D01*
X11600883Y-43985000D01*
X11259117Y-43985000D01*
X10923919Y-44051675D01*
X10608169Y-44182463D01*
X10324002Y-44372337D01*
X10082337Y-44614002D01*
X9892463Y-44898169D01*
X9761675Y-45213919D01*
X9695000Y-45549117D01*
X9346087Y-45549117D01*
X9348072Y-45120000D01*
X9335812Y-44995518D01*
X9299502Y-44875820D01*
X9240537Y-44765506D01*
X9161185Y-44668815D01*
X9064494Y-44589463D01*
X8954180Y-44530498D01*
X8834482Y-44494188D01*
X8710000Y-44481928D01*
X8574247Y-44482607D01*
X8585812Y-44444482D01*
X8598072Y-44320000D01*
X8595000Y-43805750D01*
X8436250Y-43647000D01*
X7037000Y-43647000D01*
X7037000Y-43667000D01*
X6783000Y-43667000D01*
X6783000Y-43647000D01*
X6763000Y-43647000D01*
X6763000Y-43393000D01*
X6783000Y-43393000D01*
X6783000Y-42243750D01*
X7037000Y-42243750D01*
X7037000Y-43393000D01*
X8436250Y-43393000D01*
X8595000Y-43234250D01*
X8598072Y-42720000D01*
X8585812Y-42595518D01*
X8549502Y-42475820D01*
X8490537Y-42365506D01*
X8411185Y-42268815D01*
X8314494Y-42189463D01*
X8204180Y-42130498D01*
X8084482Y-42094188D01*
X7960000Y-42081928D01*
X7195750Y-42085000D01*
X7037000Y-42243750D01*
X6783000Y-42243750D01*
X6624250Y-42085000D01*
X5860000Y-42081928D01*
X5735518Y-42094188D01*
X5615820Y-42130498D01*
X5585548Y-42146679D01*
X5563576Y-42134479D01*
X5444474Y-42096259D01*
X5341750Y-42085000D01*
X5183000Y-42243750D01*
X5183000Y-42356322D01*
X5111185Y-42268815D01*
X5014494Y-42189463D01*
X4946218Y-42152968D01*
X4878250Y-42085000D01*
X4787120Y-42094988D01*
X4784482Y-42094188D01*
X4660000Y-42081928D01*
X4462865Y-42081928D01*
X4424087Y-42009380D01*
X4355253Y-41925506D01*
X4332238Y-41897462D01*
X4304193Y-41874446D01*
X3576998Y-41147252D01*
X3683000Y-41041250D01*
X3683000Y-40715235D01*
X3690812Y-40689482D01*
X3703072Y-40565000D01*
X3703072Y-39465000D01*
X3916928Y-39465000D01*
X3916928Y-40565000D01*
X3929188Y-40689482D01*
X3937000Y-40715235D01*
X3937000Y-41041250D01*
X4095750Y-41200000D01*
X4200552Y-41188507D01*
X4308966Y-41153511D01*
X4310820Y-41154502D01*
X4430518Y-41190812D01*
X4555000Y-41203072D01*
X5065000Y-41203072D01*
X5189482Y-41190812D01*
X5309180Y-41154502D01*
X5310000Y-41154064D01*
X5310820Y-41154502D01*
X5430518Y-41190812D01*
X5555000Y-41203072D01*
X6065000Y-41203072D01*
X6189482Y-41190812D01*
X6309180Y-41154502D01*
X6419494Y-41095537D01*
X6516185Y-41016185D01*
X6595537Y-40919494D01*
X6654502Y-40809180D01*
X6690812Y-40689482D01*
X6703072Y-40565000D01*
X6703072Y-39465000D01*
X6690812Y-39340518D01*
X6654502Y-39220820D01*
X6595537Y-39110506D01*
X6516185Y-39013815D01*
X6419494Y-38934463D01*
X6309180Y-38875498D01*
X6189482Y-38839188D01*
X6065000Y-38826928D01*
X5555000Y-38826928D01*
X5430518Y-38839188D01*
X5310820Y-38875498D01*
X5310000Y-38875936D01*
X5309180Y-38875498D01*
X5189482Y-38839188D01*
X5065000Y-38826928D01*
X4555000Y-38826928D01*
X4430518Y-38839188D01*
X4310820Y-38875498D01*
X4308966Y-38876489D01*
X4200552Y-38841493D01*
X4095750Y-38830000D01*
X3937000Y-38988750D01*
X3937000Y-39314765D01*
X3929188Y-39340518D01*
X3916928Y-39465000D01*
X3703072Y-39465000D01*
X3690812Y-39340518D01*
X3683000Y-39314765D01*
X3683000Y-38988750D01*
X3524250Y-38830000D01*
X3467815Y-38836189D01*
X3424087Y-38754380D01*
X3332238Y-38642462D01*
X3220320Y-38550613D01*
X3092633Y-38482363D01*
X2954085Y-38440335D01*
X2846105Y-38429700D01*
X2810000Y-38426144D01*
X2773895Y-38429700D01*
X2618746Y-38429700D01*
X4548147Y-36500300D01*
X4773895Y-36500300D01*
X4810000Y-36503856D01*
X4846105Y-36500300D01*
X4954085Y-36489665D01*
X5092633Y-36447637D01*
X5220320Y-36379387D01*
X5332238Y-36287538D01*
X5424087Y-36175620D01*
X5467472Y-36094452D01*
X5555000Y-36103072D01*
X6065000Y-36103072D01*
X6189482Y-36090812D01*
X6309180Y-36054502D01*
X6419494Y-35995537D01*
X6516185Y-35916185D01*
X6595537Y-35819494D01*
X6654502Y-35709180D01*
X6690812Y-35589482D01*
X6703072Y-35465000D01*
X6703072Y-34365000D01*
X6690812Y-34240518D01*
X6657702Y-34131368D01*
X6675000Y-34133072D01*
X6839250Y-34130000D01*
X6998000Y-33971250D01*
X6998000Y-33147000D01*
X6978000Y-33147000D01*
X6978000Y-32893000D01*
X6998000Y-32893000D01*
X6998000Y-32873000D01*
X7252000Y-32873000D01*
X7252000Y-32893000D01*
X7272000Y-32893000D01*
X7272000Y-33147000D01*
X7252000Y-33147000D01*
X7252000Y-33971250D01*
X7325101Y-34044351D01*
X7325100Y-36815695D01*
X7321544Y-36851800D01*
X7335735Y-36995885D01*
X7348484Y-37037913D01*
X7377763Y-37134432D01*
X7446013Y-37262119D01*
X7537862Y-37374037D01*
X7565908Y-37397054D01*
X9306346Y-39137493D01*
X9329362Y-39165538D01*
X9357406Y-39188553D01*
X9441280Y-39257387D01*
X9568966Y-39325637D01*
X9707515Y-39367665D01*
X9851600Y-39381856D01*
X9887705Y-39378300D01*
X10551354Y-39378300D01*
X10667998Y-39494944D01*
X10667998Y-39573748D01*
X10509250Y-39415000D01*
X10320000Y-39411928D01*
X10195518Y-39424188D01*
X10075820Y-39460498D01*
X9965506Y-39519463D01*
X9868815Y-39598815D01*
X9789463Y-39695506D01*
X9730498Y-39805820D01*
X9694188Y-39925518D01*
X9681928Y-40050000D01*
X9685000Y-40164250D01*
X9843750Y-40323000D01*
X10668000Y-40323000D01*
X10668000Y-40303000D01*
X10922000Y-40303000D01*
X10922000Y-40323000D01*
X10942000Y-40323000D01*
X10942000Y-40577000D01*
X10922000Y-40577000D01*
X10922000Y-40597000D01*
X10668000Y-40597000D01*
X10668000Y-40577000D01*
X9843750Y-40577000D01*
X9685000Y-40735750D01*
X9681928Y-40850000D01*
X9694188Y-40974482D01*
X9730498Y-41094180D01*
X9789463Y-41204494D01*
X9868815Y-41301185D01*
X9906863Y-41332410D01*
X9823169Y-41434392D01*
X9745722Y-41579284D01*
X9698031Y-41736500D01*
X9681928Y-41900000D01*
X9681928Y-42300000D01*
X9698031Y-42463500D01*
X9745722Y-42620716D01*
X9823169Y-42765608D01*
X9927394Y-42892606D01*
X10054392Y-42996831D01*
X10199284Y-43074278D01*
X10356500Y-43121969D01*
X10520000Y-43138072D01*
X11070000Y-43138072D01*
X11233500Y-43121969D01*
X11390716Y-43074278D01*
X11535608Y-42996831D01*
X11662606Y-42892606D01*
X11709882Y-42835000D01*
X11795116Y-42835000D01*
X11837885Y-42887115D01*
X11967725Y-42993671D01*
X12115858Y-43072850D01*
X12276592Y-43121608D01*
X12443750Y-43138072D01*
X12956250Y-43138072D01*
X13123408Y-43121608D01*
X13284142Y-43072850D01*
X13310001Y-43059028D01*
X13310001Y-45687711D01*
X13271091Y-46084545D01*
X13165220Y-46435206D01*
X12993257Y-46758623D01*
X12761748Y-47042482D01*
X12479514Y-47275965D01*
X12157304Y-47450184D01*
X11807385Y-47558502D01*
X11412557Y-47600000D01*
X8971957Y-47600000D01*
X9064494Y-47550537D01*
X9161185Y-47471185D01*
X9240537Y-47374494D01*
X9299502Y-47264180D01*
X9335812Y-47144482D01*
X9348072Y-47020000D01*
X9345000Y-46355750D01*
X9186250Y-46197000D01*
X7937000Y-46197000D01*
X7937000Y-46217000D01*
X7683000Y-46217000D01*
X7683000Y-46197000D01*
X5137000Y-46197000D01*
X5137000Y-46217000D01*
X4883000Y-46217000D01*
X4883000Y-46197000D01*
X2737000Y-46197000D01*
X2737000Y-46217000D01*
X2483000Y-46217000D01*
X2483000Y-46197000D01*
X-63000Y-46197000D01*
X-63000Y-46217000D01*
X-317000Y-46217000D01*
X-317000Y-46197000D01*
X-1566250Y-46197000D01*
X-1725000Y-46355750D01*
X-1728072Y-47020000D01*
X-1715812Y-47144482D01*
X-1679502Y-47264180D01*
X-1620537Y-47374494D01*
X-1541185Y-47471185D01*
X-1444494Y-47550537D01*
X-1351957Y-47600000D01*
X-3777721Y-47600000D01*
X-4174545Y-47561091D01*
X-4525206Y-47455220D01*
X-4848623Y-47283257D01*
X-5132482Y-47051748D01*
X-5365965Y-46769514D01*
X-5540184Y-46447304D01*
X-5648502Y-46097385D01*
X-5690000Y-45702557D01*
X-5690000Y-45549117D01*
X-5545000Y-45549117D01*
X-5545000Y-45890883D01*
X-5478325Y-46226081D01*
X-5347537Y-46541831D01*
X-5157663Y-46825998D01*
X-4915998Y-47067663D01*
X-4631831Y-47257537D01*
X-4316081Y-47388325D01*
X-3980883Y-47455000D01*
X-3639117Y-47455000D01*
X-3303919Y-47388325D01*
X-2988169Y-47257537D01*
X-2704002Y-47067663D01*
X-2462337Y-46825998D01*
X-2272463Y-46541831D01*
X-2141675Y-46226081D01*
X-2075000Y-45890883D01*
X-2075000Y-45549117D01*
X-2141675Y-45213919D01*
X-2272463Y-44898169D01*
X-2462337Y-44614002D01*
X-2704002Y-44372337D01*
X-2988169Y-44182463D01*
X-3303919Y-44051675D01*
X-3639117Y-43985000D01*
X-3980883Y-43985000D01*
X-4316081Y-44051675D01*
X-4631831Y-44182463D01*
X-4915998Y-44372337D01*
X-5157663Y-44614002D01*
X-5347537Y-44898169D01*
X-5478325Y-45213919D01*
X-5545000Y-45549117D01*
X-5690000Y-45549117D01*
X-5690000Y-35810295D01*
X-5681186Y-35854606D01*
X-5605050Y-36038414D01*
X-5494518Y-36203837D01*
X-5353837Y-36344518D01*
X-5188414Y-36455050D01*
X-5004606Y-36531186D01*
X-4809476Y-36570000D01*
X-4610524Y-36570000D01*
X-4544999Y-36556966D01*
X-4544999Y-36621928D01*
X-4610000Y-36621928D01*
X-4734482Y-36634188D01*
X-4854180Y-36670498D01*
X-4964494Y-36729463D01*
X-5061185Y-36808815D01*
X-5140537Y-36905506D01*
X-5199502Y-37015820D01*
X-5235812Y-37135518D01*
X-5248072Y-37260000D01*
X-5248072Y-38310000D01*
X-5235812Y-38434482D01*
X-5199502Y-38554180D01*
X-5140537Y-38664494D01*
X-5061185Y-38761185D01*
X-4964494Y-38840537D01*
X-4854180Y-38899502D01*
X-4734482Y-38935812D01*
X-4610000Y-38948072D01*
X-3010000Y-38948072D01*
X-2885518Y-38935812D01*
X-2765820Y-38899502D01*
X-2655506Y-38840537D01*
X-2558815Y-38761185D01*
X-2479463Y-38664494D01*
X-2420498Y-38554180D01*
X-2384188Y-38434482D01*
X-2371928Y-38310000D01*
X-2371928Y-37260000D01*
X-2384188Y-37135518D01*
X-2420498Y-37015820D01*
X-2479463Y-36905506D01*
X-2558815Y-36808815D01*
X-2655506Y-36729463D01*
X-2765820Y-36670498D01*
X-2885518Y-36634188D01*
X-3010000Y-36621928D01*
X-3075000Y-36621928D01*
X-3075000Y-36556966D01*
X-3009476Y-36570000D01*
X-2810524Y-36570000D01*
X-2615394Y-36531186D01*
X-2431586Y-36455050D01*
X-2266163Y-36344518D01*
X-2125482Y-36203837D01*
X-2014950Y-36038414D01*
X-1938814Y-35854606D01*
X-1900000Y-35659476D01*
X-1900000Y-35460524D01*
X-1938814Y-35265394D01*
X-2014950Y-35081586D01*
X-2125482Y-34916163D01*
X-2266163Y-34775482D01*
X-2431586Y-34664950D01*
X-2615394Y-34588814D01*
X-2810524Y-34550000D01*
X-3009476Y-34550000D01*
X-3204606Y-34588814D01*
X-3252608Y-34608697D01*
X-3264747Y-34593906D01*
X-3264750Y-34593903D01*
X-3287763Y-34565862D01*
X-3315803Y-34542850D01*
X-3362688Y-34495965D01*
X-3010000Y-34498072D01*
X-2885518Y-34485812D01*
X-2765820Y-34449502D01*
X-2655506Y-34390537D01*
X-2558815Y-34311185D01*
X-2479463Y-34214494D01*
X-2420498Y-34104180D01*
X-2384188Y-33984482D01*
X-2371928Y-33860000D01*
X-2375000Y-33620750D01*
X-2500750Y-33495000D01*
X-593072Y-33495000D01*
X-580812Y-33619482D01*
X-544502Y-33739180D01*
X-485537Y-33849494D01*
X-406185Y-33946185D01*
X-309494Y-34025537D01*
X-199180Y-34084502D01*
X-79482Y-34120812D01*
X45000Y-34133072D01*
X209250Y-34130000D01*
X368000Y-33971250D01*
X368000Y-33147000D01*
X-431250Y-33147000D01*
X-590000Y-33305750D01*
X-593072Y-33495000D01*
X-2500750Y-33495000D01*
X-2533750Y-33462000D01*
X-3683000Y-33462000D01*
X-3683000Y-33482000D01*
X-3937000Y-33482000D01*
X-3937000Y-33462000D01*
X-3957000Y-33462000D01*
X-3957000Y-33208000D01*
X-3937000Y-33208000D01*
X-3937000Y-33188000D01*
X-3683000Y-33188000D01*
X-3683000Y-33208000D01*
X-2533750Y-33208000D01*
X-2375000Y-33049250D01*
X-2371928Y-32810000D01*
X-2384188Y-32685518D01*
X-2420498Y-32565820D01*
X-2431626Y-32545000D01*
X-593072Y-32545000D01*
X-590000Y-32734250D01*
X-431250Y-32893000D01*
X368000Y-32893000D01*
X368000Y-32068750D01*
X209250Y-31910000D01*
X45000Y-31906928D01*
X-79482Y-31919188D01*
X-199180Y-31955498D01*
X-309494Y-32014463D01*
X-406185Y-32093815D01*
X-485537Y-32190506D01*
X-544502Y-32300820D01*
X-580812Y-32420518D01*
X-593072Y-32545000D01*
X-2431626Y-32545000D01*
X-2479463Y-32455506D01*
X-2558815Y-32358815D01*
X-2655506Y-32279463D01*
X-2765820Y-32220498D01*
X-2885518Y-32184188D01*
X-3010000Y-32171928D01*
X-3414699Y-32174346D01*
X-1214963Y-29974610D01*
X-1114637Y-30124759D01*
X-914759Y-30324637D01*
X-679727Y-30481680D01*
X-418574Y-30589853D01*
X-141335Y-30645000D01*
X141335Y-30645000D01*
X418574Y-30589853D01*
X679727Y-30481680D01*
X914759Y-30324637D01*
X1114637Y-30124759D01*
X1271680Y-29889727D01*
X1282312Y-29864059D01*
X2075001Y-30656748D01*
G04 #@! TA.AperFunction,Conductor*
D30*
G36*
X2075001Y-30656748D02*
G01*
X2075001Y-31906928D01*
X1820000Y-31906928D01*
X1651623Y-31923512D01*
X1489717Y-31972625D01*
X1343649Y-32050700D01*
X1299494Y-32014463D01*
X1189180Y-31955498D01*
X1069482Y-31919188D01*
X945000Y-31906928D01*
X780750Y-31910000D01*
X622000Y-32068750D01*
X622000Y-32893000D01*
X642000Y-32893000D01*
X642000Y-33147000D01*
X622000Y-33147000D01*
X622000Y-33971250D01*
X780750Y-34130000D01*
X945000Y-34133072D01*
X962298Y-34131368D01*
X929188Y-34240518D01*
X916928Y-34365000D01*
X916928Y-35465000D01*
X929188Y-35589482D01*
X965498Y-35709180D01*
X1024463Y-35819494D01*
X1103815Y-35916185D01*
X1200506Y-35995537D01*
X1310820Y-36054502D01*
X1430518Y-36090812D01*
X1555000Y-36103072D01*
X2065000Y-36103072D01*
X2189482Y-36090812D01*
X2309180Y-36054502D01*
X2310000Y-36054064D01*
X2310820Y-36054502D01*
X2430518Y-36090812D01*
X2555000Y-36103072D01*
X2866481Y-36103072D01*
X351908Y-38617646D01*
X323862Y-38640663D01*
X232013Y-38752581D01*
X163763Y-38880268D01*
X143195Y-38948072D01*
X121735Y-39018815D01*
X107544Y-39162900D01*
X111100Y-39199005D01*
X111101Y-41345085D01*
X107544Y-41381200D01*
X121735Y-41525285D01*
X160229Y-41652181D01*
X163764Y-41663833D01*
X232014Y-41791520D01*
X323863Y-41903438D01*
X351908Y-41926454D01*
X582998Y-42157544D01*
X582998Y-42243748D01*
X424250Y-42085000D01*
X-340000Y-42081928D01*
X-464482Y-42094188D01*
X-584180Y-42130498D01*
X-694494Y-42189463D01*
X-791185Y-42268815D01*
X-870537Y-42365506D01*
X-929502Y-42475820D01*
X-965812Y-42595518D01*
X-978072Y-42720000D01*
X-975000Y-43234250D01*
X-816250Y-43393000D01*
X583000Y-43393000D01*
X583000Y-43373000D01*
X837000Y-43373000D01*
X837000Y-43393000D01*
X857000Y-43393000D01*
X857000Y-43647000D01*
X837000Y-43647000D01*
X837000Y-43667000D01*
X583000Y-43667000D01*
X583000Y-43647000D01*
X-816250Y-43647000D01*
X-975000Y-43805750D01*
X-978072Y-44320000D01*
X-965812Y-44444482D01*
X-954247Y-44482607D01*
X-1090000Y-44481928D01*
X-1214482Y-44494188D01*
X-1334180Y-44530498D01*
X-1444494Y-44589463D01*
X-1541185Y-44668815D01*
X-1620537Y-44765506D01*
X-1679502Y-44875820D01*
X-1715812Y-44995518D01*
X-1728072Y-45120000D01*
X-1725000Y-45784250D01*
X-1566250Y-45943000D01*
X-317000Y-45943000D01*
X-317000Y-45923000D01*
X-63000Y-45923000D01*
X-63000Y-45943000D01*
X2483000Y-45943000D01*
X2483000Y-45923000D01*
X2737000Y-45923000D01*
X2737000Y-45943000D01*
X4883000Y-45943000D01*
X4883000Y-45923000D01*
X5137000Y-45923000D01*
X5137000Y-45943000D01*
X7683000Y-45943000D01*
X7683000Y-45923000D01*
X7937000Y-45923000D01*
X7937000Y-45943000D01*
X9186250Y-45943000D01*
X9345000Y-45784250D01*
X9346087Y-45549117D01*
X9695000Y-45549117D01*
X9695000Y-45890883D01*
X9761675Y-46226081D01*
X9892463Y-46541831D01*
X10082337Y-46825998D01*
X10324002Y-47067663D01*
X10608169Y-47257537D01*
X10923919Y-47388325D01*
X11259117Y-47455000D01*
X11600883Y-47455000D01*
X11936081Y-47388325D01*
X12251831Y-47257537D01*
X12535998Y-47067663D01*
X12777663Y-46825998D01*
X12967537Y-46541831D01*
X13098325Y-46226081D01*
X13165000Y-45890883D01*
X13165000Y-45549117D01*
X13098325Y-45213919D01*
X12967537Y-44898169D01*
X12777663Y-44614002D01*
X12535998Y-44372337D01*
X12251831Y-44182463D01*
X11936081Y-44051675D01*
X11600883Y-43985000D01*
X11259117Y-43985000D01*
X10923919Y-44051675D01*
X10608169Y-44182463D01*
X10324002Y-44372337D01*
X10082337Y-44614002D01*
X9892463Y-44898169D01*
X9761675Y-45213919D01*
X9695000Y-45549117D01*
X9346087Y-45549117D01*
X9348072Y-45120000D01*
X9335812Y-44995518D01*
X9299502Y-44875820D01*
X9240537Y-44765506D01*
X9161185Y-44668815D01*
X9064494Y-44589463D01*
X8954180Y-44530498D01*
X8834482Y-44494188D01*
X8710000Y-44481928D01*
X8574247Y-44482607D01*
X8585812Y-44444482D01*
X8598072Y-44320000D01*
X8595000Y-43805750D01*
X8436250Y-43647000D01*
X7037000Y-43647000D01*
X7037000Y-43667000D01*
X6783000Y-43667000D01*
X6783000Y-43647000D01*
X6763000Y-43647000D01*
X6763000Y-43393000D01*
X6783000Y-43393000D01*
X6783000Y-42243750D01*
X7037000Y-42243750D01*
X7037000Y-43393000D01*
X8436250Y-43393000D01*
X8595000Y-43234250D01*
X8598072Y-42720000D01*
X8585812Y-42595518D01*
X8549502Y-42475820D01*
X8490537Y-42365506D01*
X8411185Y-42268815D01*
X8314494Y-42189463D01*
X8204180Y-42130498D01*
X8084482Y-42094188D01*
X7960000Y-42081928D01*
X7195750Y-42085000D01*
X7037000Y-42243750D01*
X6783000Y-42243750D01*
X6624250Y-42085000D01*
X5860000Y-42081928D01*
X5735518Y-42094188D01*
X5615820Y-42130498D01*
X5585548Y-42146679D01*
X5563576Y-42134479D01*
X5444474Y-42096259D01*
X5341750Y-42085000D01*
X5183000Y-42243750D01*
X5183000Y-42356322D01*
X5111185Y-42268815D01*
X5014494Y-42189463D01*
X4946218Y-42152968D01*
X4878250Y-42085000D01*
X4787120Y-42094988D01*
X4784482Y-42094188D01*
X4660000Y-42081928D01*
X4462865Y-42081928D01*
X4424087Y-42009380D01*
X4355253Y-41925506D01*
X4332238Y-41897462D01*
X4304193Y-41874446D01*
X3576998Y-41147252D01*
X3683000Y-41041250D01*
X3683000Y-40715235D01*
X3690812Y-40689482D01*
X3703072Y-40565000D01*
X3703072Y-39465000D01*
X3916928Y-39465000D01*
X3916928Y-40565000D01*
X3929188Y-40689482D01*
X3937000Y-40715235D01*
X3937000Y-41041250D01*
X4095750Y-41200000D01*
X4200552Y-41188507D01*
X4308966Y-41153511D01*
X4310820Y-41154502D01*
X4430518Y-41190812D01*
X4555000Y-41203072D01*
X5065000Y-41203072D01*
X5189482Y-41190812D01*
X5309180Y-41154502D01*
X5310000Y-41154064D01*
X5310820Y-41154502D01*
X5430518Y-41190812D01*
X5555000Y-41203072D01*
X6065000Y-41203072D01*
X6189482Y-41190812D01*
X6309180Y-41154502D01*
X6419494Y-41095537D01*
X6516185Y-41016185D01*
X6595537Y-40919494D01*
X6654502Y-40809180D01*
X6690812Y-40689482D01*
X6703072Y-40565000D01*
X6703072Y-39465000D01*
X6690812Y-39340518D01*
X6654502Y-39220820D01*
X6595537Y-39110506D01*
X6516185Y-39013815D01*
X6419494Y-38934463D01*
X6309180Y-38875498D01*
X6189482Y-38839188D01*
X6065000Y-38826928D01*
X5555000Y-38826928D01*
X5430518Y-38839188D01*
X5310820Y-38875498D01*
X5310000Y-38875936D01*
X5309180Y-38875498D01*
X5189482Y-38839188D01*
X5065000Y-38826928D01*
X4555000Y-38826928D01*
X4430518Y-38839188D01*
X4310820Y-38875498D01*
X4308966Y-38876489D01*
X4200552Y-38841493D01*
X4095750Y-38830000D01*
X3937000Y-38988750D01*
X3937000Y-39314765D01*
X3929188Y-39340518D01*
X3916928Y-39465000D01*
X3703072Y-39465000D01*
X3690812Y-39340518D01*
X3683000Y-39314765D01*
X3683000Y-38988750D01*
X3524250Y-38830000D01*
X3467815Y-38836189D01*
X3424087Y-38754380D01*
X3332238Y-38642462D01*
X3220320Y-38550613D01*
X3092633Y-38482363D01*
X2954085Y-38440335D01*
X2846105Y-38429700D01*
X2810000Y-38426144D01*
X2773895Y-38429700D01*
X2618746Y-38429700D01*
X4548147Y-36500300D01*
X4773895Y-36500300D01*
X4810000Y-36503856D01*
X4846105Y-36500300D01*
X4954085Y-36489665D01*
X5092633Y-36447637D01*
X5220320Y-36379387D01*
X5332238Y-36287538D01*
X5424087Y-36175620D01*
X5467472Y-36094452D01*
X5555000Y-36103072D01*
X6065000Y-36103072D01*
X6189482Y-36090812D01*
X6309180Y-36054502D01*
X6419494Y-35995537D01*
X6516185Y-35916185D01*
X6595537Y-35819494D01*
X6654502Y-35709180D01*
X6690812Y-35589482D01*
X6703072Y-35465000D01*
X6703072Y-34365000D01*
X6690812Y-34240518D01*
X6657702Y-34131368D01*
X6675000Y-34133072D01*
X6839250Y-34130000D01*
X6998000Y-33971250D01*
X6998000Y-33147000D01*
X6978000Y-33147000D01*
X6978000Y-32893000D01*
X6998000Y-32893000D01*
X6998000Y-32873000D01*
X7252000Y-32873000D01*
X7252000Y-32893000D01*
X7272000Y-32893000D01*
X7272000Y-33147000D01*
X7252000Y-33147000D01*
X7252000Y-33971250D01*
X7325101Y-34044351D01*
X7325100Y-36815695D01*
X7321544Y-36851800D01*
X7335735Y-36995885D01*
X7348484Y-37037913D01*
X7377763Y-37134432D01*
X7446013Y-37262119D01*
X7537862Y-37374037D01*
X7565908Y-37397054D01*
X9306346Y-39137493D01*
X9329362Y-39165538D01*
X9357406Y-39188553D01*
X9441280Y-39257387D01*
X9568966Y-39325637D01*
X9707515Y-39367665D01*
X9851600Y-39381856D01*
X9887705Y-39378300D01*
X10551354Y-39378300D01*
X10667998Y-39494944D01*
X10667998Y-39573748D01*
X10509250Y-39415000D01*
X10320000Y-39411928D01*
X10195518Y-39424188D01*
X10075820Y-39460498D01*
X9965506Y-39519463D01*
X9868815Y-39598815D01*
X9789463Y-39695506D01*
X9730498Y-39805820D01*
X9694188Y-39925518D01*
X9681928Y-40050000D01*
X9685000Y-40164250D01*
X9843750Y-40323000D01*
X10668000Y-40323000D01*
X10668000Y-40303000D01*
X10922000Y-40303000D01*
X10922000Y-40323000D01*
X10942000Y-40323000D01*
X10942000Y-40577000D01*
X10922000Y-40577000D01*
X10922000Y-40597000D01*
X10668000Y-40597000D01*
X10668000Y-40577000D01*
X9843750Y-40577000D01*
X9685000Y-40735750D01*
X9681928Y-40850000D01*
X9694188Y-40974482D01*
X9730498Y-41094180D01*
X9789463Y-41204494D01*
X9868815Y-41301185D01*
X9906863Y-41332410D01*
X9823169Y-41434392D01*
X9745722Y-41579284D01*
X9698031Y-41736500D01*
X9681928Y-41900000D01*
X9681928Y-42300000D01*
X9698031Y-42463500D01*
X9745722Y-42620716D01*
X9823169Y-42765608D01*
X9927394Y-42892606D01*
X10054392Y-42996831D01*
X10199284Y-43074278D01*
X10356500Y-43121969D01*
X10520000Y-43138072D01*
X11070000Y-43138072D01*
X11233500Y-43121969D01*
X11390716Y-43074278D01*
X11535608Y-42996831D01*
X11662606Y-42892606D01*
X11709882Y-42835000D01*
X11795116Y-42835000D01*
X11837885Y-42887115D01*
X11967725Y-42993671D01*
X12115858Y-43072850D01*
X12276592Y-43121608D01*
X12443750Y-43138072D01*
X12956250Y-43138072D01*
X13123408Y-43121608D01*
X13284142Y-43072850D01*
X13310001Y-43059028D01*
X13310001Y-45687711D01*
X13271091Y-46084545D01*
X13165220Y-46435206D01*
X12993257Y-46758623D01*
X12761748Y-47042482D01*
X12479514Y-47275965D01*
X12157304Y-47450184D01*
X11807385Y-47558502D01*
X11412557Y-47600000D01*
X8971957Y-47600000D01*
X9064494Y-47550537D01*
X9161185Y-47471185D01*
X9240537Y-47374494D01*
X9299502Y-47264180D01*
X9335812Y-47144482D01*
X9348072Y-47020000D01*
X9345000Y-46355750D01*
X9186250Y-46197000D01*
X7937000Y-46197000D01*
X7937000Y-46217000D01*
X7683000Y-46217000D01*
X7683000Y-46197000D01*
X5137000Y-46197000D01*
X5137000Y-46217000D01*
X4883000Y-46217000D01*
X4883000Y-46197000D01*
X2737000Y-46197000D01*
X2737000Y-46217000D01*
X2483000Y-46217000D01*
X2483000Y-46197000D01*
X-63000Y-46197000D01*
X-63000Y-46217000D01*
X-317000Y-46217000D01*
X-317000Y-46197000D01*
X-1566250Y-46197000D01*
X-1725000Y-46355750D01*
X-1728072Y-47020000D01*
X-1715812Y-47144482D01*
X-1679502Y-47264180D01*
X-1620537Y-47374494D01*
X-1541185Y-47471185D01*
X-1444494Y-47550537D01*
X-1351957Y-47600000D01*
X-3777721Y-47600000D01*
X-4174545Y-47561091D01*
X-4525206Y-47455220D01*
X-4848623Y-47283257D01*
X-5132482Y-47051748D01*
X-5365965Y-46769514D01*
X-5540184Y-46447304D01*
X-5648502Y-46097385D01*
X-5690000Y-45702557D01*
X-5690000Y-45549117D01*
X-5545000Y-45549117D01*
X-5545000Y-45890883D01*
X-5478325Y-46226081D01*
X-5347537Y-46541831D01*
X-5157663Y-46825998D01*
X-4915998Y-47067663D01*
X-4631831Y-47257537D01*
X-4316081Y-47388325D01*
X-3980883Y-47455000D01*
X-3639117Y-47455000D01*
X-3303919Y-47388325D01*
X-2988169Y-47257537D01*
X-2704002Y-47067663D01*
X-2462337Y-46825998D01*
X-2272463Y-46541831D01*
X-2141675Y-46226081D01*
X-2075000Y-45890883D01*
X-2075000Y-45549117D01*
X-2141675Y-45213919D01*
X-2272463Y-44898169D01*
X-2462337Y-44614002D01*
X-2704002Y-44372337D01*
X-2988169Y-44182463D01*
X-3303919Y-44051675D01*
X-3639117Y-43985000D01*
X-3980883Y-43985000D01*
X-4316081Y-44051675D01*
X-4631831Y-44182463D01*
X-4915998Y-44372337D01*
X-5157663Y-44614002D01*
X-5347537Y-44898169D01*
X-5478325Y-45213919D01*
X-5545000Y-45549117D01*
X-5690000Y-45549117D01*
X-5690000Y-35810295D01*
X-5681186Y-35854606D01*
X-5605050Y-36038414D01*
X-5494518Y-36203837D01*
X-5353837Y-36344518D01*
X-5188414Y-36455050D01*
X-5004606Y-36531186D01*
X-4809476Y-36570000D01*
X-4610524Y-36570000D01*
X-4544999Y-36556966D01*
X-4544999Y-36621928D01*
X-4610000Y-36621928D01*
X-4734482Y-36634188D01*
X-4854180Y-36670498D01*
X-4964494Y-36729463D01*
X-5061185Y-36808815D01*
X-5140537Y-36905506D01*
X-5199502Y-37015820D01*
X-5235812Y-37135518D01*
X-5248072Y-37260000D01*
X-5248072Y-38310000D01*
X-5235812Y-38434482D01*
X-5199502Y-38554180D01*
X-5140537Y-38664494D01*
X-5061185Y-38761185D01*
X-4964494Y-38840537D01*
X-4854180Y-38899502D01*
X-4734482Y-38935812D01*
X-4610000Y-38948072D01*
X-3010000Y-38948072D01*
X-2885518Y-38935812D01*
X-2765820Y-38899502D01*
X-2655506Y-38840537D01*
X-2558815Y-38761185D01*
X-2479463Y-38664494D01*
X-2420498Y-38554180D01*
X-2384188Y-38434482D01*
X-2371928Y-38310000D01*
X-2371928Y-37260000D01*
X-2384188Y-37135518D01*
X-2420498Y-37015820D01*
X-2479463Y-36905506D01*
X-2558815Y-36808815D01*
X-2655506Y-36729463D01*
X-2765820Y-36670498D01*
X-2885518Y-36634188D01*
X-3010000Y-36621928D01*
X-3075000Y-36621928D01*
X-3075000Y-36556966D01*
X-3009476Y-36570000D01*
X-2810524Y-36570000D01*
X-2615394Y-36531186D01*
X-2431586Y-36455050D01*
X-2266163Y-36344518D01*
X-2125482Y-36203837D01*
X-2014950Y-36038414D01*
X-1938814Y-35854606D01*
X-1900000Y-35659476D01*
X-1900000Y-35460524D01*
X-1938814Y-35265394D01*
X-2014950Y-35081586D01*
X-2125482Y-34916163D01*
X-2266163Y-34775482D01*
X-2431586Y-34664950D01*
X-2615394Y-34588814D01*
X-2810524Y-34550000D01*
X-3009476Y-34550000D01*
X-3204606Y-34588814D01*
X-3252608Y-34608697D01*
X-3264747Y-34593906D01*
X-3264750Y-34593903D01*
X-3287763Y-34565862D01*
X-3315803Y-34542850D01*
X-3362688Y-34495965D01*
X-3010000Y-34498072D01*
X-2885518Y-34485812D01*
X-2765820Y-34449502D01*
X-2655506Y-34390537D01*
X-2558815Y-34311185D01*
X-2479463Y-34214494D01*
X-2420498Y-34104180D01*
X-2384188Y-33984482D01*
X-2371928Y-33860000D01*
X-2375000Y-33620750D01*
X-2500750Y-33495000D01*
X-593072Y-33495000D01*
X-580812Y-33619482D01*
X-544502Y-33739180D01*
X-485537Y-33849494D01*
X-406185Y-33946185D01*
X-309494Y-34025537D01*
X-199180Y-34084502D01*
X-79482Y-34120812D01*
X45000Y-34133072D01*
X209250Y-34130000D01*
X368000Y-33971250D01*
X368000Y-33147000D01*
X-431250Y-33147000D01*
X-590000Y-33305750D01*
X-593072Y-33495000D01*
X-2500750Y-33495000D01*
X-2533750Y-33462000D01*
X-3683000Y-33462000D01*
X-3683000Y-33482000D01*
X-3937000Y-33482000D01*
X-3937000Y-33462000D01*
X-3957000Y-33462000D01*
X-3957000Y-33208000D01*
X-3937000Y-33208000D01*
X-3937000Y-33188000D01*
X-3683000Y-33188000D01*
X-3683000Y-33208000D01*
X-2533750Y-33208000D01*
X-2375000Y-33049250D01*
X-2371928Y-32810000D01*
X-2384188Y-32685518D01*
X-2420498Y-32565820D01*
X-2431626Y-32545000D01*
X-593072Y-32545000D01*
X-590000Y-32734250D01*
X-431250Y-32893000D01*
X368000Y-32893000D01*
X368000Y-32068750D01*
X209250Y-31910000D01*
X45000Y-31906928D01*
X-79482Y-31919188D01*
X-199180Y-31955498D01*
X-309494Y-32014463D01*
X-406185Y-32093815D01*
X-485537Y-32190506D01*
X-544502Y-32300820D01*
X-580812Y-32420518D01*
X-593072Y-32545000D01*
X-2431626Y-32545000D01*
X-2479463Y-32455506D01*
X-2558815Y-32358815D01*
X-2655506Y-32279463D01*
X-2765820Y-32220498D01*
X-2885518Y-32184188D01*
X-3010000Y-32171928D01*
X-3414699Y-32174346D01*
X-1214963Y-29974610D01*
X-1114637Y-30124759D01*
X-914759Y-30324637D01*
X-679727Y-30481680D01*
X-418574Y-30589853D01*
X-141335Y-30645000D01*
X141335Y-30645000D01*
X418574Y-30589853D01*
X679727Y-30481680D01*
X914759Y-30324637D01*
X1114637Y-30124759D01*
X1271680Y-29889727D01*
X1282312Y-29864059D01*
X2075001Y-30656748D01*
G37*
G04 #@! TD.AperFunction*
D29*
X5183000Y-44546250D02*
X5208750Y-44572000D01*
X5137002Y-44643748D01*
X5137002Y-44489727D01*
X5183000Y-44433678D01*
X5183000Y-44546250D01*
G04 #@! TA.AperFunction,Conductor*
D30*
G36*
X5183000Y-44546250D02*
G01*
X5208750Y-44572000D01*
X5137002Y-44643748D01*
X5137002Y-44489727D01*
X5183000Y-44433678D01*
X5183000Y-44546250D01*
G37*
G04 #@! TD.AperFunction*
D29*
X11807426Y-41275000D02*
X11733565Y-41365000D01*
X11709882Y-41365000D01*
X11683137Y-41332410D01*
X11721185Y-41301185D01*
X11775050Y-41235550D01*
X11807426Y-41275000D01*
G04 #@! TA.AperFunction,Conductor*
D30*
G36*
X11807426Y-41275000D02*
G01*
X11733565Y-41365000D01*
X11709882Y-41365000D01*
X11683137Y-41332410D01*
X11721185Y-41301185D01*
X11775050Y-41235550D01*
X11807426Y-41275000D01*
G37*
G04 #@! TD.AperFunction*
D29*
X11384010Y-26103411D02*
X11546525Y-26346632D01*
X11678380Y-26478487D01*
X11605820Y-26500498D01*
X11495506Y-26559463D01*
X11398815Y-26638815D01*
X11319463Y-26735506D01*
X11260498Y-26845820D01*
X11224188Y-26965518D01*
X11211928Y-27090000D01*
X11211928Y-28790000D01*
X11224188Y-28914482D01*
X11260498Y-29034180D01*
X11319463Y-29144494D01*
X11398815Y-29241185D01*
X11495506Y-29320537D01*
X11605820Y-29379502D01*
X11725518Y-29415812D01*
X11850000Y-29428072D01*
X13310001Y-29428072D01*
X13310001Y-35309709D01*
X13301186Y-35265394D01*
X13225050Y-35081586D01*
X13114518Y-34916163D01*
X12973837Y-34775482D01*
X12808414Y-34664950D01*
X12624606Y-34588814D01*
X12429476Y-34550000D01*
X12230524Y-34550000D01*
X12035394Y-34588814D01*
X11851586Y-34664950D01*
X11686163Y-34775482D01*
X11545482Y-34916163D01*
X11434950Y-35081586D01*
X11430000Y-35093536D01*
X11425050Y-35081586D01*
X11314518Y-34916163D01*
X11173837Y-34775482D01*
X11008414Y-34664950D01*
X10824606Y-34588814D01*
X10629476Y-34550000D01*
X10430524Y-34550000D01*
X10410100Y-34554063D01*
X10410100Y-34456867D01*
X10505518Y-34485812D01*
X10630000Y-34498072D01*
X12230000Y-34498072D01*
X12354482Y-34485812D01*
X12474180Y-34449502D01*
X12584494Y-34390537D01*
X12681185Y-34311185D01*
X12760537Y-34214494D01*
X12819502Y-34104180D01*
X12855812Y-33984482D01*
X12868072Y-33860000D01*
X12868072Y-32810000D01*
X12855812Y-32685518D01*
X12819502Y-32565820D01*
X12760537Y-32455506D01*
X12681185Y-32358815D01*
X12638170Y-32323514D01*
X12703637Y-32201033D01*
X12708612Y-32184634D01*
X12775716Y-32164278D01*
X12920608Y-32086831D01*
X13047606Y-31982606D01*
X13151831Y-31855608D01*
X13229278Y-31710716D01*
X13276969Y-31553500D01*
X13293072Y-31390000D01*
X13293072Y-30840000D01*
X13276969Y-30676500D01*
X13229278Y-30519284D01*
X13151831Y-30374392D01*
X13047606Y-30247394D01*
X12920608Y-30143169D01*
X12775716Y-30065722D01*
X12618500Y-30018031D01*
X12455000Y-30001928D01*
X12055000Y-30001928D01*
X11957297Y-30011551D01*
X11111600Y-29165854D01*
X11111600Y-26291211D01*
X11180537Y-26222274D01*
X11293805Y-26052756D01*
X11328417Y-25969196D01*
X11384010Y-26103411D01*
G04 #@! TA.AperFunction,Conductor*
D30*
G36*
X11384010Y-26103411D02*
G01*
X11546525Y-26346632D01*
X11678380Y-26478487D01*
X11605820Y-26500498D01*
X11495506Y-26559463D01*
X11398815Y-26638815D01*
X11319463Y-26735506D01*
X11260498Y-26845820D01*
X11224188Y-26965518D01*
X11211928Y-27090000D01*
X11211928Y-28790000D01*
X11224188Y-28914482D01*
X11260498Y-29034180D01*
X11319463Y-29144494D01*
X11398815Y-29241185D01*
X11495506Y-29320537D01*
X11605820Y-29379502D01*
X11725518Y-29415812D01*
X11850000Y-29428072D01*
X13310001Y-29428072D01*
X13310001Y-35309709D01*
X13301186Y-35265394D01*
X13225050Y-35081586D01*
X13114518Y-34916163D01*
X12973837Y-34775482D01*
X12808414Y-34664950D01*
X12624606Y-34588814D01*
X12429476Y-34550000D01*
X12230524Y-34550000D01*
X12035394Y-34588814D01*
X11851586Y-34664950D01*
X11686163Y-34775482D01*
X11545482Y-34916163D01*
X11434950Y-35081586D01*
X11430000Y-35093536D01*
X11425050Y-35081586D01*
X11314518Y-34916163D01*
X11173837Y-34775482D01*
X11008414Y-34664950D01*
X10824606Y-34588814D01*
X10629476Y-34550000D01*
X10430524Y-34550000D01*
X10410100Y-34554063D01*
X10410100Y-34456867D01*
X10505518Y-34485812D01*
X10630000Y-34498072D01*
X12230000Y-34498072D01*
X12354482Y-34485812D01*
X12474180Y-34449502D01*
X12584494Y-34390537D01*
X12681185Y-34311185D01*
X12760537Y-34214494D01*
X12819502Y-34104180D01*
X12855812Y-33984482D01*
X12868072Y-33860000D01*
X12868072Y-32810000D01*
X12855812Y-32685518D01*
X12819502Y-32565820D01*
X12760537Y-32455506D01*
X12681185Y-32358815D01*
X12638170Y-32323514D01*
X12703637Y-32201033D01*
X12708612Y-32184634D01*
X12775716Y-32164278D01*
X12920608Y-32086831D01*
X13047606Y-31982606D01*
X13151831Y-31855608D01*
X13229278Y-31710716D01*
X13276969Y-31553500D01*
X13293072Y-31390000D01*
X13293072Y-30840000D01*
X13276969Y-30676500D01*
X13229278Y-30519284D01*
X13151831Y-30374392D01*
X13047606Y-30247394D01*
X12920608Y-30143169D01*
X12775716Y-30065722D01*
X12618500Y-30018031D01*
X12455000Y-30001928D01*
X12055000Y-30001928D01*
X11957297Y-30011551D01*
X11111600Y-29165854D01*
X11111600Y-26291211D01*
X11180537Y-26222274D01*
X11293805Y-26052756D01*
X11328417Y-25969196D01*
X11384010Y-26103411D01*
G37*
G04 #@! TD.AperFunction*
D29*
X6505363Y-17424759D02*
X6705241Y-17624637D01*
X6937759Y-17780000D01*
X6705241Y-17935363D01*
X6505363Y-18135241D01*
X6348320Y-18370273D01*
X6240147Y-18631426D01*
X6185000Y-18908665D01*
X6185000Y-19191335D01*
X6240147Y-19468574D01*
X6348320Y-19729727D01*
X6505363Y-19964759D01*
X6705241Y-20164637D01*
X6937759Y-20320000D01*
X6705241Y-20475363D01*
X6505363Y-20675241D01*
X6348320Y-20910273D01*
X6240147Y-21171426D01*
X6185000Y-21448665D01*
X6185000Y-21731335D01*
X6240147Y-22008574D01*
X6348320Y-22269727D01*
X6505363Y-22504759D01*
X6705241Y-22704637D01*
X6937759Y-22860000D01*
X6705241Y-23015363D01*
X6505363Y-23215241D01*
X6348320Y-23450273D01*
X6240147Y-23711426D01*
X6185000Y-23988665D01*
X6185000Y-24271335D01*
X6240147Y-24548574D01*
X6348320Y-24809727D01*
X6505363Y-25044759D01*
X6521729Y-25061125D01*
X6025508Y-25557346D01*
X5997463Y-25580362D01*
X5905614Y-25692280D01*
X5871961Y-25755241D01*
X5837364Y-25819967D01*
X5795335Y-25958515D01*
X5781144Y-26102600D01*
X5784701Y-26138715D01*
X5784700Y-30558595D01*
X5781144Y-30594700D01*
X5784700Y-30630804D01*
X5795335Y-30738784D01*
X5837363Y-30877332D01*
X5905613Y-31005019D01*
X5997462Y-31116937D01*
X6025508Y-31139954D01*
X6794721Y-31909167D01*
X6675000Y-31906928D01*
X6550518Y-31919188D01*
X6430820Y-31955498D01*
X6320506Y-32014463D01*
X6276351Y-32050700D01*
X6130283Y-31972625D01*
X5968377Y-31923512D01*
X5800000Y-31906928D01*
X5350000Y-31906928D01*
X5181623Y-31923512D01*
X5019717Y-31972625D01*
X4870503Y-32052382D01*
X4739716Y-32159716D01*
X4632382Y-32290503D01*
X4552625Y-32439717D01*
X4545000Y-32464854D01*
X4545000Y-28848405D01*
X4548556Y-28812300D01*
X4534365Y-28668214D01*
X4494824Y-28537867D01*
X4492337Y-28529667D01*
X4424087Y-28401980D01*
X4332238Y-28290062D01*
X4304193Y-28267046D01*
X1098271Y-25061125D01*
X1114637Y-25044759D01*
X1271680Y-24809727D01*
X1379853Y-24548574D01*
X1435000Y-24271335D01*
X1435000Y-23988665D01*
X1379853Y-23711426D01*
X1271680Y-23450273D01*
X1114637Y-23215241D01*
X914759Y-23015363D01*
X710805Y-22879086D01*
X724365Y-22834385D01*
X724632Y-22831676D01*
X914759Y-22704637D01*
X1114637Y-22504759D01*
X1271680Y-22269727D01*
X1379853Y-22008574D01*
X1435000Y-21731335D01*
X1435000Y-21448665D01*
X1379853Y-21171426D01*
X1271680Y-20910273D01*
X1114637Y-20675241D01*
X914759Y-20475363D01*
X682241Y-20320000D01*
X914759Y-20164637D01*
X1114637Y-19964759D01*
X1234748Y-19785000D01*
X3773895Y-19785000D01*
X3810000Y-19788556D01*
X3846105Y-19785000D01*
X3954085Y-19774365D01*
X4092633Y-19732337D01*
X4220320Y-19664087D01*
X4332238Y-19572238D01*
X4355259Y-19544188D01*
X6493076Y-17406371D01*
X6505363Y-17424759D01*
G04 #@! TA.AperFunction,Conductor*
D30*
G36*
X6505363Y-17424759D02*
G01*
X6705241Y-17624637D01*
X6937759Y-17780000D01*
X6705241Y-17935363D01*
X6505363Y-18135241D01*
X6348320Y-18370273D01*
X6240147Y-18631426D01*
X6185000Y-18908665D01*
X6185000Y-19191335D01*
X6240147Y-19468574D01*
X6348320Y-19729727D01*
X6505363Y-19964759D01*
X6705241Y-20164637D01*
X6937759Y-20320000D01*
X6705241Y-20475363D01*
X6505363Y-20675241D01*
X6348320Y-20910273D01*
X6240147Y-21171426D01*
X6185000Y-21448665D01*
X6185000Y-21731335D01*
X6240147Y-22008574D01*
X6348320Y-22269727D01*
X6505363Y-22504759D01*
X6705241Y-22704637D01*
X6937759Y-22860000D01*
X6705241Y-23015363D01*
X6505363Y-23215241D01*
X6348320Y-23450273D01*
X6240147Y-23711426D01*
X6185000Y-23988665D01*
X6185000Y-24271335D01*
X6240147Y-24548574D01*
X6348320Y-24809727D01*
X6505363Y-25044759D01*
X6521729Y-25061125D01*
X6025508Y-25557346D01*
X5997463Y-25580362D01*
X5905614Y-25692280D01*
X5871961Y-25755241D01*
X5837364Y-25819967D01*
X5795335Y-25958515D01*
X5781144Y-26102600D01*
X5784701Y-26138715D01*
X5784700Y-30558595D01*
X5781144Y-30594700D01*
X5784700Y-30630804D01*
X5795335Y-30738784D01*
X5837363Y-30877332D01*
X5905613Y-31005019D01*
X5997462Y-31116937D01*
X6025508Y-31139954D01*
X6794721Y-31909167D01*
X6675000Y-31906928D01*
X6550518Y-31919188D01*
X6430820Y-31955498D01*
X6320506Y-32014463D01*
X6276351Y-32050700D01*
X6130283Y-31972625D01*
X5968377Y-31923512D01*
X5800000Y-31906928D01*
X5350000Y-31906928D01*
X5181623Y-31923512D01*
X5019717Y-31972625D01*
X4870503Y-32052382D01*
X4739716Y-32159716D01*
X4632382Y-32290503D01*
X4552625Y-32439717D01*
X4545000Y-32464854D01*
X4545000Y-28848405D01*
X4548556Y-28812300D01*
X4534365Y-28668214D01*
X4494824Y-28537867D01*
X4492337Y-28529667D01*
X4424087Y-28401980D01*
X4332238Y-28290062D01*
X4304193Y-28267046D01*
X1098271Y-25061125D01*
X1114637Y-25044759D01*
X1271680Y-24809727D01*
X1379853Y-24548574D01*
X1435000Y-24271335D01*
X1435000Y-23988665D01*
X1379853Y-23711426D01*
X1271680Y-23450273D01*
X1114637Y-23215241D01*
X914759Y-23015363D01*
X710805Y-22879086D01*
X724365Y-22834385D01*
X724632Y-22831676D01*
X914759Y-22704637D01*
X1114637Y-22504759D01*
X1271680Y-22269727D01*
X1379853Y-22008574D01*
X1435000Y-21731335D01*
X1435000Y-21448665D01*
X1379853Y-21171426D01*
X1271680Y-20910273D01*
X1114637Y-20675241D01*
X914759Y-20475363D01*
X682241Y-20320000D01*
X914759Y-20164637D01*
X1114637Y-19964759D01*
X1234748Y-19785000D01*
X3773895Y-19785000D01*
X3810000Y-19788556D01*
X3846105Y-19785000D01*
X3954085Y-19774365D01*
X4092633Y-19732337D01*
X4220320Y-19664087D01*
X4332238Y-19572238D01*
X4355259Y-19544188D01*
X6493076Y-17406371D01*
X6505363Y-17424759D01*
G37*
G04 #@! TD.AperFunction*
D29*
X10732000Y-30988000D02*
X10752000Y-30988000D01*
X10752000Y-31242000D01*
X10732000Y-31242000D01*
X10732000Y-31262000D01*
X10478000Y-31262000D01*
X10478000Y-31242000D01*
X10458000Y-31242000D01*
X10458000Y-30988000D01*
X10478000Y-30988000D01*
X10478000Y-30968000D01*
X10732000Y-30968000D01*
X10732000Y-30988000D01*
G04 #@! TA.AperFunction,Conductor*
D30*
G36*
X10732000Y-30988000D02*
G01*
X10752000Y-30988000D01*
X10752000Y-31242000D01*
X10732000Y-31242000D01*
X10732000Y-31262000D01*
X10478000Y-31262000D01*
X10478000Y-31242000D01*
X10458000Y-31242000D01*
X10458000Y-30988000D01*
X10478000Y-30988000D01*
X10478000Y-30968000D01*
X10732000Y-30968000D01*
X10732000Y-30988000D01*
G37*
G04 #@! TD.AperFunction*
D29*
X7559717Y-3587375D02*
X7721623Y-3636488D01*
X7890000Y-3653072D01*
X8340000Y-3653072D01*
X8508377Y-3636488D01*
X8630001Y-3599594D01*
X8630000Y-12154172D01*
X8624994Y-12205000D01*
X8630000Y-12255828D01*
X8630000Y-12255837D01*
X8644976Y-12407894D01*
X8704159Y-12602992D01*
X8800266Y-12782797D01*
X8929604Y-12940396D01*
X8969097Y-12972807D01*
X11215000Y-15218711D01*
X11215000Y-15386260D01*
X11272068Y-15673158D01*
X11384010Y-15943411D01*
X11546525Y-16186632D01*
X11753368Y-16393475D01*
X11927760Y-16510000D01*
X11753368Y-16626525D01*
X11546525Y-16833368D01*
X11384010Y-17076589D01*
X11272068Y-17346842D01*
X11215000Y-17633740D01*
X11215000Y-17801289D01*
X8679197Y-20337093D01*
X8639704Y-20369504D01*
X8544683Y-20485287D01*
X8534759Y-20475363D01*
X8302241Y-20320000D01*
X8534759Y-20164637D01*
X8734637Y-19964759D01*
X8891680Y-19729727D01*
X8999853Y-19468574D01*
X9055000Y-19191335D01*
X9055000Y-18908665D01*
X8999853Y-18631426D01*
X8891680Y-18370273D01*
X8734637Y-18135241D01*
X8534759Y-17935363D01*
X8302241Y-17780000D01*
X8534759Y-17624637D01*
X8734637Y-17424759D01*
X8891680Y-17189727D01*
X8999853Y-16928574D01*
X9055000Y-16651335D01*
X9055000Y-16368665D01*
X8999853Y-16091426D01*
X8891680Y-15830273D01*
X8734637Y-15595241D01*
X8534759Y-15395363D01*
X8299727Y-15238320D01*
X8289135Y-15233933D01*
X8475131Y-15122385D01*
X8683519Y-14933414D01*
X8851037Y-14707420D01*
X8971246Y-14453087D01*
X9011904Y-14319039D01*
X8889915Y-14097000D01*
X7747000Y-14097000D01*
X7747000Y-14117000D01*
X7493000Y-14117000D01*
X7493000Y-14097000D01*
X7473000Y-14097000D01*
X7473000Y-13843000D01*
X7493000Y-13843000D01*
X7493000Y-12699376D01*
X7747000Y-12699376D01*
X7747000Y-13843000D01*
X8889915Y-13843000D01*
X9011904Y-13620961D01*
X8971246Y-13486913D01*
X8851037Y-13232580D01*
X8683519Y-13006586D01*
X8475131Y-12817615D01*
X8233881Y-12672930D01*
X7969040Y-12578091D01*
X7747000Y-12699376D01*
X7493000Y-12699376D01*
X7270960Y-12578091D01*
X7085000Y-12644683D01*
X7085000Y-10003685D01*
X7225799Y-9862886D01*
X7377371Y-9636043D01*
X7481775Y-9383989D01*
X7535000Y-9116411D01*
X7535000Y-8843589D01*
X7481775Y-8576011D01*
X7377371Y-8323957D01*
X7225799Y-8097114D01*
X7225000Y-8096315D01*
X7225000Y-6022585D01*
X7325284Y-5940284D01*
X7432618Y-5809497D01*
X7512375Y-5660283D01*
X7561488Y-5498377D01*
X7578072Y-5330000D01*
X7578072Y-4830000D01*
X7561488Y-4661623D01*
X7512375Y-4499717D01*
X7432618Y-4350503D01*
X7325284Y-4219716D01*
X7194497Y-4112382D01*
X7045283Y-4032625D01*
X6883377Y-3983512D01*
X6715000Y-3966928D01*
X6265000Y-3966928D01*
X6096623Y-3983512D01*
X5934717Y-4032625D01*
X5788649Y-4110700D01*
X5744494Y-4074463D01*
X5634180Y-4015498D01*
X5514482Y-3979188D01*
X5390000Y-3966928D01*
X5366407Y-3967369D01*
X5413867Y-3957929D01*
X5464695Y-3952923D01*
X5513568Y-3938097D01*
X5563698Y-3928126D01*
X5610922Y-3908565D01*
X5659793Y-3893740D01*
X5704836Y-3869664D01*
X5752056Y-3850105D01*
X5794548Y-3821713D01*
X5839597Y-3797634D01*
X5879083Y-3765229D01*
X5921574Y-3736837D01*
X5957716Y-3700695D01*
X5997195Y-3668295D01*
X6029595Y-3628816D01*
X6065737Y-3592674D01*
X6065739Y-3592671D01*
X6083410Y-3575000D01*
X7536565Y-3575000D01*
X7559717Y-3587375D01*
G04 #@! TA.AperFunction,Conductor*
D30*
G36*
X7559717Y-3587375D02*
G01*
X7721623Y-3636488D01*
X7890000Y-3653072D01*
X8340000Y-3653072D01*
X8508377Y-3636488D01*
X8630001Y-3599594D01*
X8630000Y-12154172D01*
X8624994Y-12205000D01*
X8630000Y-12255828D01*
X8630000Y-12255837D01*
X8644976Y-12407894D01*
X8704159Y-12602992D01*
X8800266Y-12782797D01*
X8929604Y-12940396D01*
X8969097Y-12972807D01*
X11215000Y-15218711D01*
X11215000Y-15386260D01*
X11272068Y-15673158D01*
X11384010Y-15943411D01*
X11546525Y-16186632D01*
X11753368Y-16393475D01*
X11927760Y-16510000D01*
X11753368Y-16626525D01*
X11546525Y-16833368D01*
X11384010Y-17076589D01*
X11272068Y-17346842D01*
X11215000Y-17633740D01*
X11215000Y-17801289D01*
X8679197Y-20337093D01*
X8639704Y-20369504D01*
X8544683Y-20485287D01*
X8534759Y-20475363D01*
X8302241Y-20320000D01*
X8534759Y-20164637D01*
X8734637Y-19964759D01*
X8891680Y-19729727D01*
X8999853Y-19468574D01*
X9055000Y-19191335D01*
X9055000Y-18908665D01*
X8999853Y-18631426D01*
X8891680Y-18370273D01*
X8734637Y-18135241D01*
X8534759Y-17935363D01*
X8302241Y-17780000D01*
X8534759Y-17624637D01*
X8734637Y-17424759D01*
X8891680Y-17189727D01*
X8999853Y-16928574D01*
X9055000Y-16651335D01*
X9055000Y-16368665D01*
X8999853Y-16091426D01*
X8891680Y-15830273D01*
X8734637Y-15595241D01*
X8534759Y-15395363D01*
X8299727Y-15238320D01*
X8289135Y-15233933D01*
X8475131Y-15122385D01*
X8683519Y-14933414D01*
X8851037Y-14707420D01*
X8971246Y-14453087D01*
X9011904Y-14319039D01*
X8889915Y-14097000D01*
X7747000Y-14097000D01*
X7747000Y-14117000D01*
X7493000Y-14117000D01*
X7493000Y-14097000D01*
X7473000Y-14097000D01*
X7473000Y-13843000D01*
X7493000Y-13843000D01*
X7493000Y-12699376D01*
X7747000Y-12699376D01*
X7747000Y-13843000D01*
X8889915Y-13843000D01*
X9011904Y-13620961D01*
X8971246Y-13486913D01*
X8851037Y-13232580D01*
X8683519Y-13006586D01*
X8475131Y-12817615D01*
X8233881Y-12672930D01*
X7969040Y-12578091D01*
X7747000Y-12699376D01*
X7493000Y-12699376D01*
X7270960Y-12578091D01*
X7085000Y-12644683D01*
X7085000Y-10003685D01*
X7225799Y-9862886D01*
X7377371Y-9636043D01*
X7481775Y-9383989D01*
X7535000Y-9116411D01*
X7535000Y-8843589D01*
X7481775Y-8576011D01*
X7377371Y-8323957D01*
X7225799Y-8097114D01*
X7225000Y-8096315D01*
X7225000Y-6022585D01*
X7325284Y-5940284D01*
X7432618Y-5809497D01*
X7512375Y-5660283D01*
X7561488Y-5498377D01*
X7578072Y-5330000D01*
X7578072Y-4830000D01*
X7561488Y-4661623D01*
X7512375Y-4499717D01*
X7432618Y-4350503D01*
X7325284Y-4219716D01*
X7194497Y-4112382D01*
X7045283Y-4032625D01*
X6883377Y-3983512D01*
X6715000Y-3966928D01*
X6265000Y-3966928D01*
X6096623Y-3983512D01*
X5934717Y-4032625D01*
X5788649Y-4110700D01*
X5744494Y-4074463D01*
X5634180Y-4015498D01*
X5514482Y-3979188D01*
X5390000Y-3966928D01*
X5366407Y-3967369D01*
X5413867Y-3957929D01*
X5464695Y-3952923D01*
X5513568Y-3938097D01*
X5563698Y-3928126D01*
X5610922Y-3908565D01*
X5659793Y-3893740D01*
X5704836Y-3869664D01*
X5752056Y-3850105D01*
X5794548Y-3821713D01*
X5839597Y-3797634D01*
X5879083Y-3765229D01*
X5921574Y-3736837D01*
X5957716Y-3700695D01*
X5997195Y-3668295D01*
X6029595Y-3628816D01*
X6065737Y-3592674D01*
X6065739Y-3592671D01*
X6083410Y-3575000D01*
X7536565Y-3575000D01*
X7559717Y-3587375D01*
G37*
G04 #@! TD.AperFunction*
D29*
X1959188Y-1305518D02*
X1946928Y-1430000D01*
X1950000Y-1619250D01*
X2108750Y-1778000D01*
X2858000Y-1778000D01*
X2858000Y-1758000D01*
X3112000Y-1758000D01*
X3112000Y-1778000D01*
X3132000Y-1778000D01*
X3132000Y-2032000D01*
X3112000Y-2032000D01*
X3112000Y-2856250D01*
X3270750Y-3015000D01*
X3385000Y-3018072D01*
X3509482Y-3005812D01*
X3629180Y-2969502D01*
X3739494Y-2910537D01*
X3770946Y-2884725D01*
X3831391Y-2958377D01*
X3899605Y-3041496D01*
X3939093Y-3073903D01*
X4457861Y-3592671D01*
X4457863Y-3592674D01*
X4493997Y-3628808D01*
X4526404Y-3668296D01*
X4565892Y-3700703D01*
X4602026Y-3736837D01*
X4644514Y-3765226D01*
X4684002Y-3797634D01*
X4729056Y-3821716D01*
X4771544Y-3850105D01*
X4818759Y-3869662D01*
X4863806Y-3893740D01*
X4912681Y-3908566D01*
X4959902Y-3928126D01*
X5010029Y-3938097D01*
X5058904Y-3952923D01*
X5109734Y-3957929D01*
X5159861Y-3967900D01*
X5210971Y-3967900D01*
X5231249Y-3969897D01*
X5225750Y-3970000D01*
X5067000Y-4128750D01*
X5067000Y-4953000D01*
X5087000Y-4953000D01*
X5087000Y-5207000D01*
X5067000Y-5207000D01*
X5067000Y-6031250D01*
X5225750Y-6190000D01*
X5390000Y-6193072D01*
X5514482Y-6180812D01*
X5634180Y-6144502D01*
X5744494Y-6085537D01*
X5755000Y-6076915D01*
X5755001Y-7646437D01*
X5746011Y-7648225D01*
X5493957Y-7752629D01*
X5267114Y-7904201D01*
X5074201Y-8097114D01*
X4922629Y-8323957D01*
X4818225Y-8576011D01*
X4765000Y-8843589D01*
X4765000Y-9116411D01*
X4818225Y-9383989D01*
X4922629Y-9636043D01*
X5074201Y-9862886D01*
X5267114Y-10055799D01*
X5493957Y-10207371D01*
X5615001Y-10257509D01*
X5615000Y-13233044D01*
X5565537Y-13140506D01*
X5486185Y-13043815D01*
X5389494Y-12964463D01*
X5279180Y-12905498D01*
X5159482Y-12869188D01*
X5035000Y-12856928D01*
X4870750Y-12860000D01*
X4712000Y-13018750D01*
X4712000Y-13843000D01*
X4732000Y-13843000D01*
X4732000Y-14097000D01*
X4712000Y-14097000D01*
X4712000Y-14921250D01*
X4870750Y-15080000D01*
X5035000Y-15083072D01*
X5159482Y-15070812D01*
X5279180Y-15034502D01*
X5384990Y-14977945D01*
X5384989Y-16435564D01*
X3505554Y-18315000D01*
X1234748Y-18315000D01*
X1114637Y-18135241D01*
X914759Y-17935363D01*
X682241Y-17780000D01*
X914759Y-17624637D01*
X1114637Y-17424759D01*
X1271680Y-17189727D01*
X1379853Y-16928574D01*
X1435000Y-16651335D01*
X1435000Y-16368665D01*
X1379853Y-16091426D01*
X1271680Y-15830273D01*
X1114637Y-15595241D01*
X916039Y-15396643D01*
X924482Y-15395812D01*
X1044180Y-15359502D01*
X1154494Y-15300537D01*
X1251185Y-15221185D01*
X1330537Y-15124494D01*
X1389502Y-15014180D01*
X1392287Y-15005000D01*
X2456565Y-15005000D01*
X2479717Y-15017375D01*
X2641623Y-15066488D01*
X2810000Y-15083072D01*
X3260000Y-15083072D01*
X3428377Y-15066488D01*
X3590283Y-15017375D01*
X3736351Y-14939300D01*
X3780506Y-14975537D01*
X3890820Y-15034502D01*
X4010518Y-15070812D01*
X4135000Y-15083072D01*
X4299250Y-15080000D01*
X4458000Y-14921250D01*
X4458000Y-14097000D01*
X4438000Y-14097000D01*
X4438000Y-13843000D01*
X4458000Y-13843000D01*
X4458000Y-13018750D01*
X4299250Y-12860000D01*
X4135000Y-12856928D01*
X4010518Y-12869188D01*
X3890820Y-12905498D01*
X3780506Y-12964463D01*
X3736351Y-13000700D01*
X3590283Y-12922625D01*
X3428377Y-12873512D01*
X3260000Y-12856928D01*
X2810000Y-12856928D01*
X2641623Y-12873512D01*
X2479717Y-12922625D01*
X2456565Y-12935000D01*
X1392287Y-12935000D01*
X1389502Y-12925820D01*
X1330537Y-12815506D01*
X1251185Y-12718815D01*
X1154494Y-12639463D01*
X1044180Y-12580498D01*
X924482Y-12544188D01*
X800000Y-12531928D01*
X-365400Y-12531928D01*
X-365400Y-11654846D01*
X959146Y-10330301D01*
X1133589Y-10365000D01*
X1406411Y-10365000D01*
X1673989Y-10311775D01*
X1926043Y-10207371D01*
X2152886Y-10055799D01*
X2345799Y-9862886D01*
X2497371Y-9636043D01*
X2601775Y-9383989D01*
X2655000Y-9116411D01*
X2655000Y-8843589D01*
X2601775Y-8576011D01*
X2497371Y-8323957D01*
X2345799Y-8097114D01*
X2152886Y-7904201D01*
X1926043Y-7752629D01*
X1865000Y-7727344D01*
X1865000Y-6076915D01*
X1875506Y-6085537D01*
X1985820Y-6144502D01*
X2105518Y-6180812D01*
X2230000Y-6193072D01*
X2394250Y-6190000D01*
X2553000Y-6031250D01*
X2553000Y-5207000D01*
X2807000Y-5207000D01*
X2807000Y-6031250D01*
X2965750Y-6190000D01*
X3130000Y-6193072D01*
X3254482Y-6180812D01*
X3374180Y-6144502D01*
X3484494Y-6085537D01*
X3581185Y-6006185D01*
X3660537Y-5909494D01*
X3719502Y-5799180D01*
X3755812Y-5679482D01*
X3768072Y-5555000D01*
X3851928Y-5555000D01*
X3864188Y-5679482D01*
X3900498Y-5799180D01*
X3959463Y-5909494D01*
X4038815Y-6006185D01*
X4135506Y-6085537D01*
X4245820Y-6144502D01*
X4365518Y-6180812D01*
X4490000Y-6193072D01*
X4654250Y-6190000D01*
X4813000Y-6031250D01*
X4813000Y-5207000D01*
X4013750Y-5207000D01*
X3855000Y-5365750D01*
X3851928Y-5555000D01*
X3768072Y-5555000D01*
X3765000Y-5365750D01*
X3606250Y-5207000D01*
X2807000Y-5207000D01*
X2553000Y-5207000D01*
X2533000Y-5207000D01*
X2533000Y-4953000D01*
X2553000Y-4953000D01*
X2553000Y-4128750D01*
X2807000Y-4128750D01*
X2807000Y-4953000D01*
X3606250Y-4953000D01*
X3765000Y-4794250D01*
X3768072Y-4605000D01*
X3851928Y-4605000D01*
X3855000Y-4794250D01*
X4013750Y-4953000D01*
X4813000Y-4953000D01*
X4813000Y-4128750D01*
X4654250Y-3970000D01*
X4490000Y-3966928D01*
X4365518Y-3979188D01*
X4245820Y-4015498D01*
X4135506Y-4074463D01*
X4038815Y-4153815D01*
X3959463Y-4250506D01*
X3900498Y-4360820D01*
X3864188Y-4480518D01*
X3851928Y-4605000D01*
X3768072Y-4605000D01*
X3755812Y-4480518D01*
X3719502Y-4360820D01*
X3660537Y-4250506D01*
X3581185Y-4153815D01*
X3484494Y-4074463D01*
X3374180Y-4015498D01*
X3254482Y-3979188D01*
X3130000Y-3966928D01*
X2965750Y-3970000D01*
X2807000Y-4128750D01*
X2553000Y-4128750D01*
X2394250Y-3970000D01*
X2230000Y-3966928D01*
X2105518Y-3979188D01*
X1985820Y-4015498D01*
X1875506Y-4074463D01*
X1831351Y-4110700D01*
X1685283Y-4032625D01*
X1523377Y-3983512D01*
X1355000Y-3966928D01*
X905000Y-3966928D01*
X736623Y-3983512D01*
X574717Y-4032625D01*
X425503Y-4112382D01*
X294716Y-4219716D01*
X187382Y-4350503D01*
X107625Y-4499717D01*
X58512Y-4661623D01*
X41928Y-4830000D01*
X41928Y-5330000D01*
X58512Y-5498377D01*
X107625Y-5660283D01*
X187382Y-5809497D01*
X294716Y-5940284D01*
X395000Y-6022585D01*
X395001Y-7898931D01*
X387114Y-7904201D01*
X194201Y-8097114D01*
X42629Y-8323957D01*
X-61775Y-8576011D01*
X-115000Y-8843589D01*
X-115000Y-9116411D01*
X-80301Y-9290854D01*
X-1594592Y-10805146D01*
X-1622637Y-10828162D01*
X-1714486Y-10940080D01*
X-1759734Y-11024734D01*
X-1782736Y-11067767D01*
X-1824765Y-11206315D01*
X-1838956Y-11350400D01*
X-1835399Y-11386515D01*
X-1835400Y-14890295D01*
X-1838956Y-14926400D01*
X-1824765Y-15070485D01*
X-1816056Y-15099193D01*
X-1782737Y-15209032D01*
X-1714487Y-15336719D01*
X-1622638Y-15448637D01*
X-1594592Y-15471654D01*
X-1257378Y-15808868D01*
X-1271680Y-15830273D01*
X-1379853Y-16091426D01*
X-1435000Y-16368665D01*
X-1435000Y-16651335D01*
X-1392822Y-16863376D01*
X-1594193Y-17064747D01*
X-1622239Y-17087764D01*
X-1714088Y-17199682D01*
X-1782338Y-17327369D01*
X-1788245Y-17346842D01*
X-1824366Y-17465916D01*
X-1838557Y-17610001D01*
X-1835001Y-17646107D01*
X-1835000Y-18575553D01*
X-3595000Y-20335553D01*
X-3595000Y-20173740D01*
X-3652068Y-19886842D01*
X-3764010Y-19616589D01*
X-3926525Y-19373368D01*
X-4133368Y-19166525D01*
X-4307760Y-19050000D01*
X-4133368Y-18933475D01*
X-3926525Y-18726632D01*
X-3764010Y-18483411D01*
X-3652068Y-18213158D01*
X-3595000Y-17926260D01*
X-3595000Y-17633740D01*
X-3652068Y-17346842D01*
X-3764010Y-17076589D01*
X-3926525Y-16833368D01*
X-4133368Y-16626525D01*
X-4307760Y-16510000D01*
X-4133368Y-16393475D01*
X-3926525Y-16186632D01*
X-3764010Y-15943411D01*
X-3652068Y-15673158D01*
X-3595000Y-15386260D01*
X-3595000Y-15093740D01*
X-3652068Y-14806842D01*
X-3764010Y-14536589D01*
X-3926525Y-14293368D01*
X-4133368Y-14086525D01*
X-4307760Y-13970000D01*
X-4133368Y-13853475D01*
X-3926525Y-13646632D01*
X-3764010Y-13403411D01*
X-3652068Y-13133158D01*
X-3595000Y-12846260D01*
X-3595000Y-12553740D01*
X-3652068Y-12266842D01*
X-3764010Y-11996589D01*
X-3926525Y-11753368D01*
X-4133368Y-11546525D01*
X-4307760Y-11430000D01*
X-4133368Y-11313475D01*
X-3926525Y-11106632D01*
X-3764010Y-10863411D01*
X-3652068Y-10593158D01*
X-3595000Y-10306260D01*
X-3595000Y-10013740D01*
X-3652068Y-9726842D01*
X-3764010Y-9456589D01*
X-3926525Y-9213368D01*
X-4058380Y-9081513D01*
X-3985820Y-9059502D01*
X-3875506Y-9000537D01*
X-3778815Y-8921185D01*
X-3699463Y-8824494D01*
X-3640498Y-8714180D01*
X-3604188Y-8594482D01*
X-3591928Y-8470000D01*
X-3591928Y-6770000D01*
X-3604188Y-6645518D01*
X-3640498Y-6525820D01*
X-3699463Y-6415506D01*
X-3778815Y-6318815D01*
X-3875506Y-6239463D01*
X-3985820Y-6180498D01*
X-4045000Y-6162546D01*
X-4045000Y-4889010D01*
X-3807289Y-4651300D01*
X-3154928Y-4651300D01*
X-3104100Y-4656306D01*
X-3053272Y-4651300D01*
X-3053262Y-4651300D01*
X-2901205Y-4636324D01*
X-2706107Y-4577141D01*
X-2526303Y-4481034D01*
X-2368704Y-4351696D01*
X-2336293Y-4312203D01*
X-1661556Y-3637466D01*
X-1651623Y-3636488D01*
X-1489717Y-3587375D01*
X-1340503Y-3507618D01*
X-1270000Y-3449758D01*
X-1199497Y-3507618D01*
X-1050283Y-3587375D01*
X-888377Y-3636488D01*
X-720000Y-3653072D01*
X-270000Y-3653072D01*
X-101623Y-3636488D01*
X60283Y-3587375D01*
X209497Y-3507618D01*
X340284Y-3400284D01*
X447618Y-3269497D01*
X527375Y-3120283D01*
X576488Y-2958377D01*
X593072Y-2790000D01*
X593072Y-2380000D01*
X1946928Y-2380000D01*
X1959188Y-2504482D01*
X1995498Y-2624180D01*
X2054463Y-2734494D01*
X2133815Y-2831185D01*
X2230506Y-2910537D01*
X2340820Y-2969502D01*
X2460518Y-3005812D01*
X2585000Y-3018072D01*
X2699250Y-3015000D01*
X2858000Y-2856250D01*
X2858000Y-2032000D01*
X2108750Y-2032000D01*
X1950000Y-2190750D01*
X1946928Y-2380000D01*
X593072Y-2380000D01*
X593072Y-2290000D01*
X576488Y-2121623D01*
X540000Y-2001337D01*
X540000Y-1610117D01*
X634482Y-1600812D01*
X754180Y-1564502D01*
X864494Y-1505537D01*
X961185Y-1426185D01*
X1040537Y-1329494D01*
X1058173Y-1296500D01*
X1961924Y-1296500D01*
X1959188Y-1305518D01*
G04 #@! TA.AperFunction,Conductor*
D30*
G36*
X1959188Y-1305518D02*
G01*
X1946928Y-1430000D01*
X1950000Y-1619250D01*
X2108750Y-1778000D01*
X2858000Y-1778000D01*
X2858000Y-1758000D01*
X3112000Y-1758000D01*
X3112000Y-1778000D01*
X3132000Y-1778000D01*
X3132000Y-2032000D01*
X3112000Y-2032000D01*
X3112000Y-2856250D01*
X3270750Y-3015000D01*
X3385000Y-3018072D01*
X3509482Y-3005812D01*
X3629180Y-2969502D01*
X3739494Y-2910537D01*
X3770946Y-2884725D01*
X3831391Y-2958377D01*
X3899605Y-3041496D01*
X3939093Y-3073903D01*
X4457861Y-3592671D01*
X4457863Y-3592674D01*
X4493997Y-3628808D01*
X4526404Y-3668296D01*
X4565892Y-3700703D01*
X4602026Y-3736837D01*
X4644514Y-3765226D01*
X4684002Y-3797634D01*
X4729056Y-3821716D01*
X4771544Y-3850105D01*
X4818759Y-3869662D01*
X4863806Y-3893740D01*
X4912681Y-3908566D01*
X4959902Y-3928126D01*
X5010029Y-3938097D01*
X5058904Y-3952923D01*
X5109734Y-3957929D01*
X5159861Y-3967900D01*
X5210971Y-3967900D01*
X5231249Y-3969897D01*
X5225750Y-3970000D01*
X5067000Y-4128750D01*
X5067000Y-4953000D01*
X5087000Y-4953000D01*
X5087000Y-5207000D01*
X5067000Y-5207000D01*
X5067000Y-6031250D01*
X5225750Y-6190000D01*
X5390000Y-6193072D01*
X5514482Y-6180812D01*
X5634180Y-6144502D01*
X5744494Y-6085537D01*
X5755000Y-6076915D01*
X5755001Y-7646437D01*
X5746011Y-7648225D01*
X5493957Y-7752629D01*
X5267114Y-7904201D01*
X5074201Y-8097114D01*
X4922629Y-8323957D01*
X4818225Y-8576011D01*
X4765000Y-8843589D01*
X4765000Y-9116411D01*
X4818225Y-9383989D01*
X4922629Y-9636043D01*
X5074201Y-9862886D01*
X5267114Y-10055799D01*
X5493957Y-10207371D01*
X5615001Y-10257509D01*
X5615000Y-13233044D01*
X5565537Y-13140506D01*
X5486185Y-13043815D01*
X5389494Y-12964463D01*
X5279180Y-12905498D01*
X5159482Y-12869188D01*
X5035000Y-12856928D01*
X4870750Y-12860000D01*
X4712000Y-13018750D01*
X4712000Y-13843000D01*
X4732000Y-13843000D01*
X4732000Y-14097000D01*
X4712000Y-14097000D01*
X4712000Y-14921250D01*
X4870750Y-15080000D01*
X5035000Y-15083072D01*
X5159482Y-15070812D01*
X5279180Y-15034502D01*
X5384990Y-14977945D01*
X5384989Y-16435564D01*
X3505554Y-18315000D01*
X1234748Y-18315000D01*
X1114637Y-18135241D01*
X914759Y-17935363D01*
X682241Y-17780000D01*
X914759Y-17624637D01*
X1114637Y-17424759D01*
X1271680Y-17189727D01*
X1379853Y-16928574D01*
X1435000Y-16651335D01*
X1435000Y-16368665D01*
X1379853Y-16091426D01*
X1271680Y-15830273D01*
X1114637Y-15595241D01*
X916039Y-15396643D01*
X924482Y-15395812D01*
X1044180Y-15359502D01*
X1154494Y-15300537D01*
X1251185Y-15221185D01*
X1330537Y-15124494D01*
X1389502Y-15014180D01*
X1392287Y-15005000D01*
X2456565Y-15005000D01*
X2479717Y-15017375D01*
X2641623Y-15066488D01*
X2810000Y-15083072D01*
X3260000Y-15083072D01*
X3428377Y-15066488D01*
X3590283Y-15017375D01*
X3736351Y-14939300D01*
X3780506Y-14975537D01*
X3890820Y-15034502D01*
X4010518Y-15070812D01*
X4135000Y-15083072D01*
X4299250Y-15080000D01*
X4458000Y-14921250D01*
X4458000Y-14097000D01*
X4438000Y-14097000D01*
X4438000Y-13843000D01*
X4458000Y-13843000D01*
X4458000Y-13018750D01*
X4299250Y-12860000D01*
X4135000Y-12856928D01*
X4010518Y-12869188D01*
X3890820Y-12905498D01*
X3780506Y-12964463D01*
X3736351Y-13000700D01*
X3590283Y-12922625D01*
X3428377Y-12873512D01*
X3260000Y-12856928D01*
X2810000Y-12856928D01*
X2641623Y-12873512D01*
X2479717Y-12922625D01*
X2456565Y-12935000D01*
X1392287Y-12935000D01*
X1389502Y-12925820D01*
X1330537Y-12815506D01*
X1251185Y-12718815D01*
X1154494Y-12639463D01*
X1044180Y-12580498D01*
X924482Y-12544188D01*
X800000Y-12531928D01*
X-365400Y-12531928D01*
X-365400Y-11654846D01*
X959146Y-10330301D01*
X1133589Y-10365000D01*
X1406411Y-10365000D01*
X1673989Y-10311775D01*
X1926043Y-10207371D01*
X2152886Y-10055799D01*
X2345799Y-9862886D01*
X2497371Y-9636043D01*
X2601775Y-9383989D01*
X2655000Y-9116411D01*
X2655000Y-8843589D01*
X2601775Y-8576011D01*
X2497371Y-8323957D01*
X2345799Y-8097114D01*
X2152886Y-7904201D01*
X1926043Y-7752629D01*
X1865000Y-7727344D01*
X1865000Y-6076915D01*
X1875506Y-6085537D01*
X1985820Y-6144502D01*
X2105518Y-6180812D01*
X2230000Y-6193072D01*
X2394250Y-6190000D01*
X2553000Y-6031250D01*
X2553000Y-5207000D01*
X2807000Y-5207000D01*
X2807000Y-6031250D01*
X2965750Y-6190000D01*
X3130000Y-6193072D01*
X3254482Y-6180812D01*
X3374180Y-6144502D01*
X3484494Y-6085537D01*
X3581185Y-6006185D01*
X3660537Y-5909494D01*
X3719502Y-5799180D01*
X3755812Y-5679482D01*
X3768072Y-5555000D01*
X3851928Y-5555000D01*
X3864188Y-5679482D01*
X3900498Y-5799180D01*
X3959463Y-5909494D01*
X4038815Y-6006185D01*
X4135506Y-6085537D01*
X4245820Y-6144502D01*
X4365518Y-6180812D01*
X4490000Y-6193072D01*
X4654250Y-6190000D01*
X4813000Y-6031250D01*
X4813000Y-5207000D01*
X4013750Y-5207000D01*
X3855000Y-5365750D01*
X3851928Y-5555000D01*
X3768072Y-5555000D01*
X3765000Y-5365750D01*
X3606250Y-5207000D01*
X2807000Y-5207000D01*
X2553000Y-5207000D01*
X2533000Y-5207000D01*
X2533000Y-4953000D01*
X2553000Y-4953000D01*
X2553000Y-4128750D01*
X2807000Y-4128750D01*
X2807000Y-4953000D01*
X3606250Y-4953000D01*
X3765000Y-4794250D01*
X3768072Y-4605000D01*
X3851928Y-4605000D01*
X3855000Y-4794250D01*
X4013750Y-4953000D01*
X4813000Y-4953000D01*
X4813000Y-4128750D01*
X4654250Y-3970000D01*
X4490000Y-3966928D01*
X4365518Y-3979188D01*
X4245820Y-4015498D01*
X4135506Y-4074463D01*
X4038815Y-4153815D01*
X3959463Y-4250506D01*
X3900498Y-4360820D01*
X3864188Y-4480518D01*
X3851928Y-4605000D01*
X3768072Y-4605000D01*
X3755812Y-4480518D01*
X3719502Y-4360820D01*
X3660537Y-4250506D01*
X3581185Y-4153815D01*
X3484494Y-4074463D01*
X3374180Y-4015498D01*
X3254482Y-3979188D01*
X3130000Y-3966928D01*
X2965750Y-3970000D01*
X2807000Y-4128750D01*
X2553000Y-4128750D01*
X2394250Y-3970000D01*
X2230000Y-3966928D01*
X2105518Y-3979188D01*
X1985820Y-4015498D01*
X1875506Y-4074463D01*
X1831351Y-4110700D01*
X1685283Y-4032625D01*
X1523377Y-3983512D01*
X1355000Y-3966928D01*
X905000Y-3966928D01*
X736623Y-3983512D01*
X574717Y-4032625D01*
X425503Y-4112382D01*
X294716Y-4219716D01*
X187382Y-4350503D01*
X107625Y-4499717D01*
X58512Y-4661623D01*
X41928Y-4830000D01*
X41928Y-5330000D01*
X58512Y-5498377D01*
X107625Y-5660283D01*
X187382Y-5809497D01*
X294716Y-5940284D01*
X395000Y-6022585D01*
X395001Y-7898931D01*
X387114Y-7904201D01*
X194201Y-8097114D01*
X42629Y-8323957D01*
X-61775Y-8576011D01*
X-115000Y-8843589D01*
X-115000Y-9116411D01*
X-80301Y-9290854D01*
X-1594592Y-10805146D01*
X-1622637Y-10828162D01*
X-1714486Y-10940080D01*
X-1759734Y-11024734D01*
X-1782736Y-11067767D01*
X-1824765Y-11206315D01*
X-1838956Y-11350400D01*
X-1835399Y-11386515D01*
X-1835400Y-14890295D01*
X-1838956Y-14926400D01*
X-1824765Y-15070485D01*
X-1816056Y-15099193D01*
X-1782737Y-15209032D01*
X-1714487Y-15336719D01*
X-1622638Y-15448637D01*
X-1594592Y-15471654D01*
X-1257378Y-15808868D01*
X-1271680Y-15830273D01*
X-1379853Y-16091426D01*
X-1435000Y-16368665D01*
X-1435000Y-16651335D01*
X-1392822Y-16863376D01*
X-1594193Y-17064747D01*
X-1622239Y-17087764D01*
X-1714088Y-17199682D01*
X-1782338Y-17327369D01*
X-1788245Y-17346842D01*
X-1824366Y-17465916D01*
X-1838557Y-17610001D01*
X-1835001Y-17646107D01*
X-1835000Y-18575553D01*
X-3595000Y-20335553D01*
X-3595000Y-20173740D01*
X-3652068Y-19886842D01*
X-3764010Y-19616589D01*
X-3926525Y-19373368D01*
X-4133368Y-19166525D01*
X-4307760Y-19050000D01*
X-4133368Y-18933475D01*
X-3926525Y-18726632D01*
X-3764010Y-18483411D01*
X-3652068Y-18213158D01*
X-3595000Y-17926260D01*
X-3595000Y-17633740D01*
X-3652068Y-17346842D01*
X-3764010Y-17076589D01*
X-3926525Y-16833368D01*
X-4133368Y-16626525D01*
X-4307760Y-16510000D01*
X-4133368Y-16393475D01*
X-3926525Y-16186632D01*
X-3764010Y-15943411D01*
X-3652068Y-15673158D01*
X-3595000Y-15386260D01*
X-3595000Y-15093740D01*
X-3652068Y-14806842D01*
X-3764010Y-14536589D01*
X-3926525Y-14293368D01*
X-4133368Y-14086525D01*
X-4307760Y-13970000D01*
X-4133368Y-13853475D01*
X-3926525Y-13646632D01*
X-3764010Y-13403411D01*
X-3652068Y-13133158D01*
X-3595000Y-12846260D01*
X-3595000Y-12553740D01*
X-3652068Y-12266842D01*
X-3764010Y-11996589D01*
X-3926525Y-11753368D01*
X-4133368Y-11546525D01*
X-4307760Y-11430000D01*
X-4133368Y-11313475D01*
X-3926525Y-11106632D01*
X-3764010Y-10863411D01*
X-3652068Y-10593158D01*
X-3595000Y-10306260D01*
X-3595000Y-10013740D01*
X-3652068Y-9726842D01*
X-3764010Y-9456589D01*
X-3926525Y-9213368D01*
X-4058380Y-9081513D01*
X-3985820Y-9059502D01*
X-3875506Y-9000537D01*
X-3778815Y-8921185D01*
X-3699463Y-8824494D01*
X-3640498Y-8714180D01*
X-3604188Y-8594482D01*
X-3591928Y-8470000D01*
X-3591928Y-6770000D01*
X-3604188Y-6645518D01*
X-3640498Y-6525820D01*
X-3699463Y-6415506D01*
X-3778815Y-6318815D01*
X-3875506Y-6239463D01*
X-3985820Y-6180498D01*
X-4045000Y-6162546D01*
X-4045000Y-4889010D01*
X-3807289Y-4651300D01*
X-3154928Y-4651300D01*
X-3104100Y-4656306D01*
X-3053272Y-4651300D01*
X-3053262Y-4651300D01*
X-2901205Y-4636324D01*
X-2706107Y-4577141D01*
X-2526303Y-4481034D01*
X-2368704Y-4351696D01*
X-2336293Y-4312203D01*
X-1661556Y-3637466D01*
X-1651623Y-3636488D01*
X-1489717Y-3587375D01*
X-1340503Y-3507618D01*
X-1270000Y-3449758D01*
X-1199497Y-3507618D01*
X-1050283Y-3587375D01*
X-888377Y-3636488D01*
X-720000Y-3653072D01*
X-270000Y-3653072D01*
X-101623Y-3636488D01*
X60283Y-3587375D01*
X209497Y-3507618D01*
X340284Y-3400284D01*
X447618Y-3269497D01*
X527375Y-3120283D01*
X576488Y-2958377D01*
X593072Y-2790000D01*
X593072Y-2380000D01*
X1946928Y-2380000D01*
X1959188Y-2504482D01*
X1995498Y-2624180D01*
X2054463Y-2734494D01*
X2133815Y-2831185D01*
X2230506Y-2910537D01*
X2340820Y-2969502D01*
X2460518Y-3005812D01*
X2585000Y-3018072D01*
X2699250Y-3015000D01*
X2858000Y-2856250D01*
X2858000Y-2032000D01*
X2108750Y-2032000D01*
X1950000Y-2190750D01*
X1946928Y-2380000D01*
X593072Y-2380000D01*
X593072Y-2290000D01*
X576488Y-2121623D01*
X540000Y-2001337D01*
X540000Y-1610117D01*
X634482Y-1600812D01*
X754180Y-1564502D01*
X864494Y-1505537D01*
X961185Y-1426185D01*
X1040537Y-1329494D01*
X1058173Y-1296500D01*
X1961924Y-1296500D01*
X1959188Y-1305518D01*
G37*
G04 #@! TD.AperFunction*
M02*
