G04 #@! TF.GenerationSoftware,KiCad,Pcbnew,(5.1.9)-1*
G04 #@! TF.CreationDate,2023-06-14T07:29:02+09:00*
G04 #@! TF.ProjectId,PICo-16f1765,5049436f-2d31-4366-9631-3736352e6b69,rev?*
G04 #@! TF.SameCoordinates,Original*
G04 #@! TF.FileFunction,Soldermask,Top*
G04 #@! TF.FilePolarity,Negative*
%FSLAX46Y46*%
G04 Gerber Fmt 4.6, Leading zero omitted, Abs format (unit mm)*
G04 Created by KiCad (PCBNEW (5.1.9)-1) date 2023-06-14 07:29:02*
%MOMM*%
%LPD*%
G01*
G04 APERTURE LIST*
%ADD10C,2.200000*%
%ADD11O,1.600000X1.600000*%
%ADD12R,1.600000X1.600000*%
%ADD13C,1.500000*%
%ADD14R,1.500000X2.000000*%
%ADD15R,3.800000X2.000000*%
%ADD16R,1.600000X1.050000*%
%ADD17C,0.100000*%
%ADD18R,1.000000X1.500000*%
%ADD19R,0.400000X1.350000*%
%ADD20R,1.800000X1.900000*%
%ADD21R,2.100000X1.600000*%
%ADD22R,1.900000X1.900000*%
%ADD23O,1.700000X1.700000*%
%ADD24R,1.700000X1.700000*%
%ADD25R,0.510000X1.100000*%
G04 APERTURE END LIST*
D10*
X11430000Y-45720000D03*
X-3810000Y-45720000D03*
X11430000Y13970000D03*
X-3810000Y13970000D03*
G36*
G01*
X945000Y-32770000D02*
X945000Y-33270000D01*
G75*
G02*
X720000Y-33495000I-225000J0D01*
G01*
X270000Y-33495000D01*
G75*
G02*
X45000Y-33270000I0J225000D01*
G01*
X45000Y-32770000D01*
G75*
G02*
X270000Y-32545000I225000J0D01*
G01*
X720000Y-32545000D01*
G75*
G02*
X945000Y-32770000I0J-225000D01*
G01*
G37*
G36*
G01*
X2495000Y-32770000D02*
X2495000Y-33270000D01*
G75*
G02*
X2270000Y-33495000I-225000J0D01*
G01*
X1820000Y-33495000D01*
G75*
G02*
X1595000Y-33270000I0J225000D01*
G01*
X1595000Y-32770000D01*
G75*
G02*
X1820000Y-32545000I225000J0D01*
G01*
X2270000Y-32545000D01*
G75*
G02*
X2495000Y-32770000I0J-225000D01*
G01*
G37*
G36*
G01*
X6675000Y-33270000D02*
X6675000Y-32770000D01*
G75*
G02*
X6900000Y-32545000I225000J0D01*
G01*
X7350000Y-32545000D01*
G75*
G02*
X7575000Y-32770000I0J-225000D01*
G01*
X7575000Y-33270000D01*
G75*
G02*
X7350000Y-33495000I-225000J0D01*
G01*
X6900000Y-33495000D01*
G75*
G02*
X6675000Y-33270000I0J225000D01*
G01*
G37*
G36*
G01*
X5125000Y-33270000D02*
X5125000Y-32770000D01*
G75*
G02*
X5350000Y-32545000I225000J0D01*
G01*
X5800000Y-32545000D01*
G75*
G02*
X6025000Y-32770000I0J-225000D01*
G01*
X6025000Y-33270000D01*
G75*
G02*
X5800000Y-33495000I-225000J0D01*
G01*
X5350000Y-33495000D01*
G75*
G02*
X5125000Y-33270000I0J225000D01*
G01*
G37*
G36*
G01*
X-4770000Y-2290000D02*
X-4770000Y-2790000D01*
G75*
G02*
X-4995000Y-3015000I-225000J0D01*
G01*
X-5445000Y-3015000D01*
G75*
G02*
X-5670000Y-2790000I0J225000D01*
G01*
X-5670000Y-2290000D01*
G75*
G02*
X-5445000Y-2065000I225000J0D01*
G01*
X-4995000Y-2065000D01*
G75*
G02*
X-4770000Y-2290000I0J-225000D01*
G01*
G37*
G36*
G01*
X-3220000Y-2290000D02*
X-3220000Y-2790000D01*
G75*
G02*
X-3445000Y-3015000I-225000J0D01*
G01*
X-3895000Y-3015000D01*
G75*
G02*
X-4120000Y-2790000I0J225000D01*
G01*
X-4120000Y-2290000D01*
G75*
G02*
X-3895000Y-2065000I225000J0D01*
G01*
X-3445000Y-2065000D01*
G75*
G02*
X-3220000Y-2290000I0J-225000D01*
G01*
G37*
G36*
G01*
X-1595000Y-2290000D02*
X-1595000Y-2790000D01*
G75*
G02*
X-1820000Y-3015000I-225000J0D01*
G01*
X-2270000Y-3015000D01*
G75*
G02*
X-2495000Y-2790000I0J225000D01*
G01*
X-2495000Y-2290000D01*
G75*
G02*
X-2270000Y-2065000I225000J0D01*
G01*
X-1820000Y-2065000D01*
G75*
G02*
X-1595000Y-2290000I0J-225000D01*
G01*
G37*
G36*
G01*
X-45000Y-2290000D02*
X-45000Y-2790000D01*
G75*
G02*
X-270000Y-3015000I-225000J0D01*
G01*
X-720000Y-3015000D01*
G75*
G02*
X-945000Y-2790000I0J225000D01*
G01*
X-945000Y-2290000D01*
G75*
G02*
X-720000Y-2065000I225000J0D01*
G01*
X-270000Y-2065000D01*
G75*
G02*
X-45000Y-2290000I0J-225000D01*
G01*
G37*
G36*
G01*
X8565000Y-2290000D02*
X8565000Y-2790000D01*
G75*
G02*
X8340000Y-3015000I-225000J0D01*
G01*
X7890000Y-3015000D01*
G75*
G02*
X7665000Y-2790000I0J225000D01*
G01*
X7665000Y-2290000D01*
G75*
G02*
X7890000Y-2065000I225000J0D01*
G01*
X8340000Y-2065000D01*
G75*
G02*
X8565000Y-2290000I0J-225000D01*
G01*
G37*
G36*
G01*
X10115000Y-2290000D02*
X10115000Y-2790000D01*
G75*
G02*
X9890000Y-3015000I-225000J0D01*
G01*
X9440000Y-3015000D01*
G75*
G02*
X9215000Y-2790000I0J225000D01*
G01*
X9215000Y-2290000D01*
G75*
G02*
X9440000Y-2065000I225000J0D01*
G01*
X9890000Y-2065000D01*
G75*
G02*
X10115000Y-2290000I0J-225000D01*
G01*
G37*
G36*
G01*
X4135000Y-14220000D02*
X4135000Y-13720000D01*
G75*
G02*
X4360000Y-13495000I225000J0D01*
G01*
X4810000Y-13495000D01*
G75*
G02*
X5035000Y-13720000I0J-225000D01*
G01*
X5035000Y-14220000D01*
G75*
G02*
X4810000Y-14445000I-225000J0D01*
G01*
X4360000Y-14445000D01*
G75*
G02*
X4135000Y-14220000I0J225000D01*
G01*
G37*
G36*
G01*
X2585000Y-14220000D02*
X2585000Y-13720000D01*
G75*
G02*
X2810000Y-13495000I225000J0D01*
G01*
X3260000Y-13495000D01*
G75*
G02*
X3485000Y-13720000I0J-225000D01*
G01*
X3485000Y-14220000D01*
G75*
G02*
X3260000Y-14445000I-225000J0D01*
G01*
X2810000Y-14445000D01*
G75*
G02*
X2585000Y-14220000I0J225000D01*
G01*
G37*
G36*
G01*
X11740000Y-2290000D02*
X11740000Y-2790000D01*
G75*
G02*
X11515000Y-3015000I-225000J0D01*
G01*
X11065000Y-3015000D01*
G75*
G02*
X10840000Y-2790000I0J225000D01*
G01*
X10840000Y-2290000D01*
G75*
G02*
X11065000Y-2065000I225000J0D01*
G01*
X11515000Y-2065000D01*
G75*
G02*
X11740000Y-2290000I0J-225000D01*
G01*
G37*
G36*
G01*
X13290000Y-2290000D02*
X13290000Y-2790000D01*
G75*
G02*
X13065000Y-3015000I-225000J0D01*
G01*
X12615000Y-3015000D01*
G75*
G02*
X12390000Y-2790000I0J225000D01*
G01*
X12390000Y-2290000D01*
G75*
G02*
X12615000Y-2065000I225000J0D01*
G01*
X13065000Y-2065000D01*
G75*
G02*
X13290000Y-2290000I0J-225000D01*
G01*
G37*
G36*
G01*
X11070000Y-40850000D02*
X10520000Y-40850000D01*
G75*
G02*
X10320000Y-40650000I0J200000D01*
G01*
X10320000Y-40250000D01*
G75*
G02*
X10520000Y-40050000I200000J0D01*
G01*
X11070000Y-40050000D01*
G75*
G02*
X11270000Y-40250000I0J-200000D01*
G01*
X11270000Y-40650000D01*
G75*
G02*
X11070000Y-40850000I-200000J0D01*
G01*
G37*
G36*
G01*
X11070000Y-42500000D02*
X10520000Y-42500000D01*
G75*
G02*
X10320000Y-42300000I0J200000D01*
G01*
X10320000Y-41900000D01*
G75*
G02*
X10520000Y-41700000I200000J0D01*
G01*
X11070000Y-41700000D01*
G75*
G02*
X11270000Y-41900000I0J-200000D01*
G01*
X11270000Y-42300000D01*
G75*
G02*
X11070000Y-42500000I-200000J0D01*
G01*
G37*
G36*
G01*
X11005000Y-30840000D02*
X11005000Y-31390000D01*
G75*
G02*
X10805000Y-31590000I-200000J0D01*
G01*
X10405000Y-31590000D01*
G75*
G02*
X10205000Y-31390000I0J200000D01*
G01*
X10205000Y-30840000D01*
G75*
G02*
X10405000Y-30640000I200000J0D01*
G01*
X10805000Y-30640000D01*
G75*
G02*
X11005000Y-30840000I0J-200000D01*
G01*
G37*
G36*
G01*
X12655000Y-30840000D02*
X12655000Y-31390000D01*
G75*
G02*
X12455000Y-31590000I-200000J0D01*
G01*
X12055000Y-31590000D01*
G75*
G02*
X11855000Y-31390000I0J200000D01*
G01*
X11855000Y-30840000D01*
G75*
G02*
X12055000Y-30640000I200000J0D01*
G01*
X12455000Y-30640000D01*
G75*
G02*
X12655000Y-30840000I0J-200000D01*
G01*
G37*
G36*
G01*
X4235000Y-2180000D02*
X4235000Y-1630000D01*
G75*
G02*
X4435000Y-1430000I200000J0D01*
G01*
X4835000Y-1430000D01*
G75*
G02*
X5035000Y-1630000I0J-200000D01*
G01*
X5035000Y-2180000D01*
G75*
G02*
X4835000Y-2380000I-200000J0D01*
G01*
X4435000Y-2380000D01*
G75*
G02*
X4235000Y-2180000I0J200000D01*
G01*
G37*
G36*
G01*
X2585000Y-2180000D02*
X2585000Y-1630000D01*
G75*
G02*
X2785000Y-1430000I200000J0D01*
G01*
X3185000Y-1430000D01*
G75*
G02*
X3385000Y-1630000I0J-200000D01*
G01*
X3385000Y-2180000D01*
G75*
G02*
X3185000Y-2380000I-200000J0D01*
G01*
X2785000Y-2380000D01*
G75*
G02*
X2585000Y-2180000I0J200000D01*
G01*
G37*
D11*
X7620000Y-13970000D03*
X0Y-29210000D03*
X7620000Y-16510000D03*
X0Y-26670000D03*
X7620000Y-19050000D03*
X0Y-24130000D03*
X7620000Y-21590000D03*
X0Y-21590000D03*
X7620000Y-24130000D03*
X0Y-19050000D03*
X7620000Y-26670000D03*
X0Y-16510000D03*
X7620000Y-29210000D03*
D12*
X0Y-13970000D03*
D13*
X6150000Y-8980000D03*
X1270000Y-8980000D03*
D14*
X-4840000Y25000D03*
X-240000Y25000D03*
X-2540000Y25000D03*
D15*
X-2540000Y6325000D03*
D14*
X7860000Y25000D03*
X12460000Y25000D03*
X10160000Y25000D03*
D15*
X10160000Y6325000D03*
D16*
X-3810000Y-37785000D03*
X-3810000Y-33335000D03*
X11430000Y-33335000D03*
X11430000Y-37785000D03*
D17*
G36*
X3060000Y4965000D02*
G01*
X2510000Y4965000D01*
X2510000Y4965602D01*
X2485466Y4965602D01*
X2436635Y4970412D01*
X2388510Y4979984D01*
X2341555Y4994228D01*
X2296222Y5013005D01*
X2252949Y5036136D01*
X2212150Y5063396D01*
X2174221Y5094524D01*
X2139524Y5129221D01*
X2108396Y5167150D01*
X2081136Y5207949D01*
X2058005Y5251222D01*
X2039228Y5296555D01*
X2024984Y5343510D01*
X2015412Y5391635D01*
X2010602Y5440466D01*
X2010602Y5465000D01*
X2010000Y5465000D01*
X2010000Y5965000D01*
X2010602Y5965000D01*
X2010602Y5989534D01*
X2015412Y6038365D01*
X2024984Y6086490D01*
X2039228Y6133445D01*
X2058005Y6178778D01*
X2081136Y6222051D01*
X2108396Y6262850D01*
X2139524Y6300779D01*
X2174221Y6335476D01*
X2212150Y6366604D01*
X2252949Y6393864D01*
X2296222Y6416995D01*
X2341555Y6435772D01*
X2388510Y6450016D01*
X2436635Y6459588D01*
X2485466Y6464398D01*
X2510000Y6464398D01*
X2510000Y6465000D01*
X3060000Y6465000D01*
X3060000Y4965000D01*
G37*
D18*
X3810000Y5715000D03*
D17*
G36*
X5110000Y6464398D02*
G01*
X5134534Y6464398D01*
X5183365Y6459588D01*
X5231490Y6450016D01*
X5278445Y6435772D01*
X5323778Y6416995D01*
X5367051Y6393864D01*
X5407850Y6366604D01*
X5445779Y6335476D01*
X5480476Y6300779D01*
X5511604Y6262850D01*
X5538864Y6222051D01*
X5561995Y6178778D01*
X5580772Y6133445D01*
X5595016Y6086490D01*
X5604588Y6038365D01*
X5609398Y5989534D01*
X5609398Y5965000D01*
X5610000Y5965000D01*
X5610000Y5465000D01*
X5609398Y5465000D01*
X5609398Y5440466D01*
X5604588Y5391635D01*
X5595016Y5343510D01*
X5580772Y5296555D01*
X5561995Y5251222D01*
X5538864Y5207949D01*
X5511604Y5167150D01*
X5480476Y5129221D01*
X5445779Y5094524D01*
X5407850Y5063396D01*
X5367051Y5036136D01*
X5323778Y5013005D01*
X5278445Y4994228D01*
X5231490Y4979984D01*
X5183365Y4970412D01*
X5134534Y4965602D01*
X5110000Y4965602D01*
X5110000Y4965000D01*
X4560000Y4965000D01*
X4560000Y6465000D01*
X5110000Y6465000D01*
X5110000Y6464398D01*
G37*
D19*
X2510000Y-43395000D03*
X3160000Y-43395000D03*
X3810000Y-43395000D03*
X4460000Y-43395000D03*
X5110000Y-43395000D03*
D20*
X-190000Y-46070000D03*
X7810000Y-46070000D03*
D21*
X710000Y-43520000D03*
X6910000Y-43520000D03*
D22*
X2610000Y-46070000D03*
X5010000Y-46070000D03*
D23*
X12700000Y-7620000D03*
X12700000Y-10160000D03*
X12700000Y-12700000D03*
X12700000Y-15240000D03*
X12700000Y-17780000D03*
X12700000Y-20320000D03*
X12700000Y-22860000D03*
X12700000Y-25400000D03*
D24*
X12700000Y-27940000D03*
D23*
X-5080000Y-27940000D03*
X-5080000Y-25400000D03*
X-5080000Y-22860000D03*
X-5080000Y-20320000D03*
X-5080000Y-17780000D03*
X-5080000Y-15240000D03*
X-5080000Y-12700000D03*
X-5080000Y-10160000D03*
D24*
X-5080000Y-7620000D03*
D23*
X10160000Y10160000D03*
X7620000Y10160000D03*
X5080000Y10160000D03*
X2540000Y10160000D03*
X0Y10160000D03*
D24*
X-2540000Y10160000D03*
D25*
X1810000Y-34915000D03*
X2810000Y-34915000D03*
X5810000Y-40015000D03*
X3810000Y-34915000D03*
X4810000Y-34915000D03*
X5810000Y-34915000D03*
X4810000Y-40015000D03*
X3810000Y-40015000D03*
X2810000Y-40015000D03*
X1810000Y-40015000D03*
G36*
G01*
X12956250Y-40925000D02*
X12443750Y-40925000D01*
G75*
G02*
X12225000Y-40706250I0J218750D01*
G01*
X12225000Y-40268750D01*
G75*
G02*
X12443750Y-40050000I218750J0D01*
G01*
X12956250Y-40050000D01*
G75*
G02*
X13175000Y-40268750I0J-218750D01*
G01*
X13175000Y-40706250D01*
G75*
G02*
X12956250Y-40925000I-218750J0D01*
G01*
G37*
G36*
G01*
X12956250Y-42500000D02*
X12443750Y-42500000D01*
G75*
G02*
X12225000Y-42281250I0J218750D01*
G01*
X12225000Y-41843750D01*
G75*
G02*
X12443750Y-41625000I218750J0D01*
G01*
X12956250Y-41625000D01*
G75*
G02*
X13175000Y-41843750I0J-218750D01*
G01*
X13175000Y-42281250D01*
G75*
G02*
X12956250Y-42500000I-218750J0D01*
G01*
G37*
G36*
G01*
X3035000Y1895000D02*
X3035000Y645000D01*
G75*
G02*
X2785000Y395000I-250000J0D01*
G01*
X2035000Y395000D01*
G75*
G02*
X1785000Y645000I0J250000D01*
G01*
X1785000Y1895000D01*
G75*
G02*
X2035000Y2145000I250000J0D01*
G01*
X2785000Y2145000D01*
G75*
G02*
X3035000Y1895000I0J-250000D01*
G01*
G37*
G36*
G01*
X5835000Y1895000D02*
X5835000Y645000D01*
G75*
G02*
X5585000Y395000I-250000J0D01*
G01*
X4835000Y395000D01*
G75*
G02*
X4585000Y645000I0J250000D01*
G01*
X4585000Y1895000D01*
G75*
G02*
X4835000Y2145000I250000J0D01*
G01*
X5585000Y2145000D01*
G75*
G02*
X5835000Y1895000I0J-250000D01*
G01*
G37*
G36*
G01*
X5390000Y-4830000D02*
X5390000Y-5330000D01*
G75*
G02*
X5165000Y-5555000I-225000J0D01*
G01*
X4715000Y-5555000D01*
G75*
G02*
X4490000Y-5330000I0J225000D01*
G01*
X4490000Y-4830000D01*
G75*
G02*
X4715000Y-4605000I225000J0D01*
G01*
X5165000Y-4605000D01*
G75*
G02*
X5390000Y-4830000I0J-225000D01*
G01*
G37*
G36*
G01*
X6940000Y-4830000D02*
X6940000Y-5330000D01*
G75*
G02*
X6715000Y-5555000I-225000J0D01*
G01*
X6265000Y-5555000D01*
G75*
G02*
X6040000Y-5330000I0J225000D01*
G01*
X6040000Y-4830000D01*
G75*
G02*
X6265000Y-4605000I225000J0D01*
G01*
X6715000Y-4605000D01*
G75*
G02*
X6940000Y-4830000I0J-225000D01*
G01*
G37*
G36*
G01*
X2230000Y-5330000D02*
X2230000Y-4830000D01*
G75*
G02*
X2455000Y-4605000I225000J0D01*
G01*
X2905000Y-4605000D01*
G75*
G02*
X3130000Y-4830000I0J-225000D01*
G01*
X3130000Y-5330000D01*
G75*
G02*
X2905000Y-5555000I-225000J0D01*
G01*
X2455000Y-5555000D01*
G75*
G02*
X2230000Y-5330000I0J225000D01*
G01*
G37*
G36*
G01*
X680000Y-5330000D02*
X680000Y-4830000D01*
G75*
G02*
X905000Y-4605000I225000J0D01*
G01*
X1355000Y-4605000D01*
G75*
G02*
X1580000Y-4830000I0J-225000D01*
G01*
X1580000Y-5330000D01*
G75*
G02*
X1355000Y-5555000I-225000J0D01*
G01*
X905000Y-5555000D01*
G75*
G02*
X680000Y-5330000I0J225000D01*
G01*
G37*
M02*
