G04 #@! TF.GenerationSoftware,KiCad,Pcbnew,(5.1.9)-1*
G04 #@! TF.CreationDate,2023-06-14T07:45:37+09:00*
G04 #@! TF.ProjectId,PICo-16f1765,5049436f-2d31-4366-9631-3736352e6b69,rev?*
G04 #@! TF.SameCoordinates,Original*
G04 #@! TF.FileFunction,Copper,L2,Bot*
G04 #@! TF.FilePolarity,Positive*
%FSLAX46Y46*%
G04 Gerber Fmt 4.6, Leading zero omitted, Abs format (unit mm)*
G04 Created by KiCad (PCBNEW (5.1.9)-1) date 2023-06-14 07:45:37*
%MOMM*%
%LPD*%
G01*
G04 APERTURE LIST*
G04 #@! TA.AperFunction,ComponentPad*
%ADD10O,1.600000X1.600000*%
G04 #@! TD*
G04 #@! TA.AperFunction,ComponentPad*
%ADD11R,1.600000X1.600000*%
G04 #@! TD*
G04 #@! TA.AperFunction,ComponentPad*
%ADD12C,1.500000*%
G04 #@! TD*
G04 #@! TA.AperFunction,ComponentPad*
%ADD13O,1.700000X1.700000*%
G04 #@! TD*
G04 #@! TA.AperFunction,ComponentPad*
%ADD14R,1.700000X1.700000*%
G04 #@! TD*
G04 #@! TA.AperFunction,ViaPad*
%ADD15C,0.800000*%
G04 #@! TD*
G04 #@! TA.AperFunction,Conductor*
%ADD16C,0.800000*%
G04 #@! TD*
G04 #@! TA.AperFunction,Conductor*
%ADD17C,0.200000*%
G04 #@! TD*
G04 #@! TA.AperFunction,Conductor*
%ADD18C,0.254000*%
G04 #@! TD*
G04 #@! TA.AperFunction,Conductor*
%ADD19C,0.100000*%
G04 #@! TD*
G04 APERTURE END LIST*
D10*
X7620000Y-13970000D03*
X0Y-29210000D03*
X7620000Y-16510000D03*
X0Y-26670000D03*
X7620000Y-19050000D03*
X0Y-24130000D03*
X7620000Y-21590000D03*
X0Y-21590000D03*
X7620000Y-24130000D03*
X0Y-19050000D03*
X7620000Y-26670000D03*
X0Y-16510000D03*
X7620000Y-29210000D03*
D11*
X0Y-13970000D03*
D12*
X6150000Y-8980000D03*
X1270000Y-8980000D03*
D13*
X12700000Y-7620000D03*
X12700000Y-10160000D03*
X12700000Y-12700000D03*
X12700000Y-15240000D03*
X12700000Y-17780000D03*
X12700000Y-20320000D03*
X12700000Y-22860000D03*
X12700000Y-25400000D03*
D14*
X12700000Y-27940000D03*
D13*
X-5080000Y-27940000D03*
X-5080000Y-25400000D03*
X-5080000Y-22860000D03*
X-5080000Y-20320000D03*
X-5080000Y-17780000D03*
X-5080000Y-15240000D03*
X-5080000Y-12700000D03*
X-5080000Y-10160000D03*
D14*
X-5080000Y-7620000D03*
D13*
X10160000Y10160000D03*
X7620000Y10160000D03*
X5080000Y10160000D03*
X2540000Y10160000D03*
X0Y10160000D03*
D14*
X-2540000Y10160000D03*
D15*
X5261800Y-2932900D03*
X5210000Y-261500D03*
X5650000Y-13970000D03*
X2410000Y2748200D03*
X-2455150Y-21225100D03*
X10376600Y-25562500D03*
D16*
X5261800Y-2932900D02*
X4162100Y-1833200D01*
X4162100Y-1833200D02*
X4162100Y500600D01*
X4162100Y500600D02*
X11624700Y7963200D01*
X11624700Y7963200D02*
X11624700Y10791600D01*
X11624700Y10791600D02*
X10804000Y11612300D01*
X10804000Y11612300D02*
X6532300Y11612300D01*
X6532300Y11612300D02*
X5080000Y10160000D01*
X5261800Y-2932900D02*
X5261800Y-3114900D01*
X5261800Y-3114900D02*
X12306900Y-10160000D01*
X12306900Y-10160000D02*
X12700000Y-10160000D01*
X11249700Y-7620000D02*
X11249700Y-6301200D01*
X11249700Y-6301200D02*
X5210000Y-261500D01*
X12700000Y-7620000D02*
X11249700Y-7620000D01*
D17*
X5650000Y-13970000D02*
X7620000Y-13970000D01*
D16*
X7620000Y8709700D02*
X6883500Y8709700D01*
X6883500Y8709700D02*
X1409600Y3235800D01*
X1409600Y3235800D02*
X1409600Y-6149300D01*
X12700000Y-17780000D02*
X9097400Y-14177400D01*
X0Y-13970000D02*
X0Y-12569700D01*
X7620000Y10160000D02*
X7620000Y8709700D01*
X1409600Y-6149300D02*
X-1704300Y-6149300D01*
X-1704300Y-6149300D02*
X-2540000Y-6985000D01*
X-2540000Y-10029700D02*
X0Y-12569700D01*
X-2540000Y-6985000D02*
X-2540000Y-10029700D01*
X8291702Y-12569700D02*
X0Y-12569700D01*
X9097400Y-13375398D02*
X8291702Y-12569700D01*
X9097400Y-14177400D02*
X9097400Y-13375398D01*
X12700000Y-12700000D02*
X2410000Y-2410000D01*
X2410000Y-2410000D02*
X2410000Y2748200D01*
D17*
X-4174900Y-21225100D02*
X-5080000Y-20320000D01*
X-2455150Y-21225100D02*
X-4174900Y-21225100D01*
X7620000Y-24130000D02*
X6519700Y-24130000D01*
X6519700Y-24130000D02*
X5249700Y-25400000D01*
X5249700Y-25400000D02*
X-5080000Y-25400000D01*
X0Y-29210000D02*
X5650000Y-29210000D01*
X5650000Y-29210000D02*
X7061700Y-27798300D01*
X7061700Y-27798300D02*
X9151400Y-27798300D01*
X9151400Y-27798300D02*
X11549700Y-25400000D01*
X12700000Y-25400000D02*
X11549700Y-25400000D01*
X7620000Y-16510000D02*
X6519700Y-16510000D01*
X-5080000Y-10160000D02*
X-5080000Y-11310300D01*
X-5080000Y-11310300D02*
X-4698300Y-11310300D01*
X-4698300Y-11310300D02*
X-938200Y-15070400D01*
X-938200Y-15070400D02*
X5080100Y-15070400D01*
X5080100Y-15070400D02*
X6519700Y-16510000D01*
X11549700Y-22860000D02*
X8868100Y-25541600D01*
X8868100Y-25541600D02*
X6232900Y-25541600D01*
X6232900Y-25541600D02*
X5104500Y-26670000D01*
X5104500Y-26670000D02*
X0Y-26670000D01*
X12700000Y-22860000D02*
X11549700Y-22860000D01*
X7620000Y-19050000D02*
X6519700Y-19050000D01*
X-5080000Y-12700000D02*
X-5080000Y-13850300D01*
X-5080000Y-13850300D02*
X-4299900Y-13850300D01*
X-4299900Y-13850300D02*
X-539800Y-17610400D01*
X-539800Y-17610400D02*
X5080100Y-17610400D01*
X5080100Y-17610400D02*
X6519700Y-19050000D01*
X12700000Y-20320000D02*
X11549700Y-20320000D01*
X0Y-24130000D02*
X1100300Y-24130000D01*
X1100300Y-24130000D02*
X2200600Y-23029700D01*
X2200600Y-23029700D02*
X8840000Y-23029700D01*
X8840000Y-23029700D02*
X11549700Y-20320000D01*
X7620000Y-21590000D02*
X6519700Y-21590000D01*
X-5080000Y-15240000D02*
X-5080000Y-16390300D01*
X-5080000Y-16390300D02*
X-4230000Y-16390300D01*
X-4230000Y-16390300D02*
X-300300Y-20320000D01*
X-300300Y-20320000D02*
X5249700Y-20320000D01*
X5249700Y-20320000D02*
X6519700Y-21590000D01*
X-5080000Y-17780000D02*
X-3929700Y-17780000D01*
X0Y-21590000D02*
X-1100300Y-21590000D01*
X-3929700Y-17780000D02*
X-3929700Y-18760600D01*
X-3929700Y-18760600D02*
X-1100300Y-21590000D01*
X8720300Y-26670000D02*
X9269100Y-26670000D01*
X9269100Y-26670000D02*
X10376600Y-25562500D01*
X7620000Y-26670000D02*
X6519700Y-26670000D01*
X-5080000Y-27940000D02*
X5249700Y-27940000D01*
X5249700Y-27940000D02*
X6519700Y-26670000D01*
X7620000Y-26670000D02*
X8720300Y-26670000D01*
X12700000Y-27940000D02*
X11549700Y-27940000D01*
X11549700Y-27940000D02*
X10279700Y-29210000D01*
X10279700Y-29210000D02*
X7620000Y-29210000D01*
D18*
X6228096Y-13620961D02*
X6350085Y-13843000D01*
X7493000Y-13843000D01*
X7493000Y-13823000D01*
X7747000Y-13823000D01*
X7747000Y-13843000D01*
X7767000Y-13843000D01*
X7767000Y-14097000D01*
X7747000Y-14097000D01*
X7747000Y-14117000D01*
X7493000Y-14117000D01*
X7493000Y-14097000D01*
X6350085Y-14097000D01*
X6228096Y-14319039D01*
X6268754Y-14453087D01*
X6388963Y-14707420D01*
X6556481Y-14933414D01*
X6764869Y-15122385D01*
X6950865Y-15233933D01*
X6940273Y-15238320D01*
X6705241Y-15395363D01*
X6574875Y-15525729D01*
X5625358Y-14576212D01*
X5602338Y-14548162D01*
X5490420Y-14456313D01*
X5362733Y-14388063D01*
X5224185Y-14346035D01*
X5116205Y-14335400D01*
X5080100Y-14331844D01*
X5043995Y-14335400D01*
X1438072Y-14335400D01*
X1438072Y-13604700D01*
X6233028Y-13604700D01*
X6228096Y-13620961D01*
G04 #@! TA.AperFunction,Conductor*
D19*
G36*
X6228096Y-13620961D02*
G01*
X6350085Y-13843000D01*
X7493000Y-13843000D01*
X7493000Y-13823000D01*
X7747000Y-13823000D01*
X7747000Y-13843000D01*
X7767000Y-13843000D01*
X7767000Y-14097000D01*
X7747000Y-14097000D01*
X7747000Y-14117000D01*
X7493000Y-14117000D01*
X7493000Y-14097000D01*
X6350085Y-14097000D01*
X6228096Y-14319039D01*
X6268754Y-14453087D01*
X6388963Y-14707420D01*
X6556481Y-14933414D01*
X6764869Y-15122385D01*
X6950865Y-15233933D01*
X6940273Y-15238320D01*
X6705241Y-15395363D01*
X6574875Y-15525729D01*
X5625358Y-14576212D01*
X5602338Y-14548162D01*
X5490420Y-14456313D01*
X5362733Y-14388063D01*
X5224185Y-14346035D01*
X5116205Y-14335400D01*
X5080100Y-14331844D01*
X5043995Y-14335400D01*
X1438072Y-14335400D01*
X1438072Y-13604700D01*
X6233028Y-13604700D01*
X6228096Y-13620961D01*
G37*
G04 #@! TD.AperFunction*
M02*
