G04 #@! TF.GenerationSoftware,KiCad,Pcbnew,(5.1.9)-1*
G04 #@! TF.CreationDate,2023-06-14T07:29:02+09:00*
G04 #@! TF.ProjectId,PICo-16f1765,5049436f-2d31-4366-9631-3736352e6b69,rev?*
G04 #@! TF.SameCoordinates,Original*
G04 #@! TF.FileFunction,Legend,Top*
G04 #@! TF.FilePolarity,Positive*
%FSLAX46Y46*%
G04 Gerber Fmt 4.6, Leading zero omitted, Abs format (unit mm)*
G04 Created by KiCad (PCBNEW (5.1.9)-1) date 2023-06-14 07:29:02*
%MOMM*%
%LPD*%
G01*
G04 APERTURE LIST*
%ADD10C,0.150000*%
%ADD11C,0.120000*%
%ADD12C,0.200000*%
%ADD13C,0.100000*%
%ADD14C,0.254000*%
%ADD15C,2.200000*%
%ADD16O,1.600000X1.600000*%
%ADD17R,1.600000X1.600000*%
%ADD18C,1.500000*%
%ADD19R,1.500000X2.000000*%
%ADD20R,3.800000X2.000000*%
%ADD21R,1.600000X1.050000*%
%ADD22R,1.000000X1.500000*%
%ADD23R,0.400000X1.350000*%
%ADD24R,1.800000X1.900000*%
%ADD25R,2.100000X1.600000*%
%ADD26R,1.900000X1.900000*%
%ADD27O,1.700000X1.700000*%
%ADD28R,1.700000X1.700000*%
%ADD29R,0.510000X1.100000*%
G04 APERTURE END LIST*
D10*
X-5611190Y-42362380D02*
X-5611190Y-41362380D01*
X-5230238Y-41362380D01*
X-5135000Y-41410000D01*
X-5087380Y-41457619D01*
X-5039761Y-41552857D01*
X-5039761Y-41695714D01*
X-5087380Y-41790952D01*
X-5135000Y-41838571D01*
X-5230238Y-41886190D01*
X-5611190Y-41886190D01*
X-4611190Y-42362380D02*
X-4611190Y-41362380D01*
X-3563571Y-42267142D02*
X-3611190Y-42314761D01*
X-3754047Y-42362380D01*
X-3849285Y-42362380D01*
X-3992142Y-42314761D01*
X-4087380Y-42219523D01*
X-4135000Y-42124285D01*
X-4182619Y-41933809D01*
X-4182619Y-41790952D01*
X-4135000Y-41600476D01*
X-4087380Y-41505238D01*
X-3992142Y-41410000D01*
X-3849285Y-41362380D01*
X-3754047Y-41362380D01*
X-3611190Y-41410000D01*
X-3563571Y-41457619D01*
X-2992142Y-42362380D02*
X-3087380Y-42314761D01*
X-3135000Y-42267142D01*
X-3182619Y-42171904D01*
X-3182619Y-41886190D01*
X-3135000Y-41790952D01*
X-3087380Y-41743333D01*
X-2992142Y-41695714D01*
X-2849285Y-41695714D01*
X-2754047Y-41743333D01*
X-2706428Y-41790952D01*
X-2658809Y-41886190D01*
X-2658809Y-42171904D01*
X-2706428Y-42267142D01*
X-2754047Y-42314761D01*
X-2849285Y-42362380D01*
X-2992142Y-42362380D01*
X-2468333Y-42457619D02*
X-1706428Y-42457619D01*
X-944523Y-42362380D02*
X-1515952Y-42362380D01*
X-1230238Y-42362380D02*
X-1230238Y-41362380D01*
X-1325476Y-41505238D01*
X-1420714Y-41600476D01*
X-1515952Y-41648095D01*
X-87380Y-41362380D02*
X-277857Y-41362380D01*
X-373095Y-41410000D01*
X-420714Y-41457619D01*
X-515952Y-41600476D01*
X-563571Y-41790952D01*
X-563571Y-42171904D01*
X-515952Y-42267142D01*
X-468333Y-42314761D01*
X-373095Y-42362380D01*
X-182619Y-42362380D01*
X-87380Y-42314761D01*
X-39761Y-42267142D01*
X7857Y-42171904D01*
X7857Y-41933809D01*
X-39761Y-41838571D01*
X-87380Y-41790952D01*
X-182619Y-41743333D01*
X-373095Y-41743333D01*
X-468333Y-41790952D01*
X-515952Y-41838571D01*
X-563571Y-41933809D01*
X293571Y-41695714D02*
X674523Y-41695714D01*
X436428Y-42362380D02*
X436428Y-41505238D01*
X484047Y-41410000D01*
X579285Y-41362380D01*
X674523Y-41362380D01*
X1531666Y-42362380D02*
X960238Y-42362380D01*
X1245952Y-42362380D02*
X1245952Y-41362380D01*
X1150714Y-41505238D01*
X1055476Y-41600476D01*
X960238Y-41648095D01*
X1865000Y-41362380D02*
X2531666Y-41362380D01*
X2103095Y-42362380D01*
X3341190Y-41362380D02*
X3150714Y-41362380D01*
X3055476Y-41410000D01*
X3007857Y-41457619D01*
X2912619Y-41600476D01*
X2865000Y-41790952D01*
X2865000Y-42171904D01*
X2912619Y-42267142D01*
X2960238Y-42314761D01*
X3055476Y-42362380D01*
X3245952Y-42362380D01*
X3341190Y-42314761D01*
X3388809Y-42267142D01*
X3436428Y-42171904D01*
X3436428Y-41933809D01*
X3388809Y-41838571D01*
X3341190Y-41790952D01*
X3245952Y-41743333D01*
X3055476Y-41743333D01*
X2960238Y-41790952D01*
X2912619Y-41838571D01*
X2865000Y-41933809D01*
X4341190Y-41362380D02*
X3865000Y-41362380D01*
X3817380Y-41838571D01*
X3865000Y-41790952D01*
X3960238Y-41743333D01*
X4198333Y-41743333D01*
X4293571Y-41790952D01*
X4341190Y-41838571D01*
X4388809Y-41933809D01*
X4388809Y-42171904D01*
X4341190Y-42267142D01*
X4293571Y-42314761D01*
X4198333Y-42362380D01*
X3960238Y-42362380D01*
X3865000Y-42314761D01*
X3817380Y-42267142D01*
X1429047Y8167619D02*
X952857Y8167619D01*
X905238Y7691428D01*
X952857Y7739047D01*
X1048095Y7786666D01*
X1286190Y7786666D01*
X1381428Y7739047D01*
X1429047Y7691428D01*
X1476666Y7596190D01*
X1476666Y7358095D01*
X1429047Y7262857D01*
X1381428Y7215238D01*
X1286190Y7167619D01*
X1048095Y7167619D01*
X952857Y7215238D01*
X905238Y7262857D01*
X1810000Y7834285D02*
X2048095Y7167619D01*
X2286190Y7834285D01*
X2810000Y7405714D02*
X3286190Y7405714D01*
X2810000Y7691428D02*
X3286190Y7691428D01*
X2905238Y7310476D02*
X2667142Y7548571D01*
X2905238Y7786666D01*
X3190952Y7786666D02*
X3429047Y7548571D01*
X3190952Y7310476D01*
X3810000Y8167619D02*
X4429047Y8167619D01*
X4095714Y7786666D01*
X4238571Y7786666D01*
X4333809Y7739047D01*
X4381428Y7691428D01*
X4429047Y7596190D01*
X4429047Y7358095D01*
X4381428Y7262857D01*
X4333809Y7215238D01*
X4238571Y7167619D01*
X3952857Y7167619D01*
X3857619Y7215238D01*
X3810000Y7262857D01*
X4857619Y7262857D02*
X4905238Y7215238D01*
X4857619Y7167619D01*
X4810000Y7215238D01*
X4857619Y7262857D01*
X4857619Y7167619D01*
X5238571Y8167619D02*
X5857619Y8167619D01*
X5524285Y7786666D01*
X5667142Y7786666D01*
X5762380Y7739047D01*
X5810000Y7691428D01*
X5857619Y7596190D01*
X5857619Y7358095D01*
X5810000Y7262857D01*
X5762380Y7215238D01*
X5667142Y7167619D01*
X5381428Y7167619D01*
X5286190Y7215238D01*
X5238571Y7262857D01*
X6143333Y8167619D02*
X6476666Y7167619D01*
X6810000Y8167619D01*
D11*
X1410580Y-33530000D02*
X1129420Y-33530000D01*
X1410580Y-32510000D02*
X1129420Y-32510000D01*
X6209420Y-32510000D02*
X6490580Y-32510000D01*
X6209420Y-33530000D02*
X6490580Y-33530000D01*
X-4304420Y-3050000D02*
X-4585580Y-3050000D01*
X-4304420Y-2030000D02*
X-4585580Y-2030000D01*
X-1129420Y-3050000D02*
X-1410580Y-3050000D01*
X-1129420Y-2030000D02*
X-1410580Y-2030000D01*
X9030580Y-3050000D02*
X8749420Y-3050000D01*
X9030580Y-2030000D02*
X8749420Y-2030000D01*
X3669420Y-13460000D02*
X3950580Y-13460000D01*
X3669420Y-14480000D02*
X3950580Y-14480000D01*
X12205580Y-3050000D02*
X11924420Y-3050000D01*
X12205580Y-2030000D02*
X11924420Y-2030000D01*
X10272500Y-41512258D02*
X10272500Y-41037742D01*
X11317500Y-41512258D02*
X11317500Y-41037742D01*
X11667258Y-31637500D02*
X11192742Y-31637500D01*
X11667258Y-30592500D02*
X11192742Y-30592500D01*
X3572742Y-1382500D02*
X4047258Y-1382500D01*
X3572742Y-2427500D02*
X4047258Y-2427500D01*
X8950000Y-12580000D02*
X-1330000Y-12580000D01*
X8950000Y-30600000D02*
X8950000Y-12580000D01*
X-1330000Y-30600000D02*
X8950000Y-30600000D01*
X-1330000Y-12580000D02*
X-1330000Y-30600000D01*
X6460000Y-12640000D02*
X4810000Y-12640000D01*
X6460000Y-30540000D02*
X6460000Y-12640000D01*
X1160000Y-30540000D02*
X6460000Y-30540000D01*
X1160000Y-12640000D02*
X1160000Y-30540000D01*
X2810000Y-12640000D02*
X1160000Y-12640000D01*
X4810000Y-12640000D02*
G75*
G02*
X2810000Y-12640000I-1000000J0D01*
G01*
X585000Y-11505000D02*
X6835000Y-11505000D01*
X585000Y-6455000D02*
X6835000Y-6455000D01*
X6835000Y-11505000D02*
G75*
G03*
X6835000Y-6455000I0J2525000D01*
G01*
X585000Y-11505000D02*
G75*
G02*
X585000Y-6455000I0J2525000D01*
G01*
X-5950000Y-925000D02*
X-5950000Y5085000D01*
X870000Y1325000D02*
X870000Y5085000D01*
X-5950000Y5085000D02*
X-4690000Y5085000D01*
X870000Y5085000D02*
X-390000Y5085000D01*
X6750000Y-925000D02*
X6750000Y5085000D01*
X13570000Y1325000D02*
X13570000Y5085000D01*
X6750000Y5085000D02*
X8010000Y5085000D01*
X13570000Y5085000D02*
X12310000Y5085000D01*
D12*
X-3810000Y-38860000D02*
X-3810000Y-38860000D01*
X-3810000Y-38760000D02*
X-3810000Y-38760000D01*
X-3810000Y-38860000D02*
X-3810000Y-38860000D01*
X-2360000Y-37510000D02*
X-2360000Y-36360000D01*
X-2610000Y-37510000D02*
X-2360000Y-37510000D01*
X-2360000Y-33610000D02*
X-2360000Y-34760000D01*
X-2610000Y-33610000D02*
X-2360000Y-33610000D01*
X-5260000Y-33610000D02*
X-5010000Y-33610000D01*
X-5260000Y-34760000D02*
X-5260000Y-33610000D01*
X-5260000Y-37510000D02*
X-5260000Y-36360000D01*
X-5010000Y-37510000D02*
X-5260000Y-37510000D01*
X-3810000Y-38760000D02*
G75*
G02*
X-3810000Y-38860000I0J-50000D01*
G01*
X-3810000Y-38860000D02*
G75*
G02*
X-3810000Y-38760000I0J50000D01*
G01*
X-3810000Y-38760000D02*
G75*
G02*
X-3810000Y-38860000I0J-50000D01*
G01*
X11430000Y-32260000D02*
X11430000Y-32260000D01*
X11430000Y-32360000D02*
X11430000Y-32360000D01*
X11430000Y-32260000D02*
X11430000Y-32260000D01*
X9980000Y-33610000D02*
X9980000Y-34760000D01*
X10230000Y-33610000D02*
X9980000Y-33610000D01*
X9980000Y-37510000D02*
X9980000Y-36360000D01*
X10230000Y-37510000D02*
X9980000Y-37510000D01*
X12880000Y-37510000D02*
X12630000Y-37510000D01*
X12880000Y-36360000D02*
X12880000Y-37510000D01*
X12880000Y-33610000D02*
X12880000Y-34760000D01*
X12630000Y-33610000D02*
X12880000Y-33610000D01*
X11430000Y-32360000D02*
G75*
G02*
X11430000Y-32260000I0J50000D01*
G01*
X11430000Y-32260000D02*
G75*
G02*
X11430000Y-32360000I0J-50000D01*
G01*
X11430000Y-32360000D02*
G75*
G02*
X11430000Y-32260000I0J50000D01*
G01*
D11*
X2410000Y6715000D02*
X5210000Y6715000D01*
X5860000Y6015000D02*
X5860000Y5415000D01*
X5210000Y4715000D02*
X2410000Y4715000D01*
X1760000Y5415000D02*
X1760000Y6015000D01*
X2610000Y4515000D02*
X2310000Y4215000D01*
X2310000Y4215000D02*
X2910000Y4215000D01*
X2610000Y4515000D02*
X2910000Y4215000D01*
X1760000Y6015000D02*
G75*
G02*
X2460000Y6715000I700000J0D01*
G01*
X2460000Y4715000D02*
G75*
G02*
X1760000Y5415000I0J700000D01*
G01*
X5860000Y5415000D02*
G75*
G02*
X5160000Y4715000I-700000J0D01*
G01*
X5160000Y6715000D02*
G75*
G02*
X5860000Y6015000I0J-700000D01*
G01*
D13*
X-190000Y-48220000D02*
X7860000Y-48220000D01*
X2510000Y-42120000D02*
X2510000Y-42120000D01*
X2510000Y-42220000D02*
X2510000Y-42220000D01*
X2510000Y-42120000D02*
G75*
G02*
X2510000Y-42220000I0J-50000D01*
G01*
X2510000Y-42220000D02*
G75*
G02*
X2510000Y-42120000I0J50000D01*
G01*
D11*
X-3810000Y8890000D02*
X-3810000Y10160000D01*
X-2540000Y8890000D02*
X-3810000Y8890000D01*
X10540000Y11202929D02*
X10540000Y11600000D01*
X9780000Y11202929D02*
X9780000Y11600000D01*
X10540000Y20260000D02*
X10540000Y14260000D01*
X9780000Y20260000D02*
X10540000Y20260000D01*
X9780000Y14260000D02*
X9780000Y20260000D01*
X8890000Y11600000D02*
X8890000Y14260000D01*
X8000000Y11202929D02*
X8000000Y11600000D01*
X7240000Y11202929D02*
X7240000Y11600000D01*
X8000000Y20260000D02*
X8000000Y14260000D01*
X7240000Y20260000D02*
X8000000Y20260000D01*
X7240000Y14260000D02*
X7240000Y20260000D01*
X6350000Y11600000D02*
X6350000Y14260000D01*
X5460000Y11202929D02*
X5460000Y11600000D01*
X4700000Y11202929D02*
X4700000Y11600000D01*
X5460000Y20260000D02*
X5460000Y14260000D01*
X4700000Y20260000D02*
X5460000Y20260000D01*
X4700000Y14260000D02*
X4700000Y20260000D01*
X3810000Y11600000D02*
X3810000Y14260000D01*
X2920000Y11202929D02*
X2920000Y11600000D01*
X2160000Y11202929D02*
X2160000Y11600000D01*
X2920000Y20260000D02*
X2920000Y14260000D01*
X2160000Y20260000D02*
X2920000Y20260000D01*
X2160000Y14260000D02*
X2160000Y20260000D01*
X1270000Y11600000D02*
X1270000Y14260000D01*
X380000Y11202929D02*
X380000Y11600000D01*
X-380000Y11202929D02*
X-380000Y11600000D01*
X380000Y20260000D02*
X380000Y14260000D01*
X-380000Y20260000D02*
X380000Y20260000D01*
X-380000Y14260000D02*
X-380000Y20260000D01*
X-1270000Y11600000D02*
X-1270000Y14260000D01*
X-2160000Y11270000D02*
X-2160000Y11600000D01*
X-2920000Y11270000D02*
X-2920000Y11600000D01*
X-2260000Y14260000D02*
X-2260000Y20260000D01*
X-2380000Y14260000D02*
X-2380000Y20260000D01*
X-2500000Y14260000D02*
X-2500000Y20260000D01*
X-2620000Y14260000D02*
X-2620000Y20260000D01*
X-2740000Y14260000D02*
X-2740000Y20260000D01*
X-2860000Y14260000D02*
X-2860000Y20260000D01*
X-2160000Y20260000D02*
X-2160000Y14260000D01*
X-2920000Y20260000D02*
X-2160000Y20260000D01*
X-2920000Y14260000D02*
X-2920000Y20260000D01*
X-3870000Y14260000D02*
X-3870000Y11600000D01*
X11490000Y14260000D02*
X-3870000Y14260000D01*
X11490000Y11600000D02*
X11490000Y14260000D01*
X-3870000Y11600000D02*
X11490000Y11600000D01*
D10*
X6380000Y-39535000D02*
X6380000Y-35395000D01*
X1240000Y-40465000D02*
X1240000Y-35395000D01*
D11*
X13435000Y-42760000D02*
X13435000Y-40475000D01*
X11965000Y-42760000D02*
X13435000Y-42760000D01*
X11965000Y-40475000D02*
X11965000Y-42760000D01*
X6095000Y2405000D02*
X2210000Y2405000D01*
X6095000Y135000D02*
X6095000Y2405000D01*
X2210000Y135000D02*
X6095000Y135000D01*
X5855580Y-4570000D02*
X5574420Y-4570000D01*
X5855580Y-5590000D02*
X5574420Y-5590000D01*
X1764420Y-5590000D02*
X2045580Y-5590000D01*
X1764420Y-4570000D02*
X2045580Y-4570000D01*
D10*
X8763095Y-44267380D02*
X8763095Y-43267380D01*
X8763095Y-43743571D02*
X9334523Y-43743571D01*
X9334523Y-44267380D02*
X9334523Y-43267380D01*
X10239285Y-43600714D02*
X10239285Y-44267380D01*
X10001190Y-43219761D02*
X9763095Y-43934047D01*
X10382142Y-43934047D01*
X-5206904Y-43632380D02*
X-5206904Y-42632380D01*
X-5206904Y-43108571D02*
X-4635476Y-43108571D01*
X-4635476Y-43632380D02*
X-4635476Y-42632380D01*
X-4254523Y-42632380D02*
X-3635476Y-42632380D01*
X-3968809Y-43013333D01*
X-3825952Y-43013333D01*
X-3730714Y-43060952D01*
X-3683095Y-43108571D01*
X-3635476Y-43203809D01*
X-3635476Y-43441904D01*
X-3683095Y-43537142D01*
X-3730714Y-43584761D01*
X-3825952Y-43632380D01*
X-4111666Y-43632380D01*
X-4206904Y-43584761D01*
X-4254523Y-43537142D01*
X10668095Y16717619D02*
X10668095Y17717619D01*
X10668095Y17241428D02*
X11239523Y17241428D01*
X11239523Y16717619D02*
X11239523Y17717619D01*
X11668095Y17622380D02*
X11715714Y17670000D01*
X11810952Y17717619D01*
X12049047Y17717619D01*
X12144285Y17670000D01*
X12191904Y17622380D01*
X12239523Y17527142D01*
X12239523Y17431904D01*
X12191904Y17289047D01*
X11620476Y16717619D01*
X12239523Y16717619D01*
X-4571904Y16717619D02*
X-4571904Y17717619D01*
X-4571904Y17241428D02*
X-4000476Y17241428D01*
X-4000476Y16717619D02*
X-4000476Y17717619D01*
X-3000476Y16717619D02*
X-3571904Y16717619D01*
X-3286190Y16717619D02*
X-3286190Y17717619D01*
X-3381428Y17574761D01*
X-3476666Y17479523D01*
X-3571904Y17431904D01*
X1103333Y-32107142D02*
X1055714Y-32154761D01*
X912857Y-32202380D01*
X817619Y-32202380D01*
X674761Y-32154761D01*
X579523Y-32059523D01*
X531904Y-31964285D01*
X484285Y-31773809D01*
X484285Y-31630952D01*
X531904Y-31440476D01*
X579523Y-31345238D01*
X674761Y-31250000D01*
X817619Y-31202380D01*
X912857Y-31202380D01*
X1055714Y-31250000D01*
X1103333Y-31297619D01*
X1436666Y-31202380D02*
X2103333Y-31202380D01*
X1674761Y-32202380D01*
X6183333Y-31947142D02*
X6135714Y-31994761D01*
X5992857Y-32042380D01*
X5897619Y-32042380D01*
X5754761Y-31994761D01*
X5659523Y-31899523D01*
X5611904Y-31804285D01*
X5564285Y-31613809D01*
X5564285Y-31470952D01*
X5611904Y-31280476D01*
X5659523Y-31185238D01*
X5754761Y-31090000D01*
X5897619Y-31042380D01*
X5992857Y-31042380D01*
X6135714Y-31090000D01*
X6183333Y-31137619D01*
X7040476Y-31042380D02*
X6850000Y-31042380D01*
X6754761Y-31090000D01*
X6707142Y-31137619D01*
X6611904Y-31280476D01*
X6564285Y-31470952D01*
X6564285Y-31851904D01*
X6611904Y-31947142D01*
X6659523Y-31994761D01*
X6754761Y-32042380D01*
X6945238Y-32042380D01*
X7040476Y-31994761D01*
X7088095Y-31947142D01*
X7135714Y-31851904D01*
X7135714Y-31613809D01*
X7088095Y-31518571D01*
X7040476Y-31470952D01*
X6945238Y-31423333D01*
X6754761Y-31423333D01*
X6659523Y-31470952D01*
X6611904Y-31518571D01*
X6564285Y-31613809D01*
X-4611666Y-4327142D02*
X-4659285Y-4374761D01*
X-4802142Y-4422380D01*
X-4897380Y-4422380D01*
X-5040238Y-4374761D01*
X-5135476Y-4279523D01*
X-5183095Y-4184285D01*
X-5230714Y-3993809D01*
X-5230714Y-3850952D01*
X-5183095Y-3660476D01*
X-5135476Y-3565238D01*
X-5040238Y-3470000D01*
X-4897380Y-3422380D01*
X-4802142Y-3422380D01*
X-4659285Y-3470000D01*
X-4611666Y-3517619D01*
X-3706904Y-3422380D02*
X-4183095Y-3422380D01*
X-4230714Y-3898571D01*
X-4183095Y-3850952D01*
X-4087857Y-3803333D01*
X-3849761Y-3803333D01*
X-3754523Y-3850952D01*
X-3706904Y-3898571D01*
X-3659285Y-3993809D01*
X-3659285Y-4231904D01*
X-3706904Y-4327142D01*
X-3754523Y-4374761D01*
X-3849761Y-4422380D01*
X-4087857Y-4422380D01*
X-4183095Y-4374761D01*
X-4230714Y-4327142D01*
X-1436666Y-4327142D02*
X-1484285Y-4374761D01*
X-1627142Y-4422380D01*
X-1722380Y-4422380D01*
X-1865238Y-4374761D01*
X-1960476Y-4279523D01*
X-2008095Y-4184285D01*
X-2055714Y-3993809D01*
X-2055714Y-3850952D01*
X-2008095Y-3660476D01*
X-1960476Y-3565238D01*
X-1865238Y-3470000D01*
X-1722380Y-3422380D01*
X-1627142Y-3422380D01*
X-1484285Y-3470000D01*
X-1436666Y-3517619D01*
X-579523Y-3755714D02*
X-579523Y-4422380D01*
X-817619Y-3374761D02*
X-1055714Y-4089047D01*
X-436666Y-4089047D01*
X8723333Y-4327142D02*
X8675714Y-4374761D01*
X8532857Y-4422380D01*
X8437619Y-4422380D01*
X8294761Y-4374761D01*
X8199523Y-4279523D01*
X8151904Y-4184285D01*
X8104285Y-3993809D01*
X8104285Y-3850952D01*
X8151904Y-3660476D01*
X8199523Y-3565238D01*
X8294761Y-3470000D01*
X8437619Y-3422380D01*
X8532857Y-3422380D01*
X8675714Y-3470000D01*
X8723333Y-3517619D01*
X9056666Y-3422380D02*
X9675714Y-3422380D01*
X9342380Y-3803333D01*
X9485238Y-3803333D01*
X9580476Y-3850952D01*
X9628095Y-3898571D01*
X9675714Y-3993809D01*
X9675714Y-4231904D01*
X9628095Y-4327142D01*
X9580476Y-4374761D01*
X9485238Y-4422380D01*
X9199523Y-4422380D01*
X9104285Y-4374761D01*
X9056666Y-4327142D01*
X3643333Y-12897142D02*
X3595714Y-12944761D01*
X3452857Y-12992380D01*
X3357619Y-12992380D01*
X3214761Y-12944761D01*
X3119523Y-12849523D01*
X3071904Y-12754285D01*
X3024285Y-12563809D01*
X3024285Y-12420952D01*
X3071904Y-12230476D01*
X3119523Y-12135238D01*
X3214761Y-12040000D01*
X3357619Y-11992380D01*
X3452857Y-11992380D01*
X3595714Y-12040000D01*
X3643333Y-12087619D01*
X4024285Y-12087619D02*
X4071904Y-12040000D01*
X4167142Y-11992380D01*
X4405238Y-11992380D01*
X4500476Y-12040000D01*
X4548095Y-12087619D01*
X4595714Y-12182857D01*
X4595714Y-12278095D01*
X4548095Y-12420952D01*
X3976666Y-12992380D01*
X4595714Y-12992380D01*
X11898333Y-4327142D02*
X11850714Y-4374761D01*
X11707857Y-4422380D01*
X11612619Y-4422380D01*
X11469761Y-4374761D01*
X11374523Y-4279523D01*
X11326904Y-4184285D01*
X11279285Y-3993809D01*
X11279285Y-3850952D01*
X11326904Y-3660476D01*
X11374523Y-3565238D01*
X11469761Y-3470000D01*
X11612619Y-3422380D01*
X11707857Y-3422380D01*
X11850714Y-3470000D01*
X11898333Y-3517619D01*
X12850714Y-4422380D02*
X12279285Y-4422380D01*
X12565000Y-4422380D02*
X12565000Y-3422380D01*
X12469761Y-3565238D01*
X12374523Y-3660476D01*
X12279285Y-3708095D01*
X8707380Y-41441666D02*
X8231190Y-41775000D01*
X8707380Y-42013095D02*
X7707380Y-42013095D01*
X7707380Y-41632142D01*
X7755000Y-41536904D01*
X7802619Y-41489285D01*
X7897857Y-41441666D01*
X8040714Y-41441666D01*
X8135952Y-41489285D01*
X8183571Y-41536904D01*
X8231190Y-41632142D01*
X8231190Y-42013095D01*
X7707380Y-41108333D02*
X7707380Y-40489285D01*
X8088333Y-40822619D01*
X8088333Y-40679761D01*
X8135952Y-40584523D01*
X8183571Y-40536904D01*
X8278809Y-40489285D01*
X8516904Y-40489285D01*
X8612142Y-40536904D01*
X8659761Y-40584523D01*
X8707380Y-40679761D01*
X8707380Y-40965476D01*
X8659761Y-41060714D01*
X8612142Y-41108333D01*
X10628333Y-30297380D02*
X10295000Y-29821190D01*
X10056904Y-30297380D02*
X10056904Y-29297380D01*
X10437857Y-29297380D01*
X10533095Y-29345000D01*
X10580714Y-29392619D01*
X10628333Y-29487857D01*
X10628333Y-29630714D01*
X10580714Y-29725952D01*
X10533095Y-29773571D01*
X10437857Y-29821190D01*
X10056904Y-29821190D01*
X11009285Y-29392619D02*
X11056904Y-29345000D01*
X11152142Y-29297380D01*
X11390238Y-29297380D01*
X11485476Y-29345000D01*
X11533095Y-29392619D01*
X11580714Y-29487857D01*
X11580714Y-29583095D01*
X11533095Y-29725952D01*
X10961666Y-30297380D01*
X11580714Y-30297380D01*
X3643333Y-927380D02*
X3310000Y-451190D01*
X3071904Y-927380D02*
X3071904Y72619D01*
X3452857Y72619D01*
X3548095Y25000D01*
X3595714Y-22619D01*
X3643333Y-117857D01*
X3643333Y-260714D01*
X3595714Y-355952D01*
X3548095Y-403571D01*
X3452857Y-451190D01*
X3071904Y-451190D01*
X4595714Y-927380D02*
X4024285Y-927380D01*
X4310000Y-927380D02*
X4310000Y72619D01*
X4214761Y-70238D01*
X4119523Y-165476D01*
X4024285Y-213095D01*
X2833809Y-12092380D02*
X2833809Y-11092380D01*
X3881428Y-11997142D02*
X3833809Y-12044761D01*
X3690952Y-12092380D01*
X3595714Y-12092380D01*
X3452857Y-12044761D01*
X3357619Y-11949523D01*
X3309999Y-11854285D01*
X3262380Y-11663809D01*
X3262380Y-11520952D01*
X3309999Y-11330476D01*
X3357619Y-11235238D01*
X3452857Y-11140000D01*
X3595714Y-11092380D01*
X3690952Y-11092380D01*
X3833809Y-11140000D01*
X3881428Y-11187619D01*
X4833809Y-12092380D02*
X4262380Y-12092380D01*
X4548095Y-12092380D02*
X4548095Y-11092380D01*
X4452857Y-11235238D01*
X4357619Y-11330476D01*
X4262380Y-11378095D01*
X3233809Y-8866190D02*
X3233809Y-9342380D01*
X2900476Y-8342380D02*
X3233809Y-8866190D01*
X3567142Y-8342380D01*
X4424285Y-9342380D02*
X3852857Y-9342380D01*
X4138571Y-9342380D02*
X4138571Y-8342380D01*
X4043333Y-8485238D01*
X3948095Y-8580476D01*
X3852857Y-8628095D01*
X-3301904Y3722619D02*
X-3301904Y2913095D01*
X-3254285Y2817857D01*
X-3206666Y2770238D01*
X-3111428Y2722619D01*
X-2920952Y2722619D01*
X-2825714Y2770238D01*
X-2778095Y2817857D01*
X-2730476Y2913095D01*
X-2730476Y3722619D01*
X-2301904Y3627380D02*
X-2254285Y3675000D01*
X-2159047Y3722619D01*
X-1920952Y3722619D01*
X-1825714Y3675000D01*
X-1778095Y3627380D01*
X-1730476Y3532142D01*
X-1730476Y3436904D01*
X-1778095Y3294047D01*
X-2349523Y2722619D01*
X-1730476Y2722619D01*
X9398095Y3722619D02*
X9398095Y2913095D01*
X9445714Y2817857D01*
X9493333Y2770238D01*
X9588571Y2722619D01*
X9779047Y2722619D01*
X9874285Y2770238D01*
X9921904Y2817857D01*
X9969523Y2913095D01*
X9969523Y3722619D01*
X10969523Y2722619D02*
X10398095Y2722619D01*
X10683809Y2722619D02*
X10683809Y3722619D01*
X10588571Y3579761D01*
X10493333Y3484523D01*
X10398095Y3436904D01*
D14*
X-3295952Y-37253333D02*
X-3235476Y-37071904D01*
X-3235476Y-36769523D01*
X-3295952Y-36648571D01*
X-3356428Y-36588095D01*
X-3477380Y-36527619D01*
X-3598333Y-36527619D01*
X-3719285Y-36588095D01*
X-3779761Y-36648571D01*
X-3840238Y-36769523D01*
X-3900714Y-37011428D01*
X-3961190Y-37132380D01*
X-4021666Y-37192857D01*
X-4142619Y-37253333D01*
X-4263571Y-37253333D01*
X-4384523Y-37192857D01*
X-4445000Y-37132380D01*
X-4505476Y-37011428D01*
X-4505476Y-36709047D01*
X-4445000Y-36527619D01*
X-4505476Y-36104285D02*
X-3235476Y-35801904D01*
X-4142619Y-35560000D01*
X-3235476Y-35318095D01*
X-4505476Y-35015714D01*
X-4384523Y-34592380D02*
X-4445000Y-34531904D01*
X-4505476Y-34410952D01*
X-4505476Y-34108571D01*
X-4445000Y-33987619D01*
X-4384523Y-33927142D01*
X-4263571Y-33866666D01*
X-4142619Y-33866666D01*
X-3961190Y-33927142D01*
X-3235476Y-34652857D01*
X-3235476Y-33866666D01*
X11944047Y-37253333D02*
X12004523Y-37071904D01*
X12004523Y-36769523D01*
X11944047Y-36648571D01*
X11883571Y-36588095D01*
X11762619Y-36527619D01*
X11641666Y-36527619D01*
X11520714Y-36588095D01*
X11460238Y-36648571D01*
X11399761Y-36769523D01*
X11339285Y-37011428D01*
X11278809Y-37132380D01*
X11218333Y-37192857D01*
X11097380Y-37253333D01*
X10976428Y-37253333D01*
X10855476Y-37192857D01*
X10795000Y-37132380D01*
X10734523Y-37011428D01*
X10734523Y-36709047D01*
X10795000Y-36527619D01*
X10734523Y-36104285D02*
X12004523Y-35801904D01*
X11097380Y-35560000D01*
X12004523Y-35318095D01*
X10734523Y-35015714D01*
X12004523Y-33866666D02*
X12004523Y-34592380D01*
X12004523Y-34229523D02*
X10734523Y-34229523D01*
X10915952Y-34350476D01*
X11036904Y-34471428D01*
X11097380Y-34592380D01*
D10*
X2976666Y4357619D02*
X2976666Y3643333D01*
X2929047Y3500476D01*
X2833809Y3405238D01*
X2690952Y3357619D01*
X2595714Y3357619D01*
X3452857Y3357619D02*
X3452857Y4357619D01*
X3833809Y4357619D01*
X3929047Y4310000D01*
X3976666Y4262380D01*
X4024285Y4167142D01*
X4024285Y4024285D01*
X3976666Y3929047D01*
X3929047Y3881428D01*
X3833809Y3833809D01*
X3452857Y3833809D01*
X4976666Y3357619D02*
X4405238Y3357619D01*
X4690952Y3357619D02*
X4690952Y4357619D01*
X4595714Y4214761D01*
X4500476Y4119523D01*
X4405238Y4071904D01*
D14*
X3386666Y-44474523D02*
X3386666Y-45381666D01*
X3326190Y-45563095D01*
X3205238Y-45684047D01*
X3023809Y-45744523D01*
X2902857Y-45744523D01*
X4535714Y-44897857D02*
X4535714Y-45744523D01*
X4233333Y-44414047D02*
X3930952Y-45321190D01*
X4717142Y-45321190D01*
D10*
X-5357619Y14211666D02*
X-4643333Y14211666D01*
X-4500476Y14164047D01*
X-4405238Y14068809D01*
X-4357619Y13925952D01*
X-4357619Y13830714D01*
X-4357619Y15211666D02*
X-4357619Y14640238D01*
X-4357619Y14925952D02*
X-5357619Y14925952D01*
X-5214761Y14830714D01*
X-5119523Y14735476D01*
X-5071904Y14640238D01*
X762380Y-38441190D02*
X-237619Y-38441190D01*
X667142Y-37393571D02*
X714761Y-37441190D01*
X762380Y-37584047D01*
X762380Y-37679285D01*
X714761Y-37822142D01*
X619523Y-37917380D01*
X524285Y-37965000D01*
X333809Y-38012619D01*
X190952Y-38012619D01*
X476Y-37965000D01*
X-94761Y-37917380D01*
X-190000Y-37822142D01*
X-237619Y-37679285D01*
X-237619Y-37584047D01*
X-190000Y-37441190D01*
X-142380Y-37393571D01*
X-142380Y-37012619D02*
X-189999Y-36965000D01*
X-237619Y-36869761D01*
X-237619Y-36631666D01*
X-189999Y-36536428D01*
X-142380Y-36488809D01*
X-47142Y-36441190D01*
X48095Y-36441190D01*
X190952Y-36488809D01*
X762380Y-37060238D01*
X762380Y-36441190D01*
X9977380Y-42013095D02*
X8977380Y-42013095D01*
X8977380Y-41775000D01*
X9025000Y-41632142D01*
X9120238Y-41536904D01*
X9215476Y-41489285D01*
X9405952Y-41441666D01*
X9548809Y-41441666D01*
X9739285Y-41489285D01*
X9834523Y-41536904D01*
X9929761Y-41632142D01*
X9977380Y-41775000D01*
X9977380Y-42013095D01*
X9072619Y-41060714D02*
X9025000Y-41013095D01*
X8977380Y-40917857D01*
X8977380Y-40679761D01*
X9025000Y-40584523D01*
X9072619Y-40536904D01*
X9167857Y-40489285D01*
X9263095Y-40489285D01*
X9405952Y-40536904D01*
X9977380Y-41108333D01*
X9977380Y-40489285D01*
X3071904Y-1002380D02*
X3071904Y-2380D01*
X3310000Y-2380D01*
X3452857Y-50000D01*
X3548095Y-145238D01*
X3595714Y-240476D01*
X3643333Y-430952D01*
X3643333Y-573809D01*
X3595714Y-764285D01*
X3548095Y-859523D01*
X3452857Y-954761D01*
X3310000Y-1002380D01*
X3071904Y-1002380D01*
X4595714Y-1002380D02*
X4024285Y-1002380D01*
X4310000Y-1002380D02*
X4310000Y-2380D01*
X4214761Y-145238D01*
X4119523Y-240476D01*
X4024285Y-288095D01*
X8088333Y-5437142D02*
X8040714Y-5484761D01*
X7897857Y-5532380D01*
X7802619Y-5532380D01*
X7659761Y-5484761D01*
X7564523Y-5389523D01*
X7516904Y-5294285D01*
X7469285Y-5103809D01*
X7469285Y-4960952D01*
X7516904Y-4770476D01*
X7564523Y-4675238D01*
X7659761Y-4580000D01*
X7802619Y-4532380D01*
X7897857Y-4532380D01*
X8040714Y-4580000D01*
X8088333Y-4627619D01*
X8564523Y-5532380D02*
X8755000Y-5532380D01*
X8850238Y-5484761D01*
X8897857Y-5437142D01*
X8993095Y-5294285D01*
X9040714Y-5103809D01*
X9040714Y-4722857D01*
X8993095Y-4627619D01*
X8945476Y-4580000D01*
X8850238Y-4532380D01*
X8659761Y-4532380D01*
X8564523Y-4580000D01*
X8516904Y-4627619D01*
X8469285Y-4722857D01*
X8469285Y-4960952D01*
X8516904Y-5056190D01*
X8564523Y-5103809D01*
X8659761Y-5151428D01*
X8850238Y-5151428D01*
X8945476Y-5103809D01*
X8993095Y-5056190D01*
X9040714Y-4960952D01*
X-801666Y-5437142D02*
X-849285Y-5484761D01*
X-992142Y-5532380D01*
X-1087380Y-5532380D01*
X-1230238Y-5484761D01*
X-1325476Y-5389523D01*
X-1373095Y-5294285D01*
X-1420714Y-5103809D01*
X-1420714Y-4960952D01*
X-1373095Y-4770476D01*
X-1325476Y-4675238D01*
X-1230238Y-4580000D01*
X-1087380Y-4532380D01*
X-992142Y-4532380D01*
X-849285Y-4580000D01*
X-801666Y-4627619D01*
X-230238Y-4960952D02*
X-325476Y-4913333D01*
X-373095Y-4865714D01*
X-420714Y-4770476D01*
X-420714Y-4722857D01*
X-373095Y-4627619D01*
X-325476Y-4580000D01*
X-230238Y-4532380D01*
X-39761Y-4532380D01*
X55476Y-4580000D01*
X103095Y-4627619D01*
X150714Y-4722857D01*
X150714Y-4770476D01*
X103095Y-4865714D01*
X55476Y-4913333D01*
X-39761Y-4960952D01*
X-230238Y-4960952D01*
X-325476Y-5008571D01*
X-373095Y-5056190D01*
X-420714Y-5151428D01*
X-420714Y-5341904D01*
X-373095Y-5437142D01*
X-325476Y-5484761D01*
X-230238Y-5532380D01*
X-39761Y-5532380D01*
X55476Y-5484761D01*
X103095Y-5437142D01*
X150714Y-5341904D01*
X150714Y-5151428D01*
X103095Y-5056190D01*
X55476Y-5008571D01*
X-39761Y-4960952D01*
%LPC*%
D15*
X11430000Y-45720000D03*
X-3810000Y-45720000D03*
X11430000Y13970000D03*
X-3810000Y13970000D03*
G36*
G01*
X945000Y-32770000D02*
X945000Y-33270000D01*
G75*
G02*
X720000Y-33495000I-225000J0D01*
G01*
X270000Y-33495000D01*
G75*
G02*
X45000Y-33270000I0J225000D01*
G01*
X45000Y-32770000D01*
G75*
G02*
X270000Y-32545000I225000J0D01*
G01*
X720000Y-32545000D01*
G75*
G02*
X945000Y-32770000I0J-225000D01*
G01*
G37*
G36*
G01*
X2495000Y-32770000D02*
X2495000Y-33270000D01*
G75*
G02*
X2270000Y-33495000I-225000J0D01*
G01*
X1820000Y-33495000D01*
G75*
G02*
X1595000Y-33270000I0J225000D01*
G01*
X1595000Y-32770000D01*
G75*
G02*
X1820000Y-32545000I225000J0D01*
G01*
X2270000Y-32545000D01*
G75*
G02*
X2495000Y-32770000I0J-225000D01*
G01*
G37*
G36*
G01*
X6675000Y-33270000D02*
X6675000Y-32770000D01*
G75*
G02*
X6900000Y-32545000I225000J0D01*
G01*
X7350000Y-32545000D01*
G75*
G02*
X7575000Y-32770000I0J-225000D01*
G01*
X7575000Y-33270000D01*
G75*
G02*
X7350000Y-33495000I-225000J0D01*
G01*
X6900000Y-33495000D01*
G75*
G02*
X6675000Y-33270000I0J225000D01*
G01*
G37*
G36*
G01*
X5125000Y-33270000D02*
X5125000Y-32770000D01*
G75*
G02*
X5350000Y-32545000I225000J0D01*
G01*
X5800000Y-32545000D01*
G75*
G02*
X6025000Y-32770000I0J-225000D01*
G01*
X6025000Y-33270000D01*
G75*
G02*
X5800000Y-33495000I-225000J0D01*
G01*
X5350000Y-33495000D01*
G75*
G02*
X5125000Y-33270000I0J225000D01*
G01*
G37*
G36*
G01*
X-4770000Y-2290000D02*
X-4770000Y-2790000D01*
G75*
G02*
X-4995000Y-3015000I-225000J0D01*
G01*
X-5445000Y-3015000D01*
G75*
G02*
X-5670000Y-2790000I0J225000D01*
G01*
X-5670000Y-2290000D01*
G75*
G02*
X-5445000Y-2065000I225000J0D01*
G01*
X-4995000Y-2065000D01*
G75*
G02*
X-4770000Y-2290000I0J-225000D01*
G01*
G37*
G36*
G01*
X-3220000Y-2290000D02*
X-3220000Y-2790000D01*
G75*
G02*
X-3445000Y-3015000I-225000J0D01*
G01*
X-3895000Y-3015000D01*
G75*
G02*
X-4120000Y-2790000I0J225000D01*
G01*
X-4120000Y-2290000D01*
G75*
G02*
X-3895000Y-2065000I225000J0D01*
G01*
X-3445000Y-2065000D01*
G75*
G02*
X-3220000Y-2290000I0J-225000D01*
G01*
G37*
G36*
G01*
X-1595000Y-2290000D02*
X-1595000Y-2790000D01*
G75*
G02*
X-1820000Y-3015000I-225000J0D01*
G01*
X-2270000Y-3015000D01*
G75*
G02*
X-2495000Y-2790000I0J225000D01*
G01*
X-2495000Y-2290000D01*
G75*
G02*
X-2270000Y-2065000I225000J0D01*
G01*
X-1820000Y-2065000D01*
G75*
G02*
X-1595000Y-2290000I0J-225000D01*
G01*
G37*
G36*
G01*
X-45000Y-2290000D02*
X-45000Y-2790000D01*
G75*
G02*
X-270000Y-3015000I-225000J0D01*
G01*
X-720000Y-3015000D01*
G75*
G02*
X-945000Y-2790000I0J225000D01*
G01*
X-945000Y-2290000D01*
G75*
G02*
X-720000Y-2065000I225000J0D01*
G01*
X-270000Y-2065000D01*
G75*
G02*
X-45000Y-2290000I0J-225000D01*
G01*
G37*
G36*
G01*
X8565000Y-2290000D02*
X8565000Y-2790000D01*
G75*
G02*
X8340000Y-3015000I-225000J0D01*
G01*
X7890000Y-3015000D01*
G75*
G02*
X7665000Y-2790000I0J225000D01*
G01*
X7665000Y-2290000D01*
G75*
G02*
X7890000Y-2065000I225000J0D01*
G01*
X8340000Y-2065000D01*
G75*
G02*
X8565000Y-2290000I0J-225000D01*
G01*
G37*
G36*
G01*
X10115000Y-2290000D02*
X10115000Y-2790000D01*
G75*
G02*
X9890000Y-3015000I-225000J0D01*
G01*
X9440000Y-3015000D01*
G75*
G02*
X9215000Y-2790000I0J225000D01*
G01*
X9215000Y-2290000D01*
G75*
G02*
X9440000Y-2065000I225000J0D01*
G01*
X9890000Y-2065000D01*
G75*
G02*
X10115000Y-2290000I0J-225000D01*
G01*
G37*
G36*
G01*
X4135000Y-14220000D02*
X4135000Y-13720000D01*
G75*
G02*
X4360000Y-13495000I225000J0D01*
G01*
X4810000Y-13495000D01*
G75*
G02*
X5035000Y-13720000I0J-225000D01*
G01*
X5035000Y-14220000D01*
G75*
G02*
X4810000Y-14445000I-225000J0D01*
G01*
X4360000Y-14445000D01*
G75*
G02*
X4135000Y-14220000I0J225000D01*
G01*
G37*
G36*
G01*
X2585000Y-14220000D02*
X2585000Y-13720000D01*
G75*
G02*
X2810000Y-13495000I225000J0D01*
G01*
X3260000Y-13495000D01*
G75*
G02*
X3485000Y-13720000I0J-225000D01*
G01*
X3485000Y-14220000D01*
G75*
G02*
X3260000Y-14445000I-225000J0D01*
G01*
X2810000Y-14445000D01*
G75*
G02*
X2585000Y-14220000I0J225000D01*
G01*
G37*
G36*
G01*
X11740000Y-2290000D02*
X11740000Y-2790000D01*
G75*
G02*
X11515000Y-3015000I-225000J0D01*
G01*
X11065000Y-3015000D01*
G75*
G02*
X10840000Y-2790000I0J225000D01*
G01*
X10840000Y-2290000D01*
G75*
G02*
X11065000Y-2065000I225000J0D01*
G01*
X11515000Y-2065000D01*
G75*
G02*
X11740000Y-2290000I0J-225000D01*
G01*
G37*
G36*
G01*
X13290000Y-2290000D02*
X13290000Y-2790000D01*
G75*
G02*
X13065000Y-3015000I-225000J0D01*
G01*
X12615000Y-3015000D01*
G75*
G02*
X12390000Y-2790000I0J225000D01*
G01*
X12390000Y-2290000D01*
G75*
G02*
X12615000Y-2065000I225000J0D01*
G01*
X13065000Y-2065000D01*
G75*
G02*
X13290000Y-2290000I0J-225000D01*
G01*
G37*
G36*
G01*
X11070000Y-40850000D02*
X10520000Y-40850000D01*
G75*
G02*
X10320000Y-40650000I0J200000D01*
G01*
X10320000Y-40250000D01*
G75*
G02*
X10520000Y-40050000I200000J0D01*
G01*
X11070000Y-40050000D01*
G75*
G02*
X11270000Y-40250000I0J-200000D01*
G01*
X11270000Y-40650000D01*
G75*
G02*
X11070000Y-40850000I-200000J0D01*
G01*
G37*
G36*
G01*
X11070000Y-42500000D02*
X10520000Y-42500000D01*
G75*
G02*
X10320000Y-42300000I0J200000D01*
G01*
X10320000Y-41900000D01*
G75*
G02*
X10520000Y-41700000I200000J0D01*
G01*
X11070000Y-41700000D01*
G75*
G02*
X11270000Y-41900000I0J-200000D01*
G01*
X11270000Y-42300000D01*
G75*
G02*
X11070000Y-42500000I-200000J0D01*
G01*
G37*
G36*
G01*
X11005000Y-30840000D02*
X11005000Y-31390000D01*
G75*
G02*
X10805000Y-31590000I-200000J0D01*
G01*
X10405000Y-31590000D01*
G75*
G02*
X10205000Y-31390000I0J200000D01*
G01*
X10205000Y-30840000D01*
G75*
G02*
X10405000Y-30640000I200000J0D01*
G01*
X10805000Y-30640000D01*
G75*
G02*
X11005000Y-30840000I0J-200000D01*
G01*
G37*
G36*
G01*
X12655000Y-30840000D02*
X12655000Y-31390000D01*
G75*
G02*
X12455000Y-31590000I-200000J0D01*
G01*
X12055000Y-31590000D01*
G75*
G02*
X11855000Y-31390000I0J200000D01*
G01*
X11855000Y-30840000D01*
G75*
G02*
X12055000Y-30640000I200000J0D01*
G01*
X12455000Y-30640000D01*
G75*
G02*
X12655000Y-30840000I0J-200000D01*
G01*
G37*
G36*
G01*
X4235000Y-2180000D02*
X4235000Y-1630000D01*
G75*
G02*
X4435000Y-1430000I200000J0D01*
G01*
X4835000Y-1430000D01*
G75*
G02*
X5035000Y-1630000I0J-200000D01*
G01*
X5035000Y-2180000D01*
G75*
G02*
X4835000Y-2380000I-200000J0D01*
G01*
X4435000Y-2380000D01*
G75*
G02*
X4235000Y-2180000I0J200000D01*
G01*
G37*
G36*
G01*
X2585000Y-2180000D02*
X2585000Y-1630000D01*
G75*
G02*
X2785000Y-1430000I200000J0D01*
G01*
X3185000Y-1430000D01*
G75*
G02*
X3385000Y-1630000I0J-200000D01*
G01*
X3385000Y-2180000D01*
G75*
G02*
X3185000Y-2380000I-200000J0D01*
G01*
X2785000Y-2380000D01*
G75*
G02*
X2585000Y-2180000I0J200000D01*
G01*
G37*
D16*
X7620000Y-13970000D03*
X0Y-29210000D03*
X7620000Y-16510000D03*
X0Y-26670000D03*
X7620000Y-19050000D03*
X0Y-24130000D03*
X7620000Y-21590000D03*
X0Y-21590000D03*
X7620000Y-24130000D03*
X0Y-19050000D03*
X7620000Y-26670000D03*
X0Y-16510000D03*
X7620000Y-29210000D03*
D17*
X0Y-13970000D03*
D18*
X6150000Y-8980000D03*
X1270000Y-8980000D03*
D19*
X-4840000Y25000D03*
X-240000Y25000D03*
X-2540000Y25000D03*
D20*
X-2540000Y6325000D03*
D19*
X7860000Y25000D03*
X12460000Y25000D03*
X10160000Y25000D03*
D20*
X10160000Y6325000D03*
D21*
X-3810000Y-37785000D03*
X-3810000Y-33335000D03*
X11430000Y-33335000D03*
X11430000Y-37785000D03*
D13*
G36*
X3060000Y4965000D02*
G01*
X2510000Y4965000D01*
X2510000Y4965602D01*
X2485466Y4965602D01*
X2436635Y4970412D01*
X2388510Y4979984D01*
X2341555Y4994228D01*
X2296222Y5013005D01*
X2252949Y5036136D01*
X2212150Y5063396D01*
X2174221Y5094524D01*
X2139524Y5129221D01*
X2108396Y5167150D01*
X2081136Y5207949D01*
X2058005Y5251222D01*
X2039228Y5296555D01*
X2024984Y5343510D01*
X2015412Y5391635D01*
X2010602Y5440466D01*
X2010602Y5465000D01*
X2010000Y5465000D01*
X2010000Y5965000D01*
X2010602Y5965000D01*
X2010602Y5989534D01*
X2015412Y6038365D01*
X2024984Y6086490D01*
X2039228Y6133445D01*
X2058005Y6178778D01*
X2081136Y6222051D01*
X2108396Y6262850D01*
X2139524Y6300779D01*
X2174221Y6335476D01*
X2212150Y6366604D01*
X2252949Y6393864D01*
X2296222Y6416995D01*
X2341555Y6435772D01*
X2388510Y6450016D01*
X2436635Y6459588D01*
X2485466Y6464398D01*
X2510000Y6464398D01*
X2510000Y6465000D01*
X3060000Y6465000D01*
X3060000Y4965000D01*
G37*
D22*
X3810000Y5715000D03*
D13*
G36*
X5110000Y6464398D02*
G01*
X5134534Y6464398D01*
X5183365Y6459588D01*
X5231490Y6450016D01*
X5278445Y6435772D01*
X5323778Y6416995D01*
X5367051Y6393864D01*
X5407850Y6366604D01*
X5445779Y6335476D01*
X5480476Y6300779D01*
X5511604Y6262850D01*
X5538864Y6222051D01*
X5561995Y6178778D01*
X5580772Y6133445D01*
X5595016Y6086490D01*
X5604588Y6038365D01*
X5609398Y5989534D01*
X5609398Y5965000D01*
X5610000Y5965000D01*
X5610000Y5465000D01*
X5609398Y5465000D01*
X5609398Y5440466D01*
X5604588Y5391635D01*
X5595016Y5343510D01*
X5580772Y5296555D01*
X5561995Y5251222D01*
X5538864Y5207949D01*
X5511604Y5167150D01*
X5480476Y5129221D01*
X5445779Y5094524D01*
X5407850Y5063396D01*
X5367051Y5036136D01*
X5323778Y5013005D01*
X5278445Y4994228D01*
X5231490Y4979984D01*
X5183365Y4970412D01*
X5134534Y4965602D01*
X5110000Y4965602D01*
X5110000Y4965000D01*
X4560000Y4965000D01*
X4560000Y6465000D01*
X5110000Y6465000D01*
X5110000Y6464398D01*
G37*
D23*
X2510000Y-43395000D03*
X3160000Y-43395000D03*
X3810000Y-43395000D03*
X4460000Y-43395000D03*
X5110000Y-43395000D03*
D24*
X-190000Y-46070000D03*
X7810000Y-46070000D03*
D25*
X710000Y-43520000D03*
X6910000Y-43520000D03*
D26*
X2610000Y-46070000D03*
X5010000Y-46070000D03*
D27*
X12700000Y-7620000D03*
X12700000Y-10160000D03*
X12700000Y-12700000D03*
X12700000Y-15240000D03*
X12700000Y-17780000D03*
X12700000Y-20320000D03*
X12700000Y-22860000D03*
X12700000Y-25400000D03*
D28*
X12700000Y-27940000D03*
D27*
X-5080000Y-27940000D03*
X-5080000Y-25400000D03*
X-5080000Y-22860000D03*
X-5080000Y-20320000D03*
X-5080000Y-17780000D03*
X-5080000Y-15240000D03*
X-5080000Y-12700000D03*
X-5080000Y-10160000D03*
D28*
X-5080000Y-7620000D03*
D27*
X10160000Y10160000D03*
X7620000Y10160000D03*
X5080000Y10160000D03*
X2540000Y10160000D03*
X0Y10160000D03*
D28*
X-2540000Y10160000D03*
D29*
X1810000Y-34915000D03*
X2810000Y-34915000D03*
X5810000Y-40015000D03*
X3810000Y-34915000D03*
X4810000Y-34915000D03*
X5810000Y-34915000D03*
X4810000Y-40015000D03*
X3810000Y-40015000D03*
X2810000Y-40015000D03*
X1810000Y-40015000D03*
G36*
G01*
X12956250Y-40925000D02*
X12443750Y-40925000D01*
G75*
G02*
X12225000Y-40706250I0J218750D01*
G01*
X12225000Y-40268750D01*
G75*
G02*
X12443750Y-40050000I218750J0D01*
G01*
X12956250Y-40050000D01*
G75*
G02*
X13175000Y-40268750I0J-218750D01*
G01*
X13175000Y-40706250D01*
G75*
G02*
X12956250Y-40925000I-218750J0D01*
G01*
G37*
G36*
G01*
X12956250Y-42500000D02*
X12443750Y-42500000D01*
G75*
G02*
X12225000Y-42281250I0J218750D01*
G01*
X12225000Y-41843750D01*
G75*
G02*
X12443750Y-41625000I218750J0D01*
G01*
X12956250Y-41625000D01*
G75*
G02*
X13175000Y-41843750I0J-218750D01*
G01*
X13175000Y-42281250D01*
G75*
G02*
X12956250Y-42500000I-218750J0D01*
G01*
G37*
G36*
G01*
X3035000Y1895000D02*
X3035000Y645000D01*
G75*
G02*
X2785000Y395000I-250000J0D01*
G01*
X2035000Y395000D01*
G75*
G02*
X1785000Y645000I0J250000D01*
G01*
X1785000Y1895000D01*
G75*
G02*
X2035000Y2145000I250000J0D01*
G01*
X2785000Y2145000D01*
G75*
G02*
X3035000Y1895000I0J-250000D01*
G01*
G37*
G36*
G01*
X5835000Y1895000D02*
X5835000Y645000D01*
G75*
G02*
X5585000Y395000I-250000J0D01*
G01*
X4835000Y395000D01*
G75*
G02*
X4585000Y645000I0J250000D01*
G01*
X4585000Y1895000D01*
G75*
G02*
X4835000Y2145000I250000J0D01*
G01*
X5585000Y2145000D01*
G75*
G02*
X5835000Y1895000I0J-250000D01*
G01*
G37*
G36*
G01*
X5390000Y-4830000D02*
X5390000Y-5330000D01*
G75*
G02*
X5165000Y-5555000I-225000J0D01*
G01*
X4715000Y-5555000D01*
G75*
G02*
X4490000Y-5330000I0J225000D01*
G01*
X4490000Y-4830000D01*
G75*
G02*
X4715000Y-4605000I225000J0D01*
G01*
X5165000Y-4605000D01*
G75*
G02*
X5390000Y-4830000I0J-225000D01*
G01*
G37*
G36*
G01*
X6940000Y-4830000D02*
X6940000Y-5330000D01*
G75*
G02*
X6715000Y-5555000I-225000J0D01*
G01*
X6265000Y-5555000D01*
G75*
G02*
X6040000Y-5330000I0J225000D01*
G01*
X6040000Y-4830000D01*
G75*
G02*
X6265000Y-4605000I225000J0D01*
G01*
X6715000Y-4605000D01*
G75*
G02*
X6940000Y-4830000I0J-225000D01*
G01*
G37*
G36*
G01*
X2230000Y-5330000D02*
X2230000Y-4830000D01*
G75*
G02*
X2455000Y-4605000I225000J0D01*
G01*
X2905000Y-4605000D01*
G75*
G02*
X3130000Y-4830000I0J-225000D01*
G01*
X3130000Y-5330000D01*
G75*
G02*
X2905000Y-5555000I-225000J0D01*
G01*
X2455000Y-5555000D01*
G75*
G02*
X2230000Y-5330000I0J225000D01*
G01*
G37*
G36*
G01*
X680000Y-5330000D02*
X680000Y-4830000D01*
G75*
G02*
X905000Y-4605000I225000J0D01*
G01*
X1355000Y-4605000D01*
G75*
G02*
X1580000Y-4830000I0J-225000D01*
G01*
X1580000Y-5330000D01*
G75*
G02*
X1355000Y-5555000I-225000J0D01*
G01*
X905000Y-5555000D01*
G75*
G02*
X680000Y-5330000I0J225000D01*
G01*
G37*
M02*
