%FSLAX45Y45*%
G04 Gerber Fmt 4.5, Leading zero omitted, Abs format (unit mm)*
G04 Created by KiCad (PCBNEW (5.1.9)-1) date 2023-06-14 07:29:20*
%MOMM*%
%LPD*%
G01*
G04 APERTURE LIST*
%TA.AperFunction,Profile*%
%ADD10C,0.050000*%
%TD*%
%ADD11C,0.200000*%
%ADD12C,0.300000*%
G04 APERTURE END LIST*
D10*
X1397000Y-4572000D02*
G75*
G02*
X1143000Y-4826000I-254000J0D01*
G01*
X-381000Y-4826000D02*
G75*
G02*
X-635000Y-4572000I0J254000D01*
G01*
X-635000Y1397000D02*
G75*
G02*
X-381000Y1651000I254000J0D01*
G01*
X1143000Y1651000D02*
G75*
G02*
X1397000Y1397000I0J-254000D01*
G01*
X-381000Y1651000D02*
X1143000Y1651000D01*
X-635000Y-4572000D02*
X-635000Y1397000D01*
X1143000Y-4826000D02*
X-381000Y-4826000D01*
X1397000Y1397000D02*
X1397000Y-4572000D01*
D11*
X-265515Y-2102510D02*
X-225515Y-2142510D01*
X-225515Y-2102510D02*
X-265515Y-2142510D01*
X221000Y294820D02*
X261000Y254820D01*
X261000Y294820D02*
X221000Y254820D01*
X501000Y-6150D02*
X541000Y-46150D01*
X541000Y-6150D02*
X501000Y-46150D01*
X506180Y-273290D02*
X546180Y-313290D01*
X546180Y-273290D02*
X506180Y-313290D01*
X545000Y-1377000D02*
X585000Y-1417000D01*
X585000Y-1377000D02*
X545000Y-1417000D01*
X1017660Y-2536250D02*
X1057660Y-2576250D01*
X1057660Y-2536250D02*
X1017660Y-2576250D01*
X40000Y-1397000D02*
G75*
G03*
X40000Y-1397000I-40000J0D01*
G01*
X40000Y-1651000D02*
G75*
G03*
X40000Y-1651000I-40000J0D01*
G01*
X40000Y-1905000D02*
G75*
G03*
X40000Y-1905000I-40000J0D01*
G01*
X40000Y-2159000D02*
G75*
G03*
X40000Y-2159000I-40000J0D01*
G01*
X40000Y-2413000D02*
G75*
G03*
X40000Y-2413000I-40000J0D01*
G01*
X40000Y-2667000D02*
G75*
G03*
X40000Y-2667000I-40000J0D01*
G01*
X40000Y-2921000D02*
G75*
G03*
X40000Y-2921000I-40000J0D01*
G01*
X167000Y-898000D02*
G75*
G03*
X167000Y-898000I-40000J0D01*
G01*
X655000Y-898000D02*
G75*
G03*
X655000Y-898000I-40000J0D01*
G01*
X802000Y-1397000D02*
G75*
G03*
X802000Y-1397000I-40000J0D01*
G01*
X802000Y-1651000D02*
G75*
G03*
X802000Y-1651000I-40000J0D01*
G01*
X802000Y-1905000D02*
G75*
G03*
X802000Y-1905000I-40000J0D01*
G01*
X802000Y-2159000D02*
G75*
G03*
X802000Y-2159000I-40000J0D01*
G01*
X802000Y-2413000D02*
G75*
G03*
X802000Y-2413000I-40000J0D01*
G01*
X802000Y-2667000D02*
G75*
G03*
X802000Y-2667000I-40000J0D01*
G01*
X802000Y-2921000D02*
G75*
G03*
X802000Y-2921000I-40000J0D01*
G01*
X-508000Y-712000D02*
X-508000Y-812000D01*
X-558000Y-762000D02*
X-458000Y-762000D01*
X-508000Y-966000D02*
X-508000Y-1066000D01*
X-558000Y-1016000D02*
X-458000Y-1016000D01*
X-508000Y-1220000D02*
X-508000Y-1320000D01*
X-558000Y-1270000D02*
X-458000Y-1270000D01*
X-508000Y-1474000D02*
X-508000Y-1574000D01*
X-558000Y-1524000D02*
X-458000Y-1524000D01*
X-508000Y-1728000D02*
X-508000Y-1828000D01*
X-558000Y-1778000D02*
X-458000Y-1778000D01*
X-508000Y-1982000D02*
X-508000Y-2082000D01*
X-558000Y-2032000D02*
X-458000Y-2032000D01*
X-508000Y-2236000D02*
X-508000Y-2336000D01*
X-558000Y-2286000D02*
X-458000Y-2286000D01*
X-508000Y-2490000D02*
X-508000Y-2590000D01*
X-558000Y-2540000D02*
X-458000Y-2540000D01*
X-508000Y-2744000D02*
X-508000Y-2844000D01*
X-558000Y-2794000D02*
X-458000Y-2794000D01*
X-254000Y1066000D02*
X-254000Y966000D01*
X-304000Y1016000D02*
X-204000Y1016000D01*
X0Y1066000D02*
X0Y966000D01*
X-50000Y1016000D02*
X50000Y1016000D01*
X254000Y1066000D02*
X254000Y966000D01*
X204000Y1016000D02*
X304000Y1016000D01*
X508000Y1066000D02*
X508000Y966000D01*
X458000Y1016000D02*
X558000Y1016000D01*
X762000Y1066000D02*
X762000Y966000D01*
X712000Y1016000D02*
X812000Y1016000D01*
X1016000Y1066000D02*
X1016000Y966000D01*
X966000Y1016000D02*
X1066000Y1016000D01*
X1270000Y-712000D02*
X1270000Y-812000D01*
X1220000Y-762000D02*
X1320000Y-762000D01*
X1270000Y-966000D02*
X1270000Y-1066000D01*
X1220000Y-1016000D02*
X1320000Y-1016000D01*
X1270000Y-1220000D02*
X1270000Y-1320000D01*
X1220000Y-1270000D02*
X1320000Y-1270000D01*
X1270000Y-1474000D02*
X1270000Y-1574000D01*
X1220000Y-1524000D02*
X1320000Y-1524000D01*
X1270000Y-1728000D02*
X1270000Y-1828000D01*
X1220000Y-1778000D02*
X1320000Y-1778000D01*
X1270000Y-1982000D02*
X1270000Y-2082000D01*
X1220000Y-2032000D02*
X1320000Y-2032000D01*
X1270000Y-2236000D02*
X1270000Y-2336000D01*
X1220000Y-2286000D02*
X1320000Y-2286000D01*
X1270000Y-2490000D02*
X1270000Y-2590000D01*
X1220000Y-2540000D02*
X1320000Y-2540000D01*
X1270000Y-2744000D02*
X1270000Y-2844000D01*
X1220000Y-2794000D02*
X1320000Y-2794000D01*
D12*
X-351071Y-5294214D02*
X-351071Y-4994214D01*
X-279643Y-4994214D01*
X-236786Y-5008500D01*
X-208214Y-5037072D01*
X-193929Y-5065643D01*
X-179643Y-5122786D01*
X-179643Y-5165643D01*
X-193929Y-5222786D01*
X-208214Y-5251357D01*
X-236786Y-5279929D01*
X-279643Y-5294214D01*
X-351071Y-5294214D01*
X-51071Y-5294214D02*
X-51071Y-5094214D01*
X-51071Y-5151357D02*
X-36786Y-5122786D01*
X-22500Y-5108500D01*
X6071Y-5094214D01*
X34643Y-5094214D01*
X134643Y-5294214D02*
X134643Y-5094214D01*
X134643Y-4994214D02*
X120357Y-5008500D01*
X134643Y-5022786D01*
X148928Y-5008500D01*
X134643Y-4994214D01*
X134643Y-5022786D01*
X320357Y-5294214D02*
X291786Y-5279929D01*
X277500Y-5251357D01*
X277500Y-4994214D01*
X477500Y-5294214D02*
X448928Y-5279929D01*
X434643Y-5251357D01*
X434643Y-4994214D01*
X820357Y-5294214D02*
X820357Y-4994214D01*
X920357Y-5208500D01*
X1020357Y-4994214D01*
X1020357Y-5294214D01*
X1291786Y-5294214D02*
X1291786Y-5137072D01*
X1277500Y-5108500D01*
X1248928Y-5094214D01*
X1191786Y-5094214D01*
X1163214Y-5108500D01*
X1291786Y-5279929D02*
X1263214Y-5294214D01*
X1191786Y-5294214D01*
X1163214Y-5279929D01*
X1148928Y-5251357D01*
X1148928Y-5222786D01*
X1163214Y-5194214D01*
X1191786Y-5179929D01*
X1263214Y-5179929D01*
X1291786Y-5165643D01*
X1434643Y-5094214D02*
X1434643Y-5394214D01*
X1434643Y-5108500D02*
X1463214Y-5094214D01*
X1520357Y-5094214D01*
X1548928Y-5108500D01*
X1563214Y-5122786D01*
X1577500Y-5151357D01*
X1577500Y-5237072D01*
X1563214Y-5265643D01*
X1548928Y-5279929D01*
X1520357Y-5294214D01*
X1463214Y-5294214D01*
X1434643Y-5279929D01*
X1706071Y-5265643D02*
X1720357Y-5279929D01*
X1706071Y-5294214D01*
X1691786Y-5279929D01*
X1706071Y-5265643D01*
X1706071Y-5294214D01*
X1706071Y-5108500D02*
X1720357Y-5122786D01*
X1706071Y-5137072D01*
X1691786Y-5122786D01*
X1706071Y-5108500D01*
X1706071Y-5137072D01*
X-677500Y-5768500D02*
X-637500Y-5808500D01*
X-637500Y-5768500D02*
X-677500Y-5808500D01*
X-293929Y-5624214D02*
X-265357Y-5624214D01*
X-236786Y-5638500D01*
X-222500Y-5652786D01*
X-208214Y-5681357D01*
X-193929Y-5738500D01*
X-193929Y-5809929D01*
X-208214Y-5867071D01*
X-222500Y-5895643D01*
X-236786Y-5909929D01*
X-265357Y-5924214D01*
X-293929Y-5924214D01*
X-322500Y-5909929D01*
X-336786Y-5895643D01*
X-351071Y-5867071D01*
X-365357Y-5809929D01*
X-365357Y-5738500D01*
X-351071Y-5681357D01*
X-336786Y-5652786D01*
X-322500Y-5638500D01*
X-293929Y-5624214D01*
X-65357Y-5895643D02*
X-51071Y-5909929D01*
X-65357Y-5924214D01*
X-79643Y-5909929D01*
X-65357Y-5895643D01*
X-65357Y-5924214D01*
X206071Y-5724214D02*
X206071Y-5924214D01*
X134643Y-5609929D02*
X63214Y-5824214D01*
X248928Y-5824214D01*
X420357Y-5624214D02*
X448928Y-5624214D01*
X477500Y-5638500D01*
X491786Y-5652786D01*
X506071Y-5681357D01*
X520357Y-5738500D01*
X520357Y-5809929D01*
X506071Y-5867071D01*
X491786Y-5895643D01*
X477500Y-5909929D01*
X448928Y-5924214D01*
X420357Y-5924214D01*
X391786Y-5909929D01*
X377500Y-5895643D01*
X363214Y-5867071D01*
X348928Y-5809929D01*
X348928Y-5738500D01*
X363214Y-5681357D01*
X377500Y-5652786D01*
X391786Y-5638500D01*
X420357Y-5624214D01*
X648928Y-5924214D02*
X648928Y-5724214D01*
X648928Y-5752786D02*
X663214Y-5738500D01*
X691786Y-5724214D01*
X734643Y-5724214D01*
X763214Y-5738500D01*
X777500Y-5767071D01*
X777500Y-5924214D01*
X777500Y-5767071D02*
X791786Y-5738500D01*
X820357Y-5724214D01*
X863214Y-5724214D01*
X891786Y-5738500D01*
X906071Y-5767071D01*
X906071Y-5924214D01*
X1048928Y-5924214D02*
X1048928Y-5724214D01*
X1048928Y-5752786D02*
X1063214Y-5738500D01*
X1091786Y-5724214D01*
X1134643Y-5724214D01*
X1163214Y-5738500D01*
X1177500Y-5767071D01*
X1177500Y-5924214D01*
X1177500Y-5767071D02*
X1191786Y-5738500D01*
X1220357Y-5724214D01*
X1263214Y-5724214D01*
X1291786Y-5738500D01*
X1306071Y-5767071D01*
X1306071Y-5924214D01*
X1891786Y-5609929D02*
X1634643Y-5995643D01*
X2277500Y-5624214D02*
X2306071Y-5624214D01*
X2334643Y-5638500D01*
X2348928Y-5652786D01*
X2363214Y-5681357D01*
X2377500Y-5738500D01*
X2377500Y-5809929D01*
X2363214Y-5867071D01*
X2348928Y-5895643D01*
X2334643Y-5909929D01*
X2306071Y-5924214D01*
X2277500Y-5924214D01*
X2248928Y-5909929D01*
X2234643Y-5895643D01*
X2220357Y-5867071D01*
X2206071Y-5809929D01*
X2206071Y-5738500D01*
X2220357Y-5681357D01*
X2234643Y-5652786D01*
X2248928Y-5638500D01*
X2277500Y-5624214D01*
X2506071Y-5895643D02*
X2520357Y-5909929D01*
X2506071Y-5924214D01*
X2491786Y-5909929D01*
X2506071Y-5895643D01*
X2506071Y-5924214D01*
X2706071Y-5624214D02*
X2734643Y-5624214D01*
X2763214Y-5638500D01*
X2777500Y-5652786D01*
X2791786Y-5681357D01*
X2806071Y-5738500D01*
X2806071Y-5809929D01*
X2791786Y-5867071D01*
X2777500Y-5895643D01*
X2763214Y-5909929D01*
X2734643Y-5924214D01*
X2706071Y-5924214D01*
X2677500Y-5909929D01*
X2663214Y-5895643D01*
X2648928Y-5867071D01*
X2634643Y-5809929D01*
X2634643Y-5738500D01*
X2648928Y-5681357D01*
X2663214Y-5652786D01*
X2677500Y-5638500D01*
X2706071Y-5624214D01*
X3091786Y-5924214D02*
X2920357Y-5924214D01*
X3006071Y-5924214D02*
X3006071Y-5624214D01*
X2977500Y-5667071D01*
X2948928Y-5695643D01*
X2920357Y-5709929D01*
X3348928Y-5624214D02*
X3291786Y-5624214D01*
X3263214Y-5638500D01*
X3248928Y-5652786D01*
X3220357Y-5695643D01*
X3206071Y-5752786D01*
X3206071Y-5867071D01*
X3220357Y-5895643D01*
X3234643Y-5909929D01*
X3263214Y-5924214D01*
X3320357Y-5924214D01*
X3348928Y-5909929D01*
X3363214Y-5895643D01*
X3377500Y-5867071D01*
X3377500Y-5795643D01*
X3363214Y-5767071D01*
X3348928Y-5752786D01*
X3320357Y-5738500D01*
X3263214Y-5738500D01*
X3234643Y-5752786D01*
X3220357Y-5767071D01*
X3206071Y-5795643D01*
X3491786Y-5624214D02*
X3491786Y-5681357D01*
X3606071Y-5624214D02*
X3606071Y-5681357D01*
X4048928Y-6038500D02*
X4034643Y-6024214D01*
X4006071Y-5981357D01*
X3991786Y-5952786D01*
X3977500Y-5909929D01*
X3963214Y-5838500D01*
X3963214Y-5781357D01*
X3977500Y-5709929D01*
X3991786Y-5667071D01*
X4006071Y-5638500D01*
X4034643Y-5595643D01*
X4048928Y-5581357D01*
X4291786Y-5624214D02*
X4234643Y-5624214D01*
X4206071Y-5638500D01*
X4191786Y-5652786D01*
X4163214Y-5695643D01*
X4148928Y-5752786D01*
X4148928Y-5867071D01*
X4163214Y-5895643D01*
X4177500Y-5909929D01*
X4206071Y-5924214D01*
X4263214Y-5924214D01*
X4291786Y-5909929D01*
X4306071Y-5895643D01*
X4320357Y-5867071D01*
X4320357Y-5795643D01*
X4306071Y-5767071D01*
X4291786Y-5752786D01*
X4263214Y-5738500D01*
X4206071Y-5738500D01*
X4177500Y-5752786D01*
X4163214Y-5767071D01*
X4148928Y-5795643D01*
X4677500Y-5924214D02*
X4677500Y-5624214D01*
X4806071Y-5924214D02*
X4806071Y-5767071D01*
X4791786Y-5738500D01*
X4763214Y-5724214D01*
X4720357Y-5724214D01*
X4691786Y-5738500D01*
X4677500Y-5752786D01*
X4991786Y-5924214D02*
X4963214Y-5909929D01*
X4948928Y-5895643D01*
X4934643Y-5867071D01*
X4934643Y-5781357D01*
X4948928Y-5752786D01*
X4963214Y-5738500D01*
X4991786Y-5724214D01*
X5034643Y-5724214D01*
X5063214Y-5738500D01*
X5077500Y-5752786D01*
X5091786Y-5781357D01*
X5091786Y-5867071D01*
X5077500Y-5895643D01*
X5063214Y-5909929D01*
X5034643Y-5924214D01*
X4991786Y-5924214D01*
X5263214Y-5924214D02*
X5234643Y-5909929D01*
X5220357Y-5881357D01*
X5220357Y-5624214D01*
X5491786Y-5909929D02*
X5463214Y-5924214D01*
X5406071Y-5924214D01*
X5377500Y-5909929D01*
X5363214Y-5881357D01*
X5363214Y-5767071D01*
X5377500Y-5738500D01*
X5406071Y-5724214D01*
X5463214Y-5724214D01*
X5491786Y-5738500D01*
X5506071Y-5767071D01*
X5506071Y-5795643D01*
X5363214Y-5824214D01*
X5620357Y-5909929D02*
X5648928Y-5924214D01*
X5706071Y-5924214D01*
X5734643Y-5909929D01*
X5748928Y-5881357D01*
X5748928Y-5867071D01*
X5734643Y-5838500D01*
X5706071Y-5824214D01*
X5663214Y-5824214D01*
X5634643Y-5809929D01*
X5620357Y-5781357D01*
X5620357Y-5767071D01*
X5634643Y-5738500D01*
X5663214Y-5724214D01*
X5706071Y-5724214D01*
X5734643Y-5738500D01*
X5848928Y-6038500D02*
X5863214Y-6024214D01*
X5891786Y-5981357D01*
X5906071Y-5952786D01*
X5920357Y-5909929D01*
X5934643Y-5838500D01*
X5934643Y-5781357D01*
X5920357Y-5709929D01*
X5906071Y-5667071D01*
X5891786Y-5638500D01*
X5863214Y-5595643D01*
X5848928Y-5581357D01*
X-637500Y-6184500D02*
G75*
G03*
X-637500Y-6184500I-40000J0D01*
G01*
X-293929Y-6020214D02*
X-265357Y-6020214D01*
X-236786Y-6034500D01*
X-222500Y-6048786D01*
X-208214Y-6077357D01*
X-193929Y-6134500D01*
X-193929Y-6205929D01*
X-208214Y-6263071D01*
X-222500Y-6291643D01*
X-236786Y-6305929D01*
X-265357Y-6320214D01*
X-293929Y-6320214D01*
X-322500Y-6305929D01*
X-336786Y-6291643D01*
X-351071Y-6263071D01*
X-365357Y-6205929D01*
X-365357Y-6134500D01*
X-351071Y-6077357D01*
X-336786Y-6048786D01*
X-322500Y-6034500D01*
X-293929Y-6020214D01*
X-65357Y-6291643D02*
X-51071Y-6305929D01*
X-65357Y-6320214D01*
X-79643Y-6305929D01*
X-65357Y-6291643D01*
X-65357Y-6320214D01*
X120357Y-6148786D02*
X91786Y-6134500D01*
X77500Y-6120214D01*
X63214Y-6091643D01*
X63214Y-6077357D01*
X77500Y-6048786D01*
X91786Y-6034500D01*
X120357Y-6020214D01*
X177500Y-6020214D01*
X206071Y-6034500D01*
X220357Y-6048786D01*
X234643Y-6077357D01*
X234643Y-6091643D01*
X220357Y-6120214D01*
X206071Y-6134500D01*
X177500Y-6148786D01*
X120357Y-6148786D01*
X91786Y-6163071D01*
X77500Y-6177357D01*
X63214Y-6205929D01*
X63214Y-6263071D01*
X77500Y-6291643D01*
X91786Y-6305929D01*
X120357Y-6320214D01*
X177500Y-6320214D01*
X206071Y-6305929D01*
X220357Y-6291643D01*
X234643Y-6263071D01*
X234643Y-6205929D01*
X220357Y-6177357D01*
X206071Y-6163071D01*
X177500Y-6148786D01*
X420357Y-6020214D02*
X448928Y-6020214D01*
X477500Y-6034500D01*
X491786Y-6048786D01*
X506071Y-6077357D01*
X520357Y-6134500D01*
X520357Y-6205929D01*
X506071Y-6263071D01*
X491786Y-6291643D01*
X477500Y-6305929D01*
X448928Y-6320214D01*
X420357Y-6320214D01*
X391786Y-6305929D01*
X377500Y-6291643D01*
X363214Y-6263071D01*
X348928Y-6205929D01*
X348928Y-6134500D01*
X363214Y-6077357D01*
X377500Y-6048786D01*
X391786Y-6034500D01*
X420357Y-6020214D01*
X648928Y-6320214D02*
X648928Y-6120214D01*
X648928Y-6148786D02*
X663214Y-6134500D01*
X691786Y-6120214D01*
X734643Y-6120214D01*
X763214Y-6134500D01*
X777500Y-6163071D01*
X777500Y-6320214D01*
X777500Y-6163071D02*
X791786Y-6134500D01*
X820357Y-6120214D01*
X863214Y-6120214D01*
X891786Y-6134500D01*
X906071Y-6163071D01*
X906071Y-6320214D01*
X1048928Y-6320214D02*
X1048928Y-6120214D01*
X1048928Y-6148786D02*
X1063214Y-6134500D01*
X1091786Y-6120214D01*
X1134643Y-6120214D01*
X1163214Y-6134500D01*
X1177500Y-6163071D01*
X1177500Y-6320214D01*
X1177500Y-6163071D02*
X1191786Y-6134500D01*
X1220357Y-6120214D01*
X1263214Y-6120214D01*
X1291786Y-6134500D01*
X1306071Y-6163071D01*
X1306071Y-6320214D01*
X1891786Y-6005929D02*
X1634643Y-6391643D01*
X2277500Y-6020214D02*
X2306071Y-6020214D01*
X2334643Y-6034500D01*
X2348928Y-6048786D01*
X2363214Y-6077357D01*
X2377500Y-6134500D01*
X2377500Y-6205929D01*
X2363214Y-6263071D01*
X2348928Y-6291643D01*
X2334643Y-6305929D01*
X2306071Y-6320214D01*
X2277500Y-6320214D01*
X2248928Y-6305929D01*
X2234643Y-6291643D01*
X2220357Y-6263071D01*
X2206071Y-6205929D01*
X2206071Y-6134500D01*
X2220357Y-6077357D01*
X2234643Y-6048786D01*
X2248928Y-6034500D01*
X2277500Y-6020214D01*
X2506071Y-6291643D02*
X2520357Y-6305929D01*
X2506071Y-6320214D01*
X2491786Y-6305929D01*
X2506071Y-6291643D01*
X2506071Y-6320214D01*
X2706071Y-6020214D02*
X2734643Y-6020214D01*
X2763214Y-6034500D01*
X2777500Y-6048786D01*
X2791786Y-6077357D01*
X2806071Y-6134500D01*
X2806071Y-6205929D01*
X2791786Y-6263071D01*
X2777500Y-6291643D01*
X2763214Y-6305929D01*
X2734643Y-6320214D01*
X2706071Y-6320214D01*
X2677500Y-6305929D01*
X2663214Y-6291643D01*
X2648928Y-6263071D01*
X2634643Y-6205929D01*
X2634643Y-6134500D01*
X2648928Y-6077357D01*
X2663214Y-6048786D01*
X2677500Y-6034500D01*
X2706071Y-6020214D01*
X2906071Y-6020214D02*
X3091786Y-6020214D01*
X2991786Y-6134500D01*
X3034643Y-6134500D01*
X3063214Y-6148786D01*
X3077500Y-6163071D01*
X3091786Y-6191643D01*
X3091786Y-6263071D01*
X3077500Y-6291643D01*
X3063214Y-6305929D01*
X3034643Y-6320214D01*
X2948928Y-6320214D01*
X2920357Y-6305929D01*
X2906071Y-6291643D01*
X3377500Y-6320214D02*
X3206071Y-6320214D01*
X3291786Y-6320214D02*
X3291786Y-6020214D01*
X3263214Y-6063071D01*
X3234643Y-6091643D01*
X3206071Y-6105929D01*
X3491786Y-6020214D02*
X3491786Y-6077357D01*
X3606071Y-6020214D02*
X3606071Y-6077357D01*
X4048928Y-6434500D02*
X4034643Y-6420214D01*
X4006071Y-6377357D01*
X3991786Y-6348786D01*
X3977500Y-6305929D01*
X3963214Y-6234500D01*
X3963214Y-6177357D01*
X3977500Y-6105929D01*
X3991786Y-6063071D01*
X4006071Y-6034500D01*
X4034643Y-5991643D01*
X4048928Y-5977357D01*
X4320357Y-6320214D02*
X4148928Y-6320214D01*
X4234643Y-6320214D02*
X4234643Y-6020214D01*
X4206071Y-6063071D01*
X4177500Y-6091643D01*
X4148928Y-6105929D01*
X4577500Y-6020214D02*
X4520357Y-6020214D01*
X4491786Y-6034500D01*
X4477500Y-6048786D01*
X4448928Y-6091643D01*
X4434643Y-6148786D01*
X4434643Y-6263071D01*
X4448928Y-6291643D01*
X4463214Y-6305929D01*
X4491786Y-6320214D01*
X4548928Y-6320214D01*
X4577500Y-6305929D01*
X4591786Y-6291643D01*
X4606071Y-6263071D01*
X4606071Y-6191643D01*
X4591786Y-6163071D01*
X4577500Y-6148786D01*
X4548928Y-6134500D01*
X4491786Y-6134500D01*
X4463214Y-6148786D01*
X4448928Y-6163071D01*
X4434643Y-6191643D01*
X4963214Y-6320214D02*
X4963214Y-6020214D01*
X5091786Y-6320214D02*
X5091786Y-6163071D01*
X5077500Y-6134500D01*
X5048928Y-6120214D01*
X5006071Y-6120214D01*
X4977500Y-6134500D01*
X4963214Y-6148786D01*
X5277500Y-6320214D02*
X5248928Y-6305929D01*
X5234643Y-6291643D01*
X5220357Y-6263071D01*
X5220357Y-6177357D01*
X5234643Y-6148786D01*
X5248928Y-6134500D01*
X5277500Y-6120214D01*
X5320357Y-6120214D01*
X5348928Y-6134500D01*
X5363214Y-6148786D01*
X5377500Y-6177357D01*
X5377500Y-6263071D01*
X5363214Y-6291643D01*
X5348928Y-6305929D01*
X5320357Y-6320214D01*
X5277500Y-6320214D01*
X5548928Y-6320214D02*
X5520357Y-6305929D01*
X5506071Y-6277357D01*
X5506071Y-6020214D01*
X5777500Y-6305929D02*
X5748928Y-6320214D01*
X5691786Y-6320214D01*
X5663214Y-6305929D01*
X5648928Y-6277357D01*
X5648928Y-6163071D01*
X5663214Y-6134500D01*
X5691786Y-6120214D01*
X5748928Y-6120214D01*
X5777500Y-6134500D01*
X5791786Y-6163071D01*
X5791786Y-6191643D01*
X5648928Y-6220214D01*
X5906071Y-6305929D02*
X5934643Y-6320214D01*
X5991786Y-6320214D01*
X6020357Y-6305929D01*
X6034643Y-6277357D01*
X6034643Y-6263071D01*
X6020357Y-6234500D01*
X5991786Y-6220214D01*
X5948928Y-6220214D01*
X5920357Y-6205929D01*
X5906071Y-6177357D01*
X5906071Y-6163071D01*
X5920357Y-6134500D01*
X5948928Y-6120214D01*
X5991786Y-6120214D01*
X6020357Y-6134500D01*
X6134643Y-6434500D02*
X6148928Y-6420214D01*
X6177500Y-6377357D01*
X6191786Y-6348786D01*
X6206071Y-6305929D01*
X6220357Y-6234500D01*
X6220357Y-6177357D01*
X6206071Y-6105929D01*
X6191786Y-6063071D01*
X6177500Y-6034500D01*
X6148928Y-5991643D01*
X6134643Y-5977357D01*
X-687500Y-6530500D02*
X-687500Y-6630500D01*
X-737500Y-6580500D02*
X-637500Y-6580500D01*
X-193929Y-6716214D02*
X-365357Y-6716214D01*
X-279643Y-6716214D02*
X-279643Y-6416214D01*
X-308214Y-6459071D01*
X-336786Y-6487643D01*
X-365357Y-6501929D01*
X-65357Y-6687643D02*
X-51071Y-6701929D01*
X-65357Y-6716214D01*
X-79643Y-6701929D01*
X-65357Y-6687643D01*
X-65357Y-6716214D01*
X134643Y-6416214D02*
X163214Y-6416214D01*
X191786Y-6430500D01*
X206071Y-6444786D01*
X220357Y-6473357D01*
X234643Y-6530500D01*
X234643Y-6601929D01*
X220357Y-6659071D01*
X206071Y-6687643D01*
X191786Y-6701929D01*
X163214Y-6716214D01*
X134643Y-6716214D01*
X106071Y-6701929D01*
X91786Y-6687643D01*
X77500Y-6659071D01*
X63214Y-6601929D01*
X63214Y-6530500D01*
X77500Y-6473357D01*
X91786Y-6444786D01*
X106071Y-6430500D01*
X134643Y-6416214D01*
X420357Y-6416214D02*
X448928Y-6416214D01*
X477500Y-6430500D01*
X491786Y-6444786D01*
X506071Y-6473357D01*
X520357Y-6530500D01*
X520357Y-6601929D01*
X506071Y-6659071D01*
X491786Y-6687643D01*
X477500Y-6701929D01*
X448928Y-6716214D01*
X420357Y-6716214D01*
X391786Y-6701929D01*
X377500Y-6687643D01*
X363214Y-6659071D01*
X348928Y-6601929D01*
X348928Y-6530500D01*
X363214Y-6473357D01*
X377500Y-6444786D01*
X391786Y-6430500D01*
X420357Y-6416214D01*
X648928Y-6716214D02*
X648928Y-6516214D01*
X648928Y-6544786D02*
X663214Y-6530500D01*
X691786Y-6516214D01*
X734643Y-6516214D01*
X763214Y-6530500D01*
X777500Y-6559071D01*
X777500Y-6716214D01*
X777500Y-6559071D02*
X791786Y-6530500D01*
X820357Y-6516214D01*
X863214Y-6516214D01*
X891786Y-6530500D01*
X906071Y-6559071D01*
X906071Y-6716214D01*
X1048928Y-6716214D02*
X1048928Y-6516214D01*
X1048928Y-6544786D02*
X1063214Y-6530500D01*
X1091786Y-6516214D01*
X1134643Y-6516214D01*
X1163214Y-6530500D01*
X1177500Y-6559071D01*
X1177500Y-6716214D01*
X1177500Y-6559071D02*
X1191786Y-6530500D01*
X1220357Y-6516214D01*
X1263214Y-6516214D01*
X1291786Y-6530500D01*
X1306071Y-6559071D01*
X1306071Y-6716214D01*
X1891786Y-6401929D02*
X1634643Y-6787643D01*
X2277500Y-6416214D02*
X2306071Y-6416214D01*
X2334643Y-6430500D01*
X2348928Y-6444786D01*
X2363214Y-6473357D01*
X2377500Y-6530500D01*
X2377500Y-6601929D01*
X2363214Y-6659071D01*
X2348928Y-6687643D01*
X2334643Y-6701929D01*
X2306071Y-6716214D01*
X2277500Y-6716214D01*
X2248928Y-6701929D01*
X2234643Y-6687643D01*
X2220357Y-6659071D01*
X2206071Y-6601929D01*
X2206071Y-6530500D01*
X2220357Y-6473357D01*
X2234643Y-6444786D01*
X2248928Y-6430500D01*
X2277500Y-6416214D01*
X2506071Y-6687643D02*
X2520357Y-6701929D01*
X2506071Y-6716214D01*
X2491786Y-6701929D01*
X2506071Y-6687643D01*
X2506071Y-6716214D01*
X2706071Y-6416214D02*
X2734643Y-6416214D01*
X2763214Y-6430500D01*
X2777500Y-6444786D01*
X2791786Y-6473357D01*
X2806071Y-6530500D01*
X2806071Y-6601929D01*
X2791786Y-6659071D01*
X2777500Y-6687643D01*
X2763214Y-6701929D01*
X2734643Y-6716214D01*
X2706071Y-6716214D01*
X2677500Y-6701929D01*
X2663214Y-6687643D01*
X2648928Y-6659071D01*
X2634643Y-6601929D01*
X2634643Y-6530500D01*
X2648928Y-6473357D01*
X2663214Y-6444786D01*
X2677500Y-6430500D01*
X2706071Y-6416214D01*
X2906071Y-6416214D02*
X3091786Y-6416214D01*
X2991786Y-6530500D01*
X3034643Y-6530500D01*
X3063214Y-6544786D01*
X3077500Y-6559071D01*
X3091786Y-6587643D01*
X3091786Y-6659071D01*
X3077500Y-6687643D01*
X3063214Y-6701929D01*
X3034643Y-6716214D01*
X2948928Y-6716214D01*
X2920357Y-6701929D01*
X2906071Y-6687643D01*
X3234643Y-6716214D02*
X3291786Y-6716214D01*
X3320357Y-6701929D01*
X3334643Y-6687643D01*
X3363214Y-6644786D01*
X3377500Y-6587643D01*
X3377500Y-6473357D01*
X3363214Y-6444786D01*
X3348928Y-6430500D01*
X3320357Y-6416214D01*
X3263214Y-6416214D01*
X3234643Y-6430500D01*
X3220357Y-6444786D01*
X3206071Y-6473357D01*
X3206071Y-6544786D01*
X3220357Y-6573357D01*
X3234643Y-6587643D01*
X3263214Y-6601929D01*
X3320357Y-6601929D01*
X3348928Y-6587643D01*
X3363214Y-6573357D01*
X3377500Y-6544786D01*
X3491786Y-6416214D02*
X3491786Y-6473357D01*
X3606071Y-6416214D02*
X3606071Y-6473357D01*
X4048928Y-6830500D02*
X4034643Y-6816214D01*
X4006071Y-6773357D01*
X3991786Y-6744786D01*
X3977500Y-6701929D01*
X3963214Y-6630500D01*
X3963214Y-6573357D01*
X3977500Y-6501929D01*
X3991786Y-6459071D01*
X4006071Y-6430500D01*
X4034643Y-6387643D01*
X4048928Y-6373357D01*
X4148928Y-6444786D02*
X4163214Y-6430500D01*
X4191786Y-6416214D01*
X4263214Y-6416214D01*
X4291786Y-6430500D01*
X4306071Y-6444786D01*
X4320357Y-6473357D01*
X4320357Y-6501929D01*
X4306071Y-6544786D01*
X4134643Y-6716214D01*
X4320357Y-6716214D01*
X4577500Y-6516214D02*
X4577500Y-6716214D01*
X4506071Y-6401929D02*
X4434643Y-6616214D01*
X4620357Y-6616214D01*
X4963214Y-6716214D02*
X4963214Y-6416214D01*
X5091786Y-6716214D02*
X5091786Y-6559071D01*
X5077500Y-6530500D01*
X5048928Y-6516214D01*
X5006071Y-6516214D01*
X4977500Y-6530500D01*
X4963214Y-6544786D01*
X5277500Y-6716214D02*
X5248928Y-6701929D01*
X5234643Y-6687643D01*
X5220357Y-6659071D01*
X5220357Y-6573357D01*
X5234643Y-6544786D01*
X5248928Y-6530500D01*
X5277500Y-6516214D01*
X5320357Y-6516214D01*
X5348928Y-6530500D01*
X5363214Y-6544786D01*
X5377500Y-6573357D01*
X5377500Y-6659071D01*
X5363214Y-6687643D01*
X5348928Y-6701929D01*
X5320357Y-6716214D01*
X5277500Y-6716214D01*
X5548928Y-6716214D02*
X5520357Y-6701929D01*
X5506071Y-6673357D01*
X5506071Y-6416214D01*
X5777500Y-6701929D02*
X5748928Y-6716214D01*
X5691786Y-6716214D01*
X5663214Y-6701929D01*
X5648928Y-6673357D01*
X5648928Y-6559071D01*
X5663214Y-6530500D01*
X5691786Y-6516214D01*
X5748928Y-6516214D01*
X5777500Y-6530500D01*
X5791786Y-6559071D01*
X5791786Y-6587643D01*
X5648928Y-6616214D01*
X5906071Y-6701929D02*
X5934643Y-6716214D01*
X5991786Y-6716214D01*
X6020357Y-6701929D01*
X6034643Y-6673357D01*
X6034643Y-6659071D01*
X6020357Y-6630500D01*
X5991786Y-6616214D01*
X5948928Y-6616214D01*
X5920357Y-6601929D01*
X5906071Y-6573357D01*
X5906071Y-6559071D01*
X5920357Y-6530500D01*
X5948928Y-6516214D01*
X5991786Y-6516214D01*
X6020357Y-6530500D01*
X6134643Y-6830500D02*
X6148928Y-6816214D01*
X6177500Y-6773357D01*
X6191786Y-6744786D01*
X6206071Y-6701929D01*
X6220357Y-6630500D01*
X6220357Y-6573357D01*
X6206071Y-6501929D01*
X6191786Y-6459071D01*
X6177500Y-6430500D01*
X6148928Y-6387643D01*
X6134643Y-6373357D01*
M02*
